<svg width="17" height="18" viewBox="0 0 17 18" fill="none" xmlns="http://www.w3.org/2000/svg">
<g clip-path="url(#clip0_505_4240)">
<path d="M9.21019 18H7.78875C7.26114 17.9994 6.75531 17.7918 6.38223 17.4228C6.00915 17.0537 5.79931 16.5532 5.79875 16.0312V15.3236C5.27167 15.1018 4.77451 14.8162 4.31868 14.4731L3.69502 14.8296C3.46869 14.9589 3.21884 15.0428 2.95973 15.0765C2.70062 15.1103 2.43733 15.0932 2.18489 15.0263C1.93246 14.9594 1.69581 14.8439 1.48848 14.6865C1.28115 14.5291 1.10719 14.3328 0.97653 14.1089L0.265813 12.8911C0.00254126 12.4388 -0.0686523 11.9016 0.0678466 11.3974C0.204346 10.8933 0.537393 10.4632 0.993942 10.2016L1.59805 9.85746C1.51466 9.2888 1.51466 8.7112 1.59805 8.14254L0.993942 7.79836C0.537393 7.53678 0.204346 7.10674 0.0678466 6.60256C-0.0686523 6.09838 0.00254126 5.56123 0.265813 5.10891L0.97653 3.89109C1.24041 3.43896 1.67501 3.10903 2.18474 2.97388C2.69448 2.83872 3.23761 2.90941 3.69467 3.17039L4.31868 3.52652C4.77452 3.18358 5.27169 2.89803 5.79875 2.67645V1.96875C5.79931 1.44678 6.00915 0.946341 6.38223 0.57725C6.75531 0.208159 7.26114 0.000558361 7.78875 0L9.21019 0C9.7378 0.000558361 10.2436 0.208159 10.6167 0.57725C10.9898 0.946341 11.1996 1.44678 11.2002 1.96875V2.67645C11.7273 2.89803 12.2244 3.18358 12.6803 3.52652L13.3039 3.17039C13.5302 3.04111 13.7801 2.9572 14.0392 2.92345C14.2983 2.88971 14.5616 2.90678 14.814 2.97371C15.0665 3.04063 15.3031 3.15609 15.5105 3.3135C15.7178 3.4709 15.8918 3.66717 16.0224 3.89109L16.7331 5.10891C16.9964 5.56127 17.0675 6.09846 16.9309 6.60264C16.7944 7.10682 16.4613 7.53684 16.0046 7.79836L15.4005 8.14254C15.4839 8.7112 15.4839 9.2888 15.4005 9.85746L16.0046 10.2016C16.4612 10.4632 16.7942 10.8933 16.9307 11.3974C17.0672 11.9016 16.996 12.4388 16.7328 12.8911L16.0221 14.1089C15.8914 14.3328 15.7174 14.5291 15.5101 14.6865C15.3028 14.8439 15.0661 14.9594 14.8137 15.0263C14.5613 15.0932 14.298 15.1103 14.0389 15.0765C13.7797 15.0428 13.5299 14.9589 13.3036 14.8296L12.6799 14.4731C12.2242 14.8162 11.7272 15.1019 11.2002 15.3236V16.0312C11.1996 16.5532 10.9898 17.0537 10.6167 17.4228C10.2436 17.7918 9.7378 17.9994 9.21019 18ZM4.38726 12.9189C4.55661 12.9188 4.72044 12.9785 4.84923 13.0873L4.92563 13.1516C5.43558 13.5844 6.02142 13.921 6.65409 14.1448L6.74862 14.1799C6.88633 14.2286 7.00551 14.3181 7.0899 14.4363C7.17429 14.5544 7.21979 14.6955 7.22018 14.8402V16.0312C7.22018 16.1804 7.28008 16.3235 7.38671 16.429C7.49334 16.5345 7.63796 16.5938 7.78875 16.5938H9.21019C9.36098 16.5938 9.5056 16.5345 9.61223 16.429C9.71886 16.3235 9.77876 16.1804 9.77876 16.0312V14.8402C9.77879 14.6952 9.82411 14.5538 9.90853 14.4352C9.99294 14.3167 10.1123 14.2269 10.2503 14.1782L10.3448 14.143C10.9776 13.9192 11.5635 13.5826 12.0737 13.1498L12.1501 13.0855C12.2618 12.991 12.4004 12.9332 12.5468 12.9199C12.6932 12.9066 12.8401 12.9386 12.9674 13.0113L14.0153 13.609C14.1459 13.6835 14.3011 13.7036 14.4467 13.665C14.5923 13.6264 14.7164 13.5321 14.7918 13.403L15.5025 12.1852C15.5399 12.1212 15.5641 12.0505 15.5739 11.9773C15.5836 11.904 15.5787 11.8296 15.5593 11.7582C15.54 11.6869 15.5066 11.62 15.4612 11.5613C15.4157 11.5027 15.359 11.4536 15.2943 11.4166L14.2637 10.8288C14.1363 10.7561 14.0349 10.646 13.9734 10.5137C13.9119 10.3815 13.8934 10.2336 13.9205 10.0905L13.9386 9.99281C14.0039 9.66571 14.0389 9.33339 14.0431 9C14.0395 8.66522 14.0049 8.33148 13.9397 8.00297L13.9215 7.90488C13.8949 7.76207 13.9135 7.6146 13.975 7.48272C14.0365 7.35084 14.1377 7.24102 14.2648 7.16836L15.2953 6.58055C15.36 6.54362 15.4167 6.49445 15.4622 6.43584C15.5077 6.37723 15.5411 6.31034 15.5604 6.23897C15.5797 6.1676 15.5847 6.09316 15.5749 6.01991C15.5652 5.94665 15.5409 5.87602 15.5036 5.81203L14.7929 4.59422C14.7555 4.53022 14.7058 4.47412 14.6466 4.42913C14.5874 4.38414 14.5197 4.35113 14.4476 4.332C14.3755 4.31287 14.3002 4.30799 14.2262 4.31763C14.1521 4.32727 14.0807 4.35125 14.0161 4.3882L12.9681 4.98586C12.8408 5.05863 12.6939 5.09057 12.5475 5.07729C12.4011 5.064 12.2625 5.00614 12.1508 4.91168L12.0744 4.84734C11.5643 4.4147 10.9785 4.0781 10.3459 3.85418L10.2517 3.82113C10.1136 3.77262 9.99399 3.68304 9.90932 3.56465C9.82464 3.44626 9.77904 3.30487 9.77876 3.15984V1.96875C9.77876 1.81957 9.71886 1.67649 9.61223 1.571C9.5056 1.46551 9.36098 1.40625 9.21019 1.40625H7.78875C7.63796 1.40625 7.49334 1.46551 7.38671 1.571C7.28008 1.67649 7.22018 1.81957 7.22018 1.96875V3.15984C7.22013 3.30486 7.17475 3.44632 7.09027 3.56483C7.00578 3.68334 6.88633 3.77311 6.74826 3.82184L6.65374 3.85699C6.02107 4.08099 5.43516 4.41758 4.92492 4.85016L4.84852 4.91449C4.73676 5.00896 4.59815 5.06681 4.45177 5.0801C4.3054 5.09339 4.15845 5.06144 4.03119 4.98867L2.98359 4.39102C2.91892 4.35407 2.84752 4.33009 2.77347 4.32044C2.69943 4.3108 2.62419 4.31568 2.55205 4.33482C2.47991 4.35395 2.41229 4.38695 2.35305 4.43194C2.29381 4.47693 2.2441 4.53303 2.20678 4.59703L1.49606 5.81484C1.4587 5.87881 1.43444 5.94943 1.42467 6.02267C1.41489 6.09591 1.4198 6.17034 1.4391 6.2417C1.45841 6.31307 1.49173 6.37997 1.53718 6.43859C1.58262 6.49721 1.63929 6.54641 1.70395 6.58336L2.73449 7.17117C2.86158 7.24384 2.96282 7.35365 3.02429 7.48553C3.08575 7.61741 3.10443 7.76489 3.07776 7.90769L3.05964 8.00543C2.99446 8.33313 2.95973 8.66604 2.95588 9C2.95942 9.33477 2.99404 9.66852 3.05929 9.99703L3.07741 10.0951C3.10447 10.2382 3.08599 10.3861 3.0245 10.5183C2.96301 10.6505 2.86156 10.7606 2.73413 10.8334L1.70359 11.4212C1.6389 11.4581 1.5822 11.5073 1.53672 11.5659C1.49124 11.6245 1.45788 11.6914 1.43855 11.7628C1.41921 11.8342 1.41427 11.9086 1.42402 11.9818C1.43377 12.0551 1.45801 12.1257 1.49535 12.1897L2.20607 13.4075C2.25629 13.493 2.32831 13.564 2.41492 13.6133C2.50153 13.6627 2.59971 13.6887 2.69966 13.6888C2.79951 13.6889 2.8976 13.6628 2.98395 13.6132L4.0319 13.0155C4.1397 12.953 4.26228 12.9196 4.38726 12.9189Z" fill="#ABCA74"/>
<path d="M8.49988 12.5156C7.79704 12.5156 7.10999 12.3094 6.52561 11.9231C5.94123 11.5368 5.48575 10.9878 5.21679 10.3454C4.94783 9.70298 4.87746 8.9961 5.01457 8.31414C5.15169 7.63217 5.49013 7.00575 5.98711 6.51408C6.48409 6.02241 7.11728 5.68758 7.80661 5.55193C8.49593 5.41628 9.21044 5.4859 9.85978 5.75199C10.5091 6.01808 11.0641 6.46868 11.4546 7.04682C11.845 7.62497 12.0535 8.30468 12.0535 9C12.0524 9.93209 11.6777 10.8257 11.0115 11.4848C10.3453 12.1439 9.44203 12.5146 8.49988 12.5156ZM8.49988 6.89063C8.07818 6.89063 7.66595 7.01434 7.31532 7.24612C6.96469 7.4779 6.6914 7.80734 6.53003 8.19278C6.36865 8.57822 6.32642 9.00234 6.40869 9.41152C6.49096 9.8207 6.69403 10.1966 6.99222 10.4916C7.2904 10.7866 7.67032 10.9875 8.08391 11.0688C8.49751 11.1502 8.92622 11.1085 9.31582 10.9488C9.70542 10.7892 10.0384 10.5188 10.2727 10.1719C10.507 9.82502 10.632 9.4172 10.632 9C10.6314 8.44076 10.4065 7.90461 10.0068 7.50917C9.6071 7.11372 9.06516 6.89128 8.49988 6.89063Z" fill="#ABCA74"/>
</g>
<defs>
<clipPath id="clip0_505_4240">
<rect width="17" height="18" fill="white"/>
</clipPath>
</defs>
</svg>
