<svg width="18" height="18" viewBox="0 0 18 18" fill="none" xmlns="http://www.w3.org/2000/svg">
<g clip-path="url(#clip0_697_4005)">
<path d="M16.3125 15.75H1.68751C0.756973 15.75 0 14.993 0 14.0625V11.25C0 10.9391 0.25158 10.6875 0.562503 10.6875C1.49304 10.6875 2.25001 9.93051 2.25001 8.99997C2.25001 8.06944 1.49304 7.31246 0.562503 7.31246C0.25158 7.3125 0 7.06092 0 6.75V3.93748C0 3.00694 0.756973 2.24997 1.68751 2.24997H16.3125C17.2431 2.24997 18 3.00694 18 3.93748V6.75C18 7.06092 17.7485 7.3125 17.4375 7.3125C16.507 7.3125 15.75 8.06947 15.75 9.00001C15.75 9.93055 16.507 10.6875 17.4375 10.6875C17.7485 10.6875 18 10.9391 18 11.25V14.0625C18 14.993 17.2431 15.75 16.3125 15.75ZM1.12501 11.7559V14.0625C1.12501 14.3729 1.37715 14.625 1.68751 14.625H16.3125C16.6229 14.625 16.875 14.3729 16.875 14.0625V11.7559C15.5929 11.4944 14.625 10.3585 14.625 8.99997C14.625 7.64149 15.5929 6.50554 16.875 6.24404V3.93748C16.875 3.62712 16.6229 3.37498 16.3125 3.37498H1.68751C1.37715 3.37498 1.12501 3.62712 1.12501 3.93748V6.24407C2.4071 6.50554 3.37502 7.64153 3.37502 9.00001C3.37502 10.3585 2.4071 11.4944 1.12501 11.7559Z" fill="#ABCA74"/>
<path d="M6.78613 13.2948L10.1599 4.29797L11.2133 4.69298L7.83949 13.6898L6.78613 13.2948Z" fill="#ABCA74"/>
<path d="M6.33888 9.18938C5.40834 9.18938 4.65137 8.43241 4.65137 7.50187C4.65137 6.57133 5.40834 5.81436 6.33888 5.81436C7.26942 5.81436 8.02639 6.57133 8.02639 7.50187C8.02639 8.43241 7.26942 9.18938 6.33888 9.18938ZM6.33888 6.93937C6.02852 6.93937 5.77637 7.19152 5.77637 7.50187C5.77637 7.81223 6.02852 8.06438 6.33888 8.06438C6.64923 8.06438 6.90138 7.81223 6.90138 7.50187C6.90138 7.19152 6.64923 6.93937 6.33888 6.93937Z" fill="#ABCA74"/>
<path d="M12.1533 12.678C11.2228 12.678 10.4658 11.921 10.4658 10.9905C10.4658 10.0599 11.2228 9.30295 12.1533 9.30295C13.0839 9.30295 13.8408 10.0599 13.8408 10.9905C13.8408 11.921 13.0839 12.678 12.1533 12.678ZM12.1533 10.428C11.843 10.428 11.5908 10.6801 11.5908 10.9905C11.5908 11.3008 11.843 11.553 12.1533 11.553C12.4637 11.553 12.7158 11.3008 12.7158 10.9905C12.7158 10.6801 12.4637 10.428 12.1533 10.428Z" fill="#ABCA74"/>
</g>
<defs>
<clipPath id="clip0_697_4005">
<rect width="18" height="18" fill="white"/>
</clipPath>
</defs>
</svg>
