<svg width="16" height="16" viewBox="0 0 16 16" fill="none" xmlns="http://www.w3.org/2000/svg">
<path d="M13.6001 0H8.80001C8.58783 0 8.38435 0.0842854 8.23432 0.234315C8.08429 0.384344 8 0.587827 8 0.8C8 1.01217 8.08429 1.21566 8.23432 1.36569C8.38435 1.51571 8.58783 1.6 8.80001 1.6H13.6001C13.8122 1.6 14.0157 1.68429 14.1658 1.83431C14.3158 1.98434 14.4001 2.18783 14.4001 2.4V13.6C14.4001 13.8122 14.3158 14.0157 14.1658 14.1657C14.0157 14.3157 13.8122 14.4 13.6001 14.4H8.80001C8.58783 14.4 8.38435 14.4843 8.23432 14.6343C8.08429 14.7843 8 14.9878 8 15.2C8 15.4122 8.08429 15.6157 8.23432 15.7657C8.38435 15.9157 8.58783 16 8.80001 16H13.6001C14.2366 16 14.847 15.7471 15.2971 15.2971C15.7472 14.847 16.0001 14.2365 16.0001 13.6V2.4C16.0001 1.76348 15.7472 1.15303 15.2971 0.702944C14.847 0.252856 14.2366 0 13.6001 0Z" fill="#ABCA74"/>
<path d="M4.56548 10.6344C4.64189 10.7082 4.70283 10.7965 4.74476 10.8941C4.78669 10.9917 4.80876 11.0967 4.80968 11.2029C4.8106 11.3091 4.79036 11.4144 4.75014 11.5128C4.70991 11.6111 4.65051 11.7004 4.57539 11.7755C4.50028 11.8506 4.41096 11.91 4.31264 11.9503C4.21432 11.9905 4.10898 12.0107 4.00275 12.0098C3.89653 12.0089 3.79155 11.9868 3.69395 11.9449C3.59634 11.903 3.50806 11.842 3.43427 11.7656L0.234232 8.5656C0.0842531 8.41558 0 8.21214 0 8C0 7.78787 0.0842531 7.58443 0.234232 7.4344L3.43427 4.2344C3.50806 4.158 3.59634 4.09705 3.69395 4.05512C3.79155 4.0132 3.89653 3.99113 4.00275 3.9902C4.10898 3.98928 4.21432 4.00952 4.31264 4.04975C4.41096 4.08997 4.50028 4.14937 4.57539 4.22449C4.65051 4.2996 4.70991 4.38892 4.75014 4.48724C4.79036 4.58556 4.8106 4.6909 4.80968 4.79712C4.80876 4.90335 4.78669 5.00832 4.74476 5.10593C4.70283 5.20353 4.64189 5.29181 4.56548 5.3656L2.73106 7.2H12C12.2121 7.2 12.4156 7.28429 12.5656 7.43432C12.7157 7.58435 12.8 7.78783 12.8 8C12.8 8.21218 12.7157 8.41566 12.5656 8.56569C12.4156 8.71572 12.2121 8.8 12 8.8H2.73106L4.56548 10.6344Z" fill="#ABCA74"/>
</svg>
