<svg width="107" height="100" viewBox="0 0 107 100" fill="none" xmlns="http://www.w3.org/2000/svg">
<g opacity="0.5" clip-path="url(#clip0_473_4207)">
<path d="M42.1772 100.002C39.8594 100.002 37.5936 99.3145 35.6664 98.0264C33.7392 96.7384 32.2371 94.9076 31.3501 92.7657C30.4631 90.6237 30.231 88.2668 30.6832 85.9929C31.1354 83.719 32.2515 81.6303 33.8905 79.9909C35.5295 78.3516 37.6176 77.2351 39.8909 76.7828C42.1642 76.3305 44.5206 76.5627 46.662 77.4499C48.8034 78.3371 50.6337 79.8396 51.9214 81.7673C53.2091 83.695 53.8964 85.9613 53.8964 88.2798C53.8964 89.8191 53.5933 91.3435 53.0044 92.7657C52.4154 94.1879 51.5522 95.4801 50.4639 96.5686C49.3757 97.6571 48.0838 98.5206 46.662 99.1097C45.2401 99.6987 43.7162 100.002 42.1772 100.002ZM42.1772 84.3724C41.4046 84.3724 40.6493 84.6015 40.0069 85.0309C39.3645 85.4602 38.8638 86.0705 38.5682 86.7845C38.2725 87.4985 38.1951 88.2841 38.3459 89.0421C38.4966 89.8 38.8687 90.4963 39.415 91.0427C39.9613 91.5892 40.6574 91.9613 41.4151 92.1121C42.1729 92.2629 42.9583 92.1855 43.6721 91.8897C44.3859 91.594 44.996 91.0932 45.4253 90.4506C45.8545 89.808 46.0836 89.0526 46.0836 88.2798C46.08 87.2458 45.6668 86.2555 44.9346 85.5257C44.2024 84.7958 43.2109 84.386 42.1772 84.386V84.3724Z" fill="#ABCA74"/>
<path d="M89.0406 84.386H40.8395C39.8035 84.386 38.8099 83.9744 38.0773 83.2416C37.3447 82.5088 36.9331 81.515 36.9331 80.4787C36.9331 79.4423 37.3447 78.4485 38.0773 77.7157C38.8099 76.9829 39.8035 76.5713 40.8395 76.5713H89.0406C90.0767 76.5713 91.0703 76.9829 91.8029 77.7157C92.5354 78.4485 92.947 79.4423 92.947 80.4787C92.947 81.515 92.5354 82.5088 91.8029 83.2416C91.0703 83.9744 90.0767 84.386 89.0406 84.386Z" fill="#ABCA74"/>
<path d="M42.1773 84.386H27.3447C24.2366 84.386 21.2557 83.151 19.058 80.9527C16.8602 78.7544 15.6255 75.7728 15.6255 72.6639C15.6255 69.5549 16.8602 66.5734 19.058 64.375C21.2557 62.1767 24.2366 60.9417 27.3447 60.9417H35.1575C36.1935 60.9417 37.1872 61.3533 37.9197 62.0861C38.6523 62.8189 39.0639 63.8128 39.0639 64.8491C39.0639 65.8854 38.6523 66.8792 37.9197 67.612C37.1872 68.3448 36.1935 68.7565 35.1575 68.7565H27.3447C26.3087 68.7565 25.315 69.1681 24.5825 69.9009C23.8499 70.6337 23.4383 71.6276 23.4383 72.6639C23.4383 73.7002 23.8499 74.694 24.5825 75.4268C25.315 76.1596 26.3087 76.5713 27.3447 76.5713H42.189C43.2251 76.5713 44.2187 76.9829 44.9513 77.7157C45.6839 78.4485 46.0954 79.4423 46.0954 80.4786C46.0954 81.515 45.6839 82.5088 44.9513 83.2416C44.2187 83.9744 43.2251 84.386 42.189 84.386H42.1773Z" fill="#ABCA74"/>
<path d="M73.4189 100.002C71.1011 100.002 68.8353 99.3145 66.9081 98.0264C64.9809 96.7384 63.4788 94.9076 62.5918 92.7657C61.7048 90.6237 61.4727 88.2668 61.9249 85.9929C62.3771 83.719 63.4932 81.6303 65.1322 79.9909C66.7712 78.3516 68.8593 77.2351 71.1326 76.7828C73.4059 76.3305 75.7623 76.5627 77.9037 77.4499C80.0451 78.3371 81.8754 79.8396 83.1631 81.7673C84.4508 83.695 85.1381 85.9613 85.1381 88.2798C85.1355 91.3879 83.9 94.368 81.7028 96.5658C79.5056 98.7635 76.5263 99.9994 73.4189 100.002ZM73.4189 84.3724C72.6463 84.3724 71.891 84.6015 71.2486 85.0309C70.6062 85.4602 70.1055 86.0705 69.8099 86.7845C69.5142 87.4985 69.4368 88.2841 69.5876 89.0421C69.7383 89.8 70.1104 90.4963 70.6567 91.0427C71.203 91.5892 71.899 91.9613 72.6568 92.1121C73.4146 92.2629 74.2 92.1855 74.9138 91.8897C75.6276 91.594 76.2377 91.0932 76.667 90.4506C77.0962 89.808 77.3253 89.0526 77.3253 88.2798C77.3217 87.2458 76.9085 86.2555 76.1763 85.5257C75.4441 84.7958 74.4526 84.386 73.4189 84.386V84.3724Z" fill="#ABCA74"/>
<path d="M65.6082 46.0936H49.9826C48.9465 46.0936 47.9529 45.6819 47.2203 44.9491C46.4877 44.2164 46.0762 43.2225 46.0762 42.1862C46.0762 41.1499 46.4877 40.156 47.2203 39.4232C47.9529 38.6905 48.9465 38.2788 49.9826 38.2788H65.6082C66.6442 38.2788 67.6378 38.6905 68.3704 39.4232C69.103 40.156 69.5146 41.1499 69.5146 42.1862C69.5146 43.2225 69.103 44.2164 68.3704 44.9491C67.6378 45.6819 66.6442 46.0936 65.6082 46.0936Z" fill="#ABCA74"/>
<path d="M57.799 53.9084C56.7629 53.9084 55.7693 53.4967 55.0367 52.7639C54.3041 52.0311 53.8926 51.0373 53.8926 50.001V34.3714C53.8926 33.3351 54.3041 32.3412 55.0367 31.6085C55.7693 30.8757 56.7629 30.464 57.799 30.464C58.835 30.464 59.8286 30.8757 60.5612 31.6085C61.2938 32.3412 61.7054 33.3351 61.7054 34.3714V50.001C61.7054 51.0373 61.2938 52.0311 60.5612 52.7639C59.8286 53.4967 58.835 53.9084 57.799 53.9084Z" fill="#ABCA74"/>
<path d="M80.4483 68.7565C79.4123 68.7565 78.4187 68.3448 77.6861 67.612C76.9535 66.8792 76.5419 65.8854 76.5419 64.8491C76.5419 63.8128 76.9535 62.8189 77.6861 62.0861C78.4187 61.3534 79.4123 60.9417 80.4483 60.9417C81.3236 60.9485 82.1752 60.6575 82.8633 60.1165C83.5515 59.5755 84.0354 58.8166 84.2356 57.9643L84.2473 57.9174L92.0601 28.2212C92.0601 28.1958 92.0757 28.1684 92.0816 28.1411C92.3668 27.1466 92.105 25.9803 91.3843 25.0151C91.0248 24.5235 90.5545 24.1236 90.0115 23.848C89.4685 23.5723 88.8681 23.4287 88.2592 23.4287H27.3447C26.7358 23.4287 26.1354 23.5723 25.5924 23.848C25.0494 24.1236 24.579 24.5235 24.2196 25.0151C23.4988 25.9744 23.243 27.1408 23.5223 28.1411C23.5223 28.1684 23.536 28.1958 23.5438 28.2212L31.3566 57.9174L31.3683 57.9643C31.5686 58.8169 32.0527 59.5761 32.7413 60.1171C33.4299 60.6582 34.2819 60.9489 35.1575 60.9417H64.8462C65.8822 60.9417 66.8758 61.3534 67.6084 62.0861C68.341 62.8189 68.7526 63.8128 68.7526 64.8491C68.7526 65.8854 68.341 66.8792 67.6084 67.612C66.8758 68.3448 65.8822 68.7565 64.8462 68.7565H35.1575C32.5465 68.7568 30.0104 67.884 27.9524 66.2768C25.8944 64.6697 24.4327 62.4204 23.7996 59.8867L15.9927 30.2491C15.0571 26.9278 15.7974 23.2158 17.9791 20.3224C19.0644 18.864 20.4761 17.6803 22.1012 16.866C23.7262 16.0518 25.5194 15.6297 27.3369 15.6335H88.2592C90.0767 15.63 91.8697 16.0522 93.4947 16.8665C95.1197 17.6807 96.5315 18.8643 97.617 20.3224C99.7987 23.2138 100.547 26.9239 99.6034 30.2511L91.8003 59.8808C91.1665 62.4135 89.7056 64.662 87.6491 66.2698C85.5927 67.8777 83.0585 68.7528 80.4483 68.7565Z" fill="#ABCA74"/>
<path d="M19.2898 31.2453C18.4194 31.2443 17.5742 30.9526 16.8884 30.4163C16.2027 29.8801 15.7156 29.1302 15.5045 28.2855L11.9575 14.1016C11.5104 12.3046 10.4747 10.7091 9.01553 9.56927C7.55638 8.42948 5.75777 7.8111 3.9064 7.81269C2.87036 7.81269 1.87675 7.40102 1.14416 6.66824C0.411566 5.93546 0 4.9416 0 3.90529C0 2.86899 0.411566 1.87513 1.14416 1.14235C1.87675 0.409568 2.87036 -0.0021028 3.9064 -0.0021028C7.49975 -0.00538926 10.9908 1.19483 13.8227 3.40718C16.6547 5.61953 18.6647 8.71661 19.532 12.2046L23.079 26.3943C23.2223 26.9701 23.2326 27.5709 23.1091 28.1512C22.9857 28.7315 22.7317 29.2761 22.3665 29.7436C22.0013 30.2112 21.5345 30.5894 21.0014 30.8496C20.4683 31.1097 19.883 31.2451 19.2898 31.2453Z" fill="#ABCA74"/>
</g>
<path d="M92 32C100.284 32 107 25.2843 107 17C107 8.71573 100.284 2 92 2C83.7157 2 77 8.71573 77 17C77 25.2843 83.7157 32 92 32Z" fill="#529E66"/>
<path d="M89.778 23.1111C89.5591 23.1116 89.3423 23.0687 89.1401 22.9848C88.9379 22.9009 88.7544 22.7776 88.6003 22.6222L84.1558 18.1778C83.8614 17.8618 83.7011 17.444 83.7088 17.0122C83.7164 16.5804 83.8913 16.1684 84.1967 15.8631C84.502 15.5577 84.914 15.3828 85.3458 15.3752C85.7775 15.3675 86.1954 15.5278 86.5114 15.8222L89.778 19.0867L97.4891 11.3778C97.8051 11.0834 98.223 10.9231 98.6548 10.9307C99.0865 10.9383 99.4985 11.1133 99.8039 11.4186C100.109 11.724 100.284 12.1359 100.292 12.5677C100.299 12.9995 100.139 13.4174 99.8447 13.7333L90.9558 22.6222C90.8016 22.7776 90.6181 22.9009 90.416 22.9848C90.2138 23.0687 89.9969 23.1116 89.778 23.1111Z" fill="white"/>
<defs>
<clipPath id="clip0_473_4207">
<rect width="100" height="100" fill="white"/>
</clipPath>
</defs>
</svg>
