<svg width="16" height="18" viewBox="0 0 16 18" fill="none" xmlns="http://www.w3.org/2000/svg">
<path d="M8.00004 17.8705C7.71366 17.8708 7.43112 17.8051 7.17472 17.6786L3.96879 16.0892C2.77334 15.5016 1.76787 14.5937 1.06639 13.4683C0.364915 12.3429 -0.00449947 11.0452 4.13629e-05 9.72219V5.0907C-0.000923216 4.57491 0.178506 4.07474 0.507758 3.67541C0.837011 3.27607 1.29572 3.00229 1.80573 2.90069C2.58097 2.74995 3.33731 2.51577 4.06132 2.20233C4.97481 1.80633 5.82877 1.28712 6.59897 0.659428C6.99422 0.338825 7.48916 0.163666 7.99982 0.163666C8.51047 0.163666 9.00541 0.338825 9.40066 0.659428C10.1713 1.28704 11.0255 1.80637 11.9391 2.20275C12.6631 2.51606 13.4195 2.75009 14.1947 2.90071C14.7046 3.00251 15.1631 3.27637 15.4923 3.67566C15.8214 4.07495 16.0009 4.575 16 5.0907V9.72219C16.0045 11.0451 15.6351 12.3429 14.9336 13.4682C14.2321 14.5936 13.2267 15.5016 12.0313 16.0892L8.82536 17.6786C8.56898 17.8052 8.28643 17.8709 8.00004 17.8705ZM8.00004 1.38321C7.77394 1.38289 7.55473 1.4604 7.37985 1.60249C6.52212 2.30132 5.57124 2.87946 4.55413 3.32057C3.74784 3.66965 2.9055 3.93033 2.04211 4.09799C1.81199 4.14495 1.60539 4.26953 1.45747 4.45053C1.30955 4.63152 1.22945 4.85775 1.23081 5.0907V9.72219C1.227 10.8184 1.53308 11.8937 2.11433 12.8261C2.69557 13.7585 3.52872 14.5108 4.51927 14.9976L7.7248 16.587C7.81046 16.6289 7.90471 16.6508 8.00024 16.6508C8.09578 16.6508 8.19003 16.6289 8.27569 16.587L11.4816 14.9976C12.472 14.5107 13.3049 13.7583 13.886 12.8259C14.4671 11.8935 14.7731 10.8183 14.7693 9.72219V5.0907C14.7706 4.85769 14.6905 4.63141 14.5425 4.45041C14.3945 4.26941 14.1878 4.14486 13.9576 4.09799C13.0945 3.93028 12.2524 3.66972 11.4464 3.32095C10.429 2.87965 9.47787 2.30138 8.61983 1.60247C8.44513 1.46033 8.22603 1.38282 8.00004 1.38321Z" fill="#ABCA74"/>
<path d="M8.82086 12.5085H8.00035C7.83715 12.5084 7.68065 12.4441 7.56526 12.3297C7.44986 12.2153 7.38501 12.0601 7.38497 11.8983V9.25424H7.17984C7.01663 9.25424 6.8601 9.18996 6.7447 9.07553C6.62929 8.9611 6.56445 8.8059 6.56445 8.64407C6.56445 8.48225 6.62929 8.32705 6.7447 8.21262C6.8601 8.09819 7.01663 8.03391 7.17984 8.03391H8.00035C8.16355 8.03395 8.32005 8.09825 8.43545 8.21267C8.55084 8.32709 8.61569 8.48226 8.61574 8.64407V11.2881H8.82086C8.98407 11.2881 9.1406 11.3524 9.25601 11.4669C9.37141 11.5813 9.43625 11.7365 9.43625 11.8983C9.43625 12.0601 9.37141 12.2153 9.25601 12.3298C9.1406 12.4442 8.98407 12.5085 8.82086 12.5085Z" fill="#ABCA74"/>
<path d="M8.00023 6.81357C8.51003 6.81357 8.9233 6.4038 8.9233 5.89832C8.9233 5.39284 8.51003 4.98306 8.00023 4.98306C7.49042 4.98306 7.07715 5.39284 7.07715 5.89832C7.07715 6.4038 7.49042 6.81357 8.00023 6.81357Z" fill="#ABCA74"/>
</svg>
