<svg width="20" height="20" viewBox="0 0 20 20" fill="none" xmlns="http://www.w3.org/2000/svg">
<g clip-path="url(#clip0_157_9193)">
<path d="M12.3438 14.0604C12.6674 14.0604 12.9297 13.798 12.9297 13.4744C12.9297 13.1508 12.6674 12.8885 12.3438 12.8885C12.0201 12.8885 11.7578 13.1508 11.7578 13.4744C11.7578 13.798 12.0201 14.0604 12.3438 14.0604Z" fill="white"/>
<path d="M7.65625 7.02911C7.97985 7.02911 8.24219 6.76678 8.24219 6.44318C8.24219 6.11957 7.97985 5.85724 7.65625 5.85724C7.33265 5.85724 7.07031 6.11957 7.07031 6.44318C7.07031 6.76678 7.33265 7.02911 7.65625 7.02911Z" fill="white"/>
<path d="M19.0855 8.6368C18.4206 8.20191 18.1711 7.2698 18.5287 6.55969C18.8417 5.94 18.8749 5.40785 18.6266 4.97813C18.3782 4.5484 17.901 4.31094 17.2075 4.27145C16.4139 4.2268 15.7318 3.54473 15.6871 2.75051C15.6477 2.05758 15.4102 1.58035 14.9805 1.33203C14.5507 1.08543 14.0186 1.11746 13.3989 1.42988C12.6888 1.78465 11.7561 1.53805 11.3212 0.873125C10.5602 -0.288437 9.43984 -0.288437 8.67883 0.873125C8.2434 1.53746 7.31184 1.78637 6.60117 1.42988C5.9809 1.11746 5.44875 1.08543 5.01961 1.33203C4.58988 1.58035 4.35242 2.05758 4.31293 2.75109C4.26828 3.54473 3.58621 4.2268 2.79199 4.27145C2.09906 4.31094 1.62184 4.5484 1.37352 4.97813C1.1252 5.40785 1.15836 5.94 1.47137 6.55969C1.82898 7.2698 1.57953 8.20191 0.914023 8.63734C0.33375 9.01848 0 9.4625 0 9.95859C0 10.4547 0.33375 10.8993 0.914531 11.2798C1.57941 11.7152 1.82891 12.6474 1.47129 13.3575C1.15828 13.9771 1.12512 14.5093 1.37344 14.939C1.62176 15.3688 2.09898 15.6062 2.7925 15.6457C3.58613 15.6904 4.2682 16.3724 4.31285 17.1666C4.35234 17.8596 4.5898 18.3368 5.01953 18.5851C5.44984 18.8329 5.98082 18.7997 6.60109 18.4873C7.31121 18.1302 8.24273 18.3786 8.67875 19.0446C9.05984 19.6248 9.50387 19.9976 9.99996 19.9976C10.4961 19.9976 10.9401 19.6248 11.3218 19.044C11.7561 18.378 12.6865 18.1273 13.3989 18.4873C14.0186 18.7997 14.5524 18.8329 14.9804 18.5851C15.4102 18.3368 15.6476 17.8596 15.6871 17.1661C15.7318 16.3724 16.4138 15.6904 17.208 15.6457C17.901 15.6062 18.3782 15.3688 18.6265 14.939C18.8748 14.5093 18.8417 13.9771 18.5287 13.3575C18.1711 12.6473 18.4205 11.7152 19.0854 11.2798C19.6663 10.8993 20 10.4547 20 9.95859C20 9.4625 19.6663 9.01848 19.0855 8.6368ZM7.65625 4.68516C8.62555 4.68516 9.41406 5.47367 9.41406 6.44297C9.41406 7.41227 8.62555 8.20078 7.65625 8.20078C6.68695 8.20078 5.89844 7.41227 5.89844 6.44297C5.89844 5.47367 6.68695 4.68516 7.65625 4.68516ZM6.95301 14.9974L6.01574 14.2948L13.047 4.91977L13.9843 5.62242L6.95301 14.9974ZM12.3438 15.232C11.3745 15.232 10.5859 14.4435 10.5859 13.4742C10.5859 12.5049 11.3745 11.7164 12.3438 11.7164C13.313 11.7164 14.1016 12.5049 14.1016 13.4742C14.1016 14.4435 13.313 15.232 12.3438 15.232Z" fill="white"/>
</g>
<defs>
<clipPath id="clip0_157_9193">
<rect width="20" height="20" fill="white"/>
</clipPath>
</defs>
</svg>
