<svg width="18" height="18" viewBox="0 0 18 18" fill="none" xmlns="http://www.w3.org/2000/svg">
<g clip-path="url(#clip0_417_9361)">
<path d="M9 18C13.9706 18 18 13.9706 18 9C18 4.02944 13.9706 0 9 0C4.02944 0 0 4.02944 0 9C0 13.9706 4.02944 18 9 18Z" fill="#3A559F"/>
<path d="M11.8513 7.93432L11.6703 9.50216C11.6627 9.5737 11.6292 9.63999 11.5761 9.68844C11.5229 9.7369 11.4538 9.76414 11.3819 9.765H9.74549L9.73731 14.4133C9.73786 14.4684 9.71672 14.5215 9.67844 14.5611C9.64016 14.6007 9.58783 14.6237 9.53276 14.625H7.87492C7.84736 14.625 7.82007 14.6195 7.79471 14.6087C7.76934 14.5979 7.74642 14.5821 7.72732 14.5622C7.70821 14.5424 7.69332 14.5188 7.68353 14.4931C7.67375 14.4673 7.66927 14.4398 7.67038 14.4123V9.765H6.4431C6.40456 9.7646 6.36647 9.75661 6.33101 9.74149C6.29555 9.72637 6.26342 9.70441 6.23645 9.67686C6.20947 9.64932 6.18819 9.61674 6.17381 9.58097C6.15944 9.5452 6.15224 9.50696 6.15265 9.46841L6.14651 7.90057C6.14597 7.86189 6.15306 7.82348 6.16736 7.78753C6.18167 7.75159 6.20291 7.71882 6.22988 7.69109C6.25685 7.66335 6.28903 7.64121 6.32456 7.62591C6.36009 7.61061 6.39829 7.60247 6.43697 7.60193H7.67038V6.0883C7.67038 4.33125 8.71356 3.375 10.2436 3.375H11.4974C11.5362 3.3754 11.5745 3.38345 11.6101 3.39869C11.6458 3.41393 11.6781 3.43605 11.7052 3.4638C11.7322 3.49154 11.7536 3.52436 11.768 3.56037C11.7823 3.59638 11.7894 3.63487 11.7889 3.67364V4.99295C11.7894 5.03172 11.7823 5.07021 11.768 5.10622C11.7536 5.14223 11.7322 5.17505 11.7052 5.20279C11.6781 5.23054 11.6458 5.25267 11.6101 5.2679C11.5745 5.28314 11.5362 5.29119 11.4974 5.29159H10.7283C9.89685 5.29159 9.73526 5.70068 9.73526 6.29182V7.60193H11.5629C11.6044 7.60245 11.6454 7.61177 11.6831 7.62926C11.7208 7.64675 11.7544 7.67202 11.7817 7.70342C11.8089 7.73481 11.8292 7.77162 11.8412 7.81141C11.8532 7.85121 11.8566 7.8931 11.8513 7.93432Z" fill="white"/>
</g>
<defs>
<clipPath id="clip0_417_9361">
<rect width="18" height="18" fill="white"/>
</clipPath>
</defs>
</svg>
