<svg width="18" height="18" viewBox="0 0 18 18" fill="none" xmlns="http://www.w3.org/2000/svg">
<g clip-path="url(#clip0_473_4159)">
<path d="M4.45612 11.4987C4.45565 11.732 4.36285 11.9556 4.19807 12.1205C4.0333 12.2853 3.81001 12.3778 3.57721 12.3778C2.41354 12.3313 2.41389 10.6654 3.57721 10.6196C3.81001 10.6196 4.0333 10.7122 4.19807 10.877C4.36285 11.0418 4.45565 11.2654 4.45612 11.4987Z" fill="#529E66"/>
<path d="M13.0876 3.16412C10.3805 3.16412 8.17554 5.36986 8.17554 8.08122C8.17554 9.3497 9.21862 11.3169 11.2756 13.9257C11.492 14.1996 11.7674 14.4209 12.0812 14.573C12.3949 14.7252 12.739 14.8042 13.0876 14.8042C13.4361 14.8042 13.7802 14.7252 14.094 14.573C14.4078 14.4209 14.6831 14.1996 14.8995 13.9257C16.9569 11.3169 18 9.35216 18 8.08122C18 5.37056 15.7964 3.16412 13.0876 3.16412ZM13.7984 13.0519C13.4525 13.5099 12.723 13.5099 12.3771 13.0519C10.6249 10.8303 9.57897 8.97162 9.57897 8.07981C9.57897 6.14398 11.1529 4.56931 13.0876 4.56931C15.0222 4.56931 16.5965 6.14398 16.5965 8.07981C16.5965 8.97303 15.5506 10.832 13.7984 13.0519Z" fill="#529E66"/>
<path d="M6.35107 16.246C6.11797 16.246 5.89442 16.3388 5.72959 16.504C5.56477 16.6692 5.47217 16.8932 5.47217 17.1269C5.51822 18.2931 7.18041 18.2928 7.22647 17.1269C7.22647 16.8938 7.13435 16.6703 6.97028 16.5052C6.80622 16.3401 6.58356 16.2469 6.35107 16.246Z" fill="#529E66"/>
<path d="M0.878906 10.6207C0.646292 10.6207 0.423164 10.7131 0.258418 10.8777C0.0936717 11.0423 0.000744365 11.2656 0 11.4987C0.0460547 12.6647 1.70824 12.6643 1.7543 11.4987C1.75356 11.2662 1.66111 11.0434 1.49713 10.8789C1.33314 10.7144 1.11091 10.6216 0.878906 10.6207Z" fill="#529E66"/>
<path d="M6.28071 12.3779C6.5132 12.3774 6.73604 12.2846 6.90044 12.1199C7.06483 11.9551 7.1574 11.7317 7.15786 11.4987C7.11181 10.3324 5.44962 10.3328 5.40356 11.4987C5.40403 11.7317 5.49659 11.9551 5.66099 12.1199C5.82539 12.2846 6.04822 12.3774 6.28071 12.3779Z" fill="#529E66"/>
<path d="M11.8947 16.246C11.6619 16.2464 11.4388 16.3395 11.2744 16.5046C11.1099 16.6697 11.0176 16.8935 11.0176 17.1269C11.0636 18.2931 12.7258 18.2928 12.7719 17.1269C12.7719 16.8935 12.6795 16.6697 12.5151 16.5046C12.3506 16.3395 12.1275 16.2464 11.8947 16.246Z" fill="#529E66"/>
<path d="M6.35107 13.4328C6.11828 13.4328 5.89499 13.5254 5.73021 13.6902C5.56544 13.855 5.47263 14.0786 5.47217 14.3119C5.51822 15.4782 7.18041 15.4779 7.22647 14.3119C7.226 14.0792 7.13368 13.8561 6.96966 13.6914C6.80565 13.5267 6.58326 13.4337 6.35107 13.4328Z" fill="#529E66"/>
<path d="M14.6318 16.246C14.399 16.2464 14.1759 16.3395 14.0114 16.5046C13.847 16.6697 13.7546 16.8935 13.7546 17.1269C13.8007 18.2931 15.4629 18.2928 15.5089 17.1269C15.5089 16.8935 15.4166 16.6697 15.2521 16.5046C15.0877 16.3395 14.8646 16.2464 14.6318 16.246Z" fill="#529E66"/>
<path d="M9.1228 16.246C8.8897 16.246 8.66615 16.3388 8.50132 16.504C8.3365 16.6692 8.2439 16.8932 8.2439 17.1269C8.2903 18.2931 9.95214 18.2928 9.99819 17.1269C9.9982 16.8938 9.90608 16.6703 9.74201 16.5052C9.57794 16.3401 9.35529 16.2469 9.1228 16.246Z" fill="#529E66"/>
<path d="M0.878906 9.42264C0.692426 9.42264 0.513583 9.34839 0.381722 9.21623C0.24986 9.08407 0.175781 8.90483 0.175781 8.71793V2.40339C0.176526 1.7662 0.429411 1.15532 0.878964 0.704753C1.32852 0.254189 1.93803 0.000734066 2.57379 -1.19547e-05H5.29277C5.55233 -0.00136876 5.80687 0.0716799 6.02638 0.210522C6.24588 0.349365 6.42121 0.548212 6.53168 0.783623C6.64543 1.02021 6.68932 1.28447 6.65817 1.54523C6.62703 1.806 6.52215 2.05241 6.3559 2.25541C6.3443 2.26985 5.89887 2.7406 5.89887 2.7406C5.89887 2.7406 6.38438 3.24587 6.39844 3.26314C6.56314 3.46728 6.66642 3.71423 6.69618 3.97506C6.72594 4.2359 6.68096 4.49984 6.56648 4.73598C6.45583 4.97082 6.28069 5.1692 6.06158 5.30786C5.84247 5.44653 5.58847 5.51973 5.32934 5.51891H3.75645C2.82551 5.48191 2.82621 4.14931 3.75645 4.11231H5.26816L4.4202 3.23389C4.2944 3.10323 4.22378 2.92894 4.22306 2.74736C4.22233 2.56579 4.29157 2.39094 4.41633 2.25928L5.22703 1.40658H2.57344C2.30975 1.40686 2.05694 1.51198 1.87048 1.69885C1.68402 1.88573 1.57915 2.13911 1.57887 2.40339V8.7204C1.57887 8.9073 1.50479 9.08654 1.37293 9.2187C1.24107 9.35086 1.06222 9.4251 0.875742 9.4251L0.878906 9.42264Z" fill="#529E66"/>
<path d="M13.0875 8.93147C13.3203 8.93147 13.5436 8.83891 13.7084 8.67409C13.8732 8.50928 13.966 8.28567 13.9665 8.05235C13.9204 6.88606 12.2582 6.88641 12.2122 8.05235C12.2126 8.28506 12.3049 8.50813 12.469 8.67285C12.633 8.83757 12.8554 8.93054 13.0875 8.93147Z" fill="#529E66"/>
</g>
<defs>
<clipPath id="clip0_473_4159">
<rect width="18" height="18" fill="white"/>
</clipPath>
</defs>
</svg>
