<svg width="18" height="18" viewBox="0 0 18 18" fill="none" xmlns="http://www.w3.org/2000/svg">
<g clip-path="url(#clip0_184_1681)">
<path d="M16.5539 2.97725C14.5962 1.02014 11.4115 1.02014 9.45442 2.97725L8.99984 3.43156L8.54553 2.97725C6.58842 1.01987 3.40347 1.01987 1.44635 2.97725C-0.471025 4.89463 -0.483475 7.93388 1.41748 10.047C3.15128 11.9737 8.26473 16.1361 8.48169 16.3123C8.62898 16.432 8.8062 16.4903 8.98236 16.4903C8.98819 16.4903 8.99402 16.4903 8.99958 16.49C9.18183 16.4985 9.36541 16.436 9.51747 16.3123C9.73442 16.1361 14.8484 11.9737 16.5827 10.0468C18.4834 7.93388 18.471 4.89463 16.5539 2.97725ZM15.4013 8.9837C14.0495 10.4854 10.3336 13.5827 8.99958 14.6818C7.66552 13.583 3.9505 10.486 2.59895 8.98396C1.27284 7.51003 1.26039 5.41093 2.57008 4.10124C3.23896 3.43262 4.11739 3.09805 4.99581 3.09805C5.87423 3.09805 6.75266 3.43236 7.42154 4.10124L8.42076 5.10046C8.53971 5.2194 8.68964 5.2904 8.84699 5.3153C9.10236 5.37013 9.37945 5.29887 9.57813 5.10073L10.5779 4.10124C11.9159 2.76374 14.0924 2.764 15.4296 4.10124C16.7393 5.41093 16.7268 7.51003 15.4013 8.9837Z" fill="#529E66"/>
</g>
<defs>
<clipPath id="clip0_184_1681">
<rect width="18" height="18" fill="white"/>
</clipPath>
</defs>
</svg>
