<svg width="18" height="18" viewBox="0 0 18 18" fill="none" xmlns="http://www.w3.org/2000/svg">
<path d="M4.86237 17.4433C4.61659 17.4423 4.37395 17.388 4.15118 17.2841C3.9284 17.1803 3.7308 17.0294 3.572 16.8418C3.41319 16.6542 3.29696 16.4344 3.23131 16.1975C3.16566 15.9607 3.15217 15.7124 3.19175 15.4698L3.84435 11.4489L1.04364 8.55669C0.826465 8.33311 0.674962 8.0541 0.605709 7.75018C0.536455 7.44627 0.552119 7.12917 0.650987 6.83356C0.749855 6.53796 0.928118 6.27524 1.16627 6.07414C1.40443 5.87305 1.69331 5.74132 2.0013 5.69339L5.79446 5.1112L7.46589 1.54053C7.60591 1.25281 7.82402 1.01026 8.09531 0.840579C8.3666 0.670896 8.68014 0.580917 9.00012 0.580917C9.32011 0.580917 9.63365 0.670896 9.90493 0.840579C10.1762 1.01026 10.3943 1.25281 10.5344 1.54053L12.2003 5.10609L15.9989 5.69339C16.3069 5.74132 16.5957 5.87305 16.8339 6.07414C17.072 6.27524 17.2503 6.53796 17.3492 6.83356C17.448 7.12917 17.4637 7.44627 17.3945 7.75018C17.3252 8.0541 17.1737 8.33311 16.9565 8.55669L14.1587 11.4373L14.8088 15.4704C14.8606 15.7846 14.8227 16.1071 14.6996 16.4008C14.5766 16.6945 14.3732 16.9476 14.113 17.1311C13.8527 17.3145 13.546 17.421 13.228 17.4382C12.91 17.4554 12.5936 17.3827 12.315 17.2284L9.00227 15.389L5.68537 17.2284C5.43382 17.369 5.15053 17.4429 4.86237 17.4433ZM8.99995 13.6997C9.28726 13.6999 9.56973 13.7736 9.82063 13.9135L13.1338 15.7535L12.4895 11.7193C12.4477 11.4575 12.4674 11.1896 12.5469 10.9367C12.6264 10.6838 12.7636 10.4529 12.9476 10.2621L15.7457 7.38089L11.9493 6.779C11.6737 6.73674 11.4127 6.62703 11.1897 6.45963C10.9667 6.29222 10.7885 6.07231 10.671 5.81944L9.00573 2.25494H9.00531C9.00429 2.25195 9.00276 2.24917 9.0008 2.24671L7.32811 5.82029C7.21071 6.07294 7.0327 6.29266 6.8099 6.45992C6.5871 6.62718 6.32643 6.73679 6.05105 6.779L2.25746 7.36118L5.05196 10.2616C5.23609 10.4523 5.37336 10.6833 5.45294 10.9361C5.53252 11.189 5.55222 11.457 5.5105 11.7188L4.85752 15.7406L8.17894 13.9139C8.4299 13.7737 8.71251 13.7 8.99995 13.6997Z" fill="#529E66"/>
</svg>
