<svg width="18" height="18" viewBox="0 0 18 18" fill="none" xmlns="http://www.w3.org/2000/svg">
<g clip-path="url(#clip0_184_1661)">
<path d="M7.44731 18.0003C7.07425 18.0005 6.70483 17.9271 6.36027 17.7841C6.01571 17.6412 5.7028 17.4316 5.43954 17.1675L0.821473 12.548C0.295691 12.0204 0.000488281 11.3061 0.000488281 10.5614C0.000488281 9.81673 0.295691 9.1024 0.821473 8.57478L6.8416 2.57698C7.13629 2.28121 7.49341 2.05503 7.88683 1.915C8.28025 1.77496 8.70003 1.72461 9.11543 1.76762L15.0361 2.36904C15.1972 2.38543 15.3478 2.45685 15.4623 2.57127C15.5768 2.68568 15.6483 2.83607 15.6648 2.99707L16.2663 8.90053C16.3094 9.31591 16.259 9.73567 16.1188 10.1291C15.9786 10.5225 15.7521 10.8795 15.4559 11.1741L15.4525 11.1776L12.02 14.5565C11.9544 14.6221 11.8764 14.674 11.7906 14.7093C11.7048 14.7446 11.6129 14.7626 11.5201 14.7622C11.4273 14.7619 11.3355 14.7432 11.25 14.7072C11.1645 14.6712 11.087 14.6187 11.0218 14.5526C10.9567 14.4865 10.9053 14.4082 10.8706 14.3222C10.8359 14.2362 10.8186 14.1442 10.8196 14.0515C10.8207 13.9588 10.8401 13.8672 10.8767 13.7819C10.9133 13.6967 10.9664 13.6196 11.033 13.555L14.4637 10.1766C14.6112 10.0293 14.724 9.85102 14.7938 9.65465C14.8636 9.45828 14.8886 9.24881 14.8671 9.04152L14.3236 3.7097L8.9733 3.16601C8.76544 3.1445 8.5554 3.16974 8.35857 3.23987C8.16174 3.31001 7.98309 3.42326 7.83573 3.57134L1.81481 9.56914C1.5524 9.83304 1.40525 10.1901 1.40555 10.5621C1.40584 10.9342 1.55356 11.291 1.81639 11.5544L6.43446 16.1739C6.98822 16.7273 7.88003 16.7366 8.42324 16.1942C8.55564 16.0647 8.73381 15.9927 8.91905 15.9937C9.10429 15.9948 9.28164 16.0688 9.41257 16.1998C9.5435 16.3307 9.61745 16.508 9.61835 16.6932C9.61924 16.8783 9.54702 17.0563 9.41736 17.1886C9.15862 17.4468 8.85139 17.6515 8.51332 17.7908C8.17525 17.93 7.81298 18.0013 7.44731 18.0003Z" fill="#529E66"/>
<path d="M12.5074 6.21971C12.3243 6.21931 12.1486 6.14758 12.0177 6.01978C11.8867 5.89198 11.8107 5.71818 11.8059 5.53529C11.8011 5.3524 11.8678 5.17485 11.9919 5.04035C12.116 4.90585 12.2877 4.82501 12.4705 4.815C12.5013 4.81316 13.598 4.74358 14.6591 4.28791C15.962 3.72682 16.5952 2.88426 16.5944 1.71174V1.68248C16.5943 1.61347 16.5685 1.54696 16.522 1.49597C16.4755 1.44498 16.4116 1.41318 16.3428 1.40681C16.073 1.43844 14.238 1.69882 13.7734 2.95173C13.7412 3.03825 13.6923 3.11759 13.6294 3.18522C13.5665 3.25284 13.491 3.30743 13.407 3.34587C13.323 3.3843 13.2323 3.40583 13.14 3.40922C13.0477 3.41261 12.9556 3.3978 12.869 3.36563C12.7825 3.33346 12.7031 3.28456 12.6354 3.22173C12.5678 3.1589 12.5131 3.08336 12.4747 2.99943C12.4362 2.9155 12.4147 2.82483 12.4113 2.73258C12.4079 2.64033 12.4227 2.54832 12.4549 2.46179C13.2681 0.275407 16.1366 0.0126503 16.2584 0.00237192C16.2777 0.000790641 16.2972 0 16.3167 0C16.763 0.000488312 17.1909 0.177906 17.5065 0.493328C17.8221 0.808749 17.9996 1.23641 18.0001 1.68248V1.71042C18.0001 2.69345 17.6921 3.55209 17.0835 4.26208C16.6149 4.80842 15.9739 5.25645 15.1775 5.59379C13.8812 6.14302 12.5989 6.21602 12.5451 6.21866C12.5324 6.21971 12.5198 6.21971 12.5074 6.21971Z" fill="#529E66"/>
<path d="M5.58874 13.2477C5.44859 13.2477 5.31163 13.2059 5.19545 13.1275C5.07926 13.0492 4.98915 12.9379 4.93667 12.808C4.88418 12.6782 4.87173 12.5356 4.9009 12.3986C4.93007 12.2616 4.99953 12.1364 5.10038 12.0391L5.73799 11.4245C5.87349 11.3024 6.05119 11.2376 6.23356 11.244C6.41593 11.2504 6.58869 11.3273 6.71533 11.4586C6.84198 11.5899 6.91261 11.7653 6.9123 11.9476C6.91198 12.13 6.84076 12.3051 6.71366 12.436L6.07631 13.0506C5.94551 13.177 5.77069 13.2477 5.58874 13.2477Z" fill="#529E66"/>
<path d="M10.1771 8.68442C10.039 8.6843 9.90406 8.64359 9.78901 8.56735C9.67396 8.49111 9.5839 8.38272 9.53006 8.25568C9.47622 8.12865 9.46098 7.98858 9.48624 7.85294C9.51149 7.71731 9.57613 7.5921 9.67209 7.49292L10.3577 6.78503C10.4879 6.65342 10.6649 6.57847 10.8501 6.57646C11.0353 6.57445 11.2138 6.64555 11.3469 6.77431C11.48 6.90307 11.5568 7.07911 11.5608 7.26418C11.5648 7.44926 11.4956 7.62843 11.3682 7.76279L10.6826 8.47068C10.617 8.53845 10.5385 8.59231 10.4516 8.62904C10.3648 8.66576 10.2714 8.6846 10.1771 8.68442Z" fill="#529E66"/>
<path d="M7.57127 13.1737C7.55677 13.1737 7.54253 13.1737 7.52802 13.1737C7.01127 13.1604 6.51976 12.9475 6.15682 12.5796L5.41636 11.8396C5.09097 11.5187 4.90285 11.0841 4.89161 10.6273C4.886 10.3965 4.92765 10.167 5.01399 9.95295C5.10032 9.73886 5.22954 9.54466 5.39369 9.38228C5.52555 9.25049 5.7044 9.17645 5.89088 9.17645C6.07736 9.17645 6.25621 9.25049 6.38808 9.38228C6.51994 9.51408 6.59402 9.69282 6.59402 9.8792C6.59402 10.0656 6.51994 10.2443 6.38808 10.3761C6.2412 10.5229 6.28814 10.7235 6.41023 10.8455L7.15068 11.5855C7.25799 11.6969 7.4043 11.7623 7.55888 11.7682C7.62901 11.7697 7.69871 11.7568 7.76357 11.73C7.82843 11.7033 7.88704 11.6635 7.93569 11.6129L7.98843 11.5602C8.04047 11.509 8.08165 11.4478 8.10951 11.3802C8.13737 11.3127 8.15135 11.2403 8.1506 11.1673C8.14801 11.0139 8.085 10.8677 7.97525 10.7604L7.51985 10.3047C6.74881 9.53382 6.75698 8.27143 7.53831 7.49054L7.64932 7.37959C7.8296 7.19756 8.04424 7.05312 8.2808 6.95463C8.51736 6.85614 8.77112 6.80557 9.02739 6.80585H9.04901C9.56965 6.81188 10.0669 7.02287 10.4329 7.39303L10.8627 7.82499C11.1885 8.14712 11.3783 8.58186 11.393 9.03967C11.401 9.27218 11.3608 9.50382 11.2751 9.72009C11.1893 9.93637 11.0598 10.1326 10.8946 10.2965C10.7615 10.4218 10.5848 10.4904 10.402 10.4877C10.2191 10.485 10.0445 10.4113 9.91521 10.2821C9.78588 10.1529 9.71198 9.97841 9.70918 9.79568C9.70638 9.61295 9.7749 9.43631 9.90021 9.30322C10.0421 9.16143 9.99593 8.94585 9.86936 8.81935L9.43875 8.38819C9.33211 8.27885 9.18672 8.2158 9.03398 8.21266C8.96138 8.21146 8.88931 8.2252 8.82226 8.25304C8.75521 8.28088 8.69461 8.32222 8.64424 8.37448L8.5327 8.48622C8.30381 8.71525 8.29537 9.09238 8.51424 9.31244L8.9699 9.76812C9.3407 10.1349 9.55173 10.633 9.55715 11.1544C9.56044 11.4145 9.51132 11.6727 9.41269 11.9135C9.31407 12.1543 9.16796 12.3727 8.98309 12.5559L8.93035 12.6086C8.75252 12.788 8.54082 12.9304 8.30751 13.0274C8.07421 13.1244 7.82395 13.1741 7.57127 13.1737Z" fill="#529E66"/>
</g>
<defs>
<clipPath id="clip0_184_1661">
<rect width="18" height="18" fill="white"/>
</clipPath>
</defs>
</svg>
