<svg width="14" height="14" viewBox="0 0 14 14" fill="none" xmlns="http://www.w3.org/2000/svg">
<g clip-path="url(#clip0_417_9299)">
<path d="M7.59961 10.0078C7.90164 10.0078 8.14648 9.76297 8.14648 9.46094C8.14648 9.15891 7.90164 8.91406 7.59961 8.91406C7.29758 8.91406 7.05273 9.15891 7.05273 9.46094C7.05273 9.76297 7.29758 10.0078 7.59961 10.0078Z" fill="#ABCA74"/>
<path d="M9.43164 12.9062H2.62305C2.01995 12.9062 1.5293 12.4156 1.5293 11.8125V7.3281C1.5293 6.725 2.01995 6.23435 2.62305 6.23435H10.498C10.6226 6.23435 10.7214 6.24534 10.8001 6.2679C11.0904 6.35108 11.3933 6.18313 11.4765 5.8928C11.5596 5.60246 11.3917 5.29966 11.1014 5.21645C10.9233 5.16543 10.7259 5.14062 10.498 5.14062H9.84079V3.21196C9.84079 1.44088 8.36882 0 6.55954 0C4.75025 0 3.27829 1.44088 3.27829 3.21196V5.14062H2.62305C1.41686 5.14062 0.435547 6.12194 0.435547 7.32812V11.8125C0.435547 13.0187 1.41686 14 2.62305 14H9.43164C9.73368 14 9.97852 13.7552 9.97852 13.4531C9.97852 13.1511 9.73368 12.9062 9.43164 12.9062ZM4.37204 3.21196C4.37204 2.04397 5.35335 1.09375 6.55954 1.09375C7.76572 1.09375 8.74704 2.04397 8.74704 3.21196V5.14062H4.37204V3.21196Z" fill="#ABCA74"/>
<path d="M5.54883 10.0078C5.85086 10.0078 6.0957 9.76297 6.0957 9.46094C6.0957 9.15891 5.85086 8.91406 5.54883 8.91406C5.2468 8.91406 5.00195 9.15891 5.00195 9.46094C5.00195 9.76297 5.2468 10.0078 5.54883 10.0078Z" fill="#ABCA74"/>
<path d="M13.5638 9.05652C13.5518 7.99589 12.6852 7.13672 11.6218 7.13672C10.5509 7.13672 9.67969 8.00795 9.67969 9.07881C9.67969 9.38085 9.92452 9.62568 10.2266 9.62568C10.5286 9.62568 10.7734 9.38085 10.7734 9.07881C10.7734 8.61104 11.154 8.23047 11.6218 8.23047C12.0896 8.23047 12.4701 8.61104 12.4701 9.07881C12.4701 9.08378 12.4702 9.08873 12.4703 9.09366C12.4647 9.42853 12.2635 9.72833 11.9545 9.86024C11.4202 10.0884 11.0749 10.6154 11.0749 11.2028V11.6758C11.0749 11.9778 11.3198 12.2227 11.6218 12.2227C11.9238 12.2227 12.1687 11.9778 12.1687 11.6758V11.2028C12.1687 11.0541 12.2532 10.922 12.384 10.8662C13.1012 10.56 13.5644 9.85841 13.5642 9.0787C13.5642 9.07126 13.5641 9.06388 13.5638 9.05652Z" fill="#ABCA74"/>
<path d="M11.6191 14C11.9212 14 12.166 13.7552 12.166 13.4531C12.166 13.1511 11.9212 12.9062 11.6191 12.9062C11.3171 12.9062 11.0723 13.1511 11.0723 13.4531C11.0723 13.7552 11.3171 14 11.6191 14Z" fill="#ABCA74"/>
<path d="M3.49805 10.0078C3.80008 10.0078 4.04492 9.76297 4.04492 9.46094C4.04492 9.15891 3.80008 8.91406 3.49805 8.91406C3.19602 8.91406 2.95117 9.15891 2.95117 9.46094C2.95117 9.76297 3.19602 10.0078 3.49805 10.0078Z" fill="#ABCA74"/>
</g>
<defs>
<clipPath id="clip0_417_9299">
<rect width="14" height="14" fill="white"/>
</clipPath>
</defs>
</svg>
