<svg width="18" height="18" viewBox="0 0 18 18" fill="none" xmlns="http://www.w3.org/2000/svg">
<g clip-path="url(#clip0_280_3536)">
<path d="M9 0C4.02594 0 0 4.02525 0 9C0 13.9741 4.02525 18 9 18C13.9741 18 18 13.9747 18 9C18 4.02594 13.9747 0 9 0ZM9 16.5938C4.80309 16.5938 1.40625 13.1973 1.40625 9C1.40625 4.80309 4.80267 1.40625 9 1.40625C13.1969 1.40625 16.5938 4.80267 16.5938 9C16.5938 13.1969 13.1973 16.5938 9 16.5938ZM11.0859 13.1484C11.0859 13.5368 10.7711 13.8516 10.3828 13.8516H7.61723C7.22887 13.8516 6.91411 13.5368 6.91411 13.1484C6.91411 12.7601 7.22887 12.4453 7.61723 12.4453H8.29688V8.32036H7.61723C7.22887 8.32036 6.91411 8.0056 6.91411 7.61723C6.91411 7.22887 7.22887 6.91411 7.61723 6.91411H9C9.38837 6.91411 9.70312 7.22887 9.70312 7.61723V12.4453H10.3828C10.7711 12.4453 11.0859 12.7601 11.0859 13.1484ZM8.12109 4.3477C8.12109 3.86224 8.51454 3.4688 9 3.4688C9.48546 3.4688 9.87891 3.86224 9.87891 4.3477C9.87891 4.83302 9.48546 5.22661 9 5.22661C8.51454 5.22661 8.12109 4.83302 8.12109 4.3477Z" fill="#ABCA74"/>
</g>
<defs>
<clipPath id="clip0_280_3536">
<rect width="18" height="18" fill="white"/>
</clipPath>
</defs>
</svg>
