<svg width="28" height="28" viewBox="0 0 28 28" fill="none" xmlns="http://www.w3.org/2000/svg">
<g clip-path="url(#clip0_970_3578)">
<path d="M26.3594 18.1888V2.46094C26.3594 1.10398 25.2554 0 23.8984 0H5.79688C4.43991 0 3.33594 1.10398 3.33594 2.46094V3.33594H2.46094C1.10398 3.33594 0 4.43991 0 5.79688C0 7.15384 1.10398 8.25781 2.46094 8.25781H3.33594V11.5391H2.46094C1.10398 11.5391 0 12.643 0 14C0 15.357 1.10398 16.4609 2.46094 16.4609H3.33594V19.7422H2.46094C1.10398 19.7422 0 20.8462 0 22.2031C0 23.5601 1.10398 24.6641 2.46094 24.6641H3.33594V25.4844C3.33594 26.1382 3.58734 26.7612 4.04381 27.2387C4.51314 27.7296 5.13576 28 5.79688 28H22.2578C25.4241 28 28 25.3996 28 22.2031C28 20.6422 27.3736 19.225 26.3594 18.1888ZM2.46094 6.61719C2.00862 6.61719 1.64062 6.2492 1.64062 5.79688C1.64062 5.34455 2.00862 4.97656 2.46094 4.97656H4.15625C4.60857 4.97656 4.97656 5.34455 4.97656 5.79688C4.97656 6.2492 4.60857 6.61719 4.15625 6.61719H2.46094ZM2.46094 14.8203C2.00862 14.8203 1.64062 14.4523 1.64062 14C1.64062 13.5477 2.00862 13.1797 2.46094 13.1797H4.15625C4.60857 13.1797 4.97656 13.5477 4.97656 14C4.97656 14.4523 4.60857 14.8203 4.15625 14.8203H2.46094ZM4.15625 23.0234H2.46094C2.00862 23.0234 1.64062 22.6554 1.64062 22.2031C1.64062 21.7508 2.00862 21.3828 2.46094 21.3828H4.15625C4.60857 21.3828 4.97656 21.7508 4.97656 22.2031C4.97656 22.6554 4.60857 23.0234 4.15625 23.0234ZM5.79688 26.3594C5.35992 26.3594 4.97656 25.9505 4.97656 25.4844V24.523C5.93135 24.1843 6.61719 23.2725 6.61719 22.2031C6.61719 21.1337 5.93135 20.2219 4.97656 19.8833V16.3198C5.93135 15.9812 6.61719 15.0694 6.61719 14C6.61719 12.9306 5.93135 12.0188 4.97656 11.6802V8.11672C5.93135 7.77809 6.61719 6.86629 6.61719 5.79688C6.61719 4.72746 5.93135 3.81566 4.97656 3.47703V2.46094C4.97656 2.00862 5.34455 1.64062 5.79688 1.64062H23.8984C24.3508 1.64062 24.7188 2.00862 24.7188 2.46094V17.0157C23.9725 16.6603 23.138 16.4609 22.2578 16.4609C19.0916 16.4609 16.5156 19.0369 16.5156 22.2031C16.5156 23.8317 17.1846 25.3053 18.2594 26.3594H5.79688ZM22.2578 26.3594C19.9962 26.3594 18.1562 24.4949 18.1562 22.2031C18.1562 19.9415 19.9962 18.1016 22.2578 18.1016C24.5194 18.1016 26.3594 19.9415 26.3594 22.2031C26.3594 24.4949 24.5194 26.3594 22.2578 26.3594Z" fill="#ABCA74"/>
<path d="M22.2578 6.61719H17.3359C16.8829 6.61719 16.5156 6.98447 16.5156 7.4375C16.5156 7.89053 16.8829 8.25781 17.3359 8.25781H22.2578C22.7108 8.25781 23.0781 7.89053 23.0781 7.4375C23.0781 6.98447 22.7108 6.61719 22.2578 6.61719Z" fill="#ABCA74"/>
<path d="M22.2578 13.1797H17.3359C16.8829 13.1797 16.5156 13.547 16.5156 14C16.5156 14.453 16.8829 14.8203 17.3359 14.8203H22.2578C22.7108 14.8203 23.0781 14.453 23.0781 14C23.0781 13.547 22.7108 13.1797 22.2578 13.1797Z" fill="#ABCA74"/>
<path d="M23.8984 21.3828H23.0781V20.5625C23.0781 20.1095 22.7108 19.7422 22.2578 19.7422C21.8048 19.7422 21.4375 20.1095 21.4375 20.5625V22.2031C21.4375 22.6562 21.8048 23.0234 22.2578 23.0234H23.8984C24.3515 23.0234 24.7188 22.6562 24.7188 22.2031C24.7188 21.7501 24.3515 21.3828 23.8984 21.3828Z" fill="#ABCA74"/>
<path d="M14.5802 5.21681C14.2599 4.89645 13.7405 4.89645 13.4202 5.21686L10.7189 7.91804L9.4277 6.62682C9.1074 6.30646 8.58797 6.30646 8.26761 6.62682C7.94725 6.94718 7.94725 7.46654 8.26761 7.7869L10.1389 9.6582C10.299 9.81838 10.509 9.89844 10.7189 9.89844C10.9289 9.89844 11.1388 9.81838 11.2989 9.65815L14.5802 6.3769C14.9005 6.05654 14.9005 5.53717 14.5802 5.21681Z" fill="#ABCA74"/>
<path d="M14.5802 11.7793C14.2599 11.459 13.7405 11.459 13.4202 11.7794L10.7189 14.4805L9.4277 13.1893C9.1074 12.869 8.58797 12.869 8.26761 13.1893C7.94725 13.5097 7.94725 14.029 8.26761 14.3494L10.1389 16.2207C10.299 16.3809 10.509 16.4609 10.7189 16.4609C10.9289 16.4609 11.1388 16.3809 11.2989 16.2206L14.5802 12.9394C14.9005 12.619 14.9005 12.0997 14.5802 11.7793Z" fill="#ABCA74"/>
<path d="M14.5802 18.3418C14.2599 18.0215 13.7405 18.0215 13.4202 18.3419L10.7189 21.043L9.4277 19.7518C9.1074 19.4315 8.58797 19.4315 8.26761 19.7518C7.94725 20.0722 7.94725 20.5915 8.26761 20.9119L10.1389 22.7832C10.299 22.9434 10.509 23.0234 10.7189 23.0234C10.9289 23.0234 11.1388 22.9434 11.2989 22.7831L14.5802 19.5019C14.9005 19.1815 14.9005 18.6622 14.5802 18.3418Z" fill="#ABCA74"/>
</g>
<defs>
<clipPath id="clip0_970_3578">
<rect width="28" height="28" fill="white"/>
</clipPath>
</defs>
</svg>
