<svg width="30" height="30" viewBox="0 0 30 30" fill="none" xmlns="http://www.w3.org/2000/svg">
<path d="M27.5466 3.68204C25.9949 2.01416 23.8206 1.06516 21.5425 1.06164C19.2626 1.06428 17.086 2.01277 15.5319 3.68097L15.0022 4.24066L14.4725 3.68097C11.3888 0.36198 6.19822 0.171376 2.87929 3.25516C2.73222 3.39186 2.59018 3.53384 2.45348 3.68097C-0.817826 7.20947 -0.817826 12.6626 2.45348 16.1911L14.2238 28.6037C14.631 29.0336 15.3097 29.052 15.7395 28.6448C15.7536 28.6315 15.7673 28.6178 15.7806 28.6037L27.5467 16.1911C30.8178 12.663 30.8178 7.21016 27.5466 3.68204ZM25.9952 14.7147H25.9942L15.0022 26.3082L4.00922 14.7147C1.51013 12.0186 1.51013 7.8524 4.00922 5.1563C6.27869 2.69654 10.1126 2.54231 12.5723 4.81178C12.6918 4.92197 12.8067 5.03687 12.9169 5.1563L14.2238 6.53513C14.6545 6.96308 15.3499 6.96308 15.7806 6.53513L17.0876 5.15737C19.3571 2.6976 23.191 2.54337 25.6507 4.81285C25.7701 4.92304 25.885 5.03794 25.9952 5.15737C28.5161 7.85774 28.5345 12.0316 25.9952 14.7147Z" fill="#ABCA74"/>
</svg>
