<svg width="14" height="14" viewBox="0 0 14 14" fill="none" xmlns="http://www.w3.org/2000/svg">
<g clip-path="url(#clip0_280_3219)">
<path d="M4.24242 10.3682L3.58008 10.9546C3.79098 11.1919 4.0201 11.4123 4.26538 11.6139L4.82529 10.9294C4.61645 10.7581 4.42156 10.5704 4.24242 10.3682Z" fill="#717171"/>
<path d="M3.37214 9.00201L2.56055 9.35041C2.68603 9.64283 2.83503 9.92458 3.00608 10.1929L3.751 9.71955C3.60573 9.49088 3.47903 9.25095 3.37214 9.00201Z" fill="#717171"/>
<path d="M11.0279 1.84251C10.1199 1.31608 9.08908 1.0387 8.03954 1.03842C5.05443 1.04322 2.53247 3.25388 2.13672 6.21266L0.62437 4.7003L0 5.32467L2.52 7.84467L5.04 5.32467L4.41563 4.7003L3.04988 6.06429C3.56879 3.3112 6.22129 1.50008 8.97438 2.01899C11.7275 2.53791 13.5386 5.19041 13.0197 7.94347C12.5008 10.6965 9.84826 12.5077 7.09517 11.9888C6.53083 11.8824 5.98864 11.681 5.49172 11.393L5.04795 12.1565C7.89608 13.8078 11.5436 12.8376 13.1949 9.98945C14.8463 7.14135 13.876 3.49381 11.0279 1.84251Z" fill="#717171"/>
<path d="M7.37695 3.02545V7.88264L9.31983 9.3398L9.8497 8.6333L8.26008 7.44108V3.02545H7.37695Z" fill="#717171"/>
</g>
<defs>
<clipPath id="clip0_280_3219">
<rect width="14" height="14" fill="white"/>
</clipPath>
</defs>
</svg>
