<svg width="24" height="24" viewBox="0 0 24 24" fill="none" xmlns="http://www.w3.org/2000/svg">
<g clip-path="url(#clip0_36_152)">
<path d="M15.093 17.8136C13.3315 17.8134 11.6095 17.291 10.1449 16.3123C8.68025 15.3336 7.53872 13.9425 6.86462 12.3151C6.19052 10.6876 6.01413 8.89681 6.35776 7.1691C6.70139 5.4414 7.5496 3.85438 8.79514 2.60872C10.3308 1.07424 12.374 0.153403 14.5408 0.0192351C16.7076 -0.114933 18.8488 0.54681 20.5621 1.88011C22.2753 3.21342 23.4427 5.1265 23.8448 7.25986C24.247 9.39323 23.8562 11.6 22.7459 13.4656C22.6166 13.6753 22.41 13.8257 22.1707 13.8843C21.9315 13.9429 21.6787 13.905 21.4672 13.7788C21.2556 13.6525 21.1023 13.4481 21.0402 13.2097C20.9782 12.9713 21.0125 12.718 21.1356 12.5047C21.7837 11.4165 22.1253 10.1732 22.1243 8.9066C22.1243 5.02936 18.9699 1.87497 15.0927 1.87497C11.2154 1.87497 8.06104 5.02936 8.06104 8.9066C8.06104 12.7838 11.2154 15.9382 15.0927 15.9382C16.1373 15.9409 17.1692 15.7086 18.112 15.2586C18.2235 15.203 18.345 15.1702 18.4693 15.162C18.5936 15.1539 18.7183 15.1706 18.8361 15.2112C18.9538 15.2518 19.0623 15.3154 19.1553 15.3984C19.2482 15.4814 19.3236 15.5821 19.3772 15.6945C19.4307 15.807 19.4613 15.929 19.4672 16.0535C19.4731 16.1779 19.4541 16.3023 19.4114 16.4193C19.3687 16.5363 19.303 16.6436 19.2184 16.735C19.1337 16.8264 19.0317 16.9 18.9182 16.9515C17.7239 17.5221 16.4166 17.8167 15.093 17.8136Z" fill="white"/>
<path d="M18.9657 8.16658C18.7828 8.16675 18.6038 8.11337 18.4509 8.01304C18.2979 7.9127 18.1777 7.76979 18.105 7.60194C17.8504 7.01467 17.4296 6.51468 16.8944 6.16349C16.3593 5.8123 15.7331 5.62524 15.093 5.62535C14.8475 5.6206 14.6137 5.51974 14.4418 5.34444C14.2698 5.16914 14.1735 4.9334 14.1735 4.68786C14.1735 4.44232 14.2698 4.20657 14.4418 4.03128C14.6137 3.85598 14.8475 3.75512 15.093 3.75037C16.0987 3.7501 17.0826 4.04395 17.9234 4.59573C18.7642 5.14752 19.4253 5.93314 19.8253 6.85588C19.8871 6.99853 19.9125 7.1543 19.8992 7.30919C19.8859 7.46408 19.8343 7.61324 19.7491 7.74325C19.6639 7.87326 19.5476 7.98004 19.4109 8.05399C19.2741 8.12795 19.1212 8.16676 18.9657 8.16693V8.16658Z" fill="white"/>
<path d="M2.81123 24C2.25521 23.9998 1.71175 23.8347 1.24949 23.5257C0.787235 23.2167 0.426931 22.7777 0.214097 22.264C0.0012628 21.7503 -0.0545509 21.1851 0.053707 20.6397C0.161965 20.0944 0.429437 19.5933 0.822332 19.1999L2.12318 17.899C2.3046 17.7176 2.85693 17.1653 8.09374 13.0592C8.28955 12.9057 8.5383 12.8364 8.78526 12.8663C9.03221 12.8963 9.25715 13.0231 9.41059 13.219C9.56402 13.4148 9.63338 13.6635 9.60342 13.9105C9.57345 14.1574 9.44661 14.3824 9.25079 14.5358C4.77165 18.0478 3.69335 18.9819 3.4497 19.2263L2.14885 20.5253C1.97607 20.7018 1.8799 20.9394 1.88123 21.1863C1.88256 21.4333 1.98128 21.6698 2.15594 21.8444C2.33061 22.019 2.56711 22.1177 2.81409 22.1189C3.06107 22.1202 3.29857 22.024 3.47501 21.8512L4.77586 20.5521C5.01142 20.3144 5.91358 19.2684 9.28033 14.9422C9.35498 14.8424 9.44879 14.7585 9.55625 14.6954C9.66372 14.6323 9.78269 14.5912 9.90621 14.5746C10.0297 14.558 10.1553 14.5662 10.2757 14.5987C10.396 14.6312 10.5086 14.6873 10.607 14.7639C10.7053 14.8404 10.7875 14.9358 10.8485 15.0444C10.9096 15.1531 10.9484 15.2728 10.9627 15.3966C10.9769 15.5204 10.9664 15.6458 10.9316 15.7655C10.8968 15.8852 10.8385 15.9968 10.7601 16.0937C6.81926 21.1582 6.27747 21.7 6.09922 21.8782L4.79837 23.1791C4.53741 23.4399 4.22756 23.6466 3.88658 23.7875C3.54559 23.9284 3.18017 24.0006 2.81123 24Z" fill="white"/>
</g>
<defs>
<clipPath id="clip0_36_152">
<rect width="24" height="24" fill="white"/>
</clipPath>
</defs>
</svg>
