<svg width="24" height="24" viewBox="0 0 24 24" fill="none" xmlns="http://www.w3.org/2000/svg">
<g clip-path="url(#clip0_36_166)">
<path d="M1.10144 17.8104C0.916087 17.8103 0.734925 17.7552 0.580846 17.6522C0.426767 17.5492 0.306683 17.4028 0.235767 17.2315C0.164851 17.0603 0.146284 16.8719 0.182412 16.6901C0.218541 16.5083 0.307743 16.3412 0.43875 16.2101L10.4463 6.20223C10.533 6.11366 10.6364 6.04315 10.7505 5.9948C10.8647 5.94645 10.9873 5.92121 11.1112 5.92055C11.2352 5.91988 11.358 5.9438 11.4727 5.99092C11.5873 6.03804 11.6915 6.10743 11.7792 6.19506C11.8668 6.2827 11.9363 6.38686 11.9834 6.50149C12.0306 6.61613 12.0545 6.73898 12.0539 6.86294C12.0532 6.98689 12.028 7.10949 11.9797 7.22364C11.9314 7.33779 11.8609 7.44123 11.7724 7.52797L1.76449 17.5358C1.67753 17.6231 1.57418 17.6922 1.46038 17.7393C1.34659 17.7865 1.2246 17.8106 1.10144 17.8104Z" fill="white"/>
<path d="M12.1875 19.3122C11.9394 19.3126 11.7013 19.2143 11.5255 19.0391L5.33808 12.8731C5.16494 12.6969 5.06831 12.4596 5.06916 12.2126C5.07001 11.9656 5.16828 11.7289 5.34263 11.554C5.51698 11.379 5.75331 11.2799 6.0003 11.2782C6.24728 11.2765 6.48496 11.3723 6.66171 11.5449L12.8492 17.7109C12.9807 17.8418 13.0703 18.0088 13.1068 18.1908C13.1432 18.3727 13.1249 18.5614 13.054 18.7329C12.9832 18.9044 12.863 19.051 12.7087 19.1541C12.5545 19.2573 12.3731 19.3123 12.1875 19.3122Z" fill="white"/>
<path d="M15.4687 12.1404C15.22 12.1404 14.9816 12.0416 14.8057 11.8659L4.72781 1.78804C4.555 1.61161 4.45877 1.37412 4.46003 1.12715C4.4613 0.880192 4.55995 0.643699 4.73455 0.469044C4.90916 0.294389 5.14563 0.195678 5.39259 0.19435C5.63956 0.193021 5.87707 0.289184 6.05355 0.461951L15.4687 9.87605L21.8358 3.48678C21.9221 3.3968 22.0254 3.32491 22.1398 3.27534C22.2541 3.22577 22.3772 3.19949 22.5019 3.19806C22.6265 3.19663 22.7502 3.22006 22.8657 3.26699C22.9812 3.31393 23.0861 3.38341 23.1744 3.47139C23.2627 3.55937 23.3326 3.66407 23.38 3.77937C23.4273 3.89467 23.4512 4.01826 23.4503 4.14291C23.4493 4.26756 23.4235 4.39076 23.3743 4.50531C23.3252 4.61986 23.2537 4.72346 23.164 4.81006L16.1328 11.8648C16.0457 11.9523 15.9422 12.0216 15.8283 12.0689C15.7143 12.1162 15.5921 12.1405 15.4687 12.1404Z" fill="white"/>
<path d="M19.4339 24H19.1907C19.0328 23.9999 18.8776 23.9601 18.7392 23.884C18.6009 23.808 18.484 23.6983 18.3993 23.5651C17.9799 22.9042 17.4388 22.3161 16.9157 21.7472C15.7907 20.5234 14.627 19.2578 14.6249 17.2775C14.6247 16.0329 15.1178 14.8389 15.996 13.957C16.4282 13.5153 16.9442 13.1643 17.5138 12.9247C18.0835 12.6851 18.6952 12.5616 19.3132 12.5616C19.9311 12.5616 20.5429 12.6851 21.1125 12.9247C21.6821 13.1643 22.1982 13.5153 22.6303 13.957C23.508 14.8384 24.001 16.0315 24.0014 17.2754C23.9993 19.2578 22.8356 20.5234 21.7106 21.7472C21.1872 22.3161 20.6465 22.9046 20.2267 23.5651C20.1419 23.6986 20.0248 23.8084 19.8862 23.8845C19.7476 23.9605 19.592 24.0003 19.4339 24ZM19.3123 14.4376C17.7633 14.4376 16.5019 15.7116 16.4998 17.2775C16.4998 18.5262 17.2933 19.3868 18.2959 20.4767C18.6352 20.8458 18.9815 21.222 19.3123 21.6319C19.6435 21.222 19.9894 20.8458 20.329 20.4767C21.3317 19.3868 22.122 18.5248 22.1248 17.2743C22.123 15.7116 20.8613 14.4376 19.3123 14.4376Z" fill="white"/>
<path d="M18.375 17.25C18.375 17.4354 18.43 17.6167 18.533 17.7709C18.6361 17.9251 18.7825 18.0453 18.9539 18.1163C19.1252 18.1872 19.3138 18.2058 19.4957 18.1696C19.6776 18.1334 19.8446 18.044 19.9757 17.9129C20.1068 17.7817 20.1961 17.6146 20.2323 17.4327C20.2684 17.2508 20.2498 17.0623 20.1788 16.8909C20.1077 16.7196 19.9875 16.5732 19.8333 16.4702C19.679 16.3672 19.4977 16.3123 19.3123 16.3124C19.0637 16.3125 18.8253 16.4113 18.6495 16.5871C18.4737 16.7629 18.375 17.0014 18.375 17.25Z" fill="white"/>
<path d="M14.5311 24H3.7501C2.75585 23.9989 1.80265 23.6034 1.09961 22.9004C0.396574 22.1974 0.00111661 21.2441 0 20.2499L0 3.7501C0.00111661 2.75585 0.396574 1.80265 1.09961 1.09961C1.80265 0.396574 2.75585 0.00111661 3.7501 0L20.2499 0C21.2441 0.00111661 22.1974 0.396574 22.9004 1.09961C23.6034 1.80265 23.9989 2.75585 24 3.7501V11.1093C24 11.358 23.9012 11.5965 23.7254 11.7723C23.5495 11.9482 23.3111 12.0469 23.0624 12.0469C22.8137 12.0469 22.5752 11.9482 22.3994 11.7723C22.2236 11.5965 22.1248 11.358 22.1248 11.1093V3.7501C22.1243 3.25296 21.9266 2.77631 21.5751 2.42475C21.2236 2.07319 20.747 1.87543 20.2499 1.87487H3.7501C3.25293 1.87543 2.77628 2.07318 2.42473 2.42473C2.07318 2.77628 1.87543 3.25293 1.87487 3.7501V20.2499C1.87543 20.747 2.07319 21.2236 2.42475 21.5751C2.77631 21.9266 3.25296 22.1243 3.7501 22.1248H14.5311C14.7797 22.1248 15.0182 22.2236 15.1941 22.3994C15.3699 22.5752 15.4687 22.8137 15.4687 23.0624C15.4687 23.3111 15.3699 23.5495 15.1941 23.7254C15.0182 23.9012 14.7797 24 14.5311 24Z" fill="white"/>
</g>
<defs>
<clipPath id="clip0_36_166">
<rect width="24" height="24" fill="white"/>
</clipPath>
</defs>
</svg>
