<svg width="14" height="14" viewBox="0 0 14 14" fill="none" xmlns="http://www.w3.org/2000/svg">
<g clip-path="url(#clip0_417_9292)">
<path d="M7 7.43749C6.48082 7.43749 5.97331 7.28354 5.54163 6.9951C5.10995 6.70666 4.7735 6.29669 4.57482 5.81704C4.37614 5.33738 4.32415 4.80958 4.42544 4.30038C4.52673 3.79118 4.77673 3.32345 5.14385 2.95634C5.51096 2.58923 5.97869 2.33922 6.48789 2.23793C6.99709 2.13665 7.52489 2.18863 8.00454 2.38731C8.4842 2.58599 8.89417 2.92244 9.18261 3.35412C9.47105 3.7858 9.625 4.29332 9.625 4.81249C9.625 5.50869 9.34844 6.17637 8.85616 6.66865C8.36387 7.16093 7.69619 7.43749 7 7.43749ZM7 3.06249C6.65388 3.06249 6.31554 3.16513 6.02775 3.35742C5.73997 3.54971 5.51567 3.82303 5.38321 4.1428C5.25076 4.46257 5.2161 4.81443 5.28363 5.1539C5.35115 5.49337 5.51782 5.80519 5.76256 6.04993C6.00731 6.29467 6.31913 6.46134 6.65859 6.52887C6.99806 6.59639 7.34993 6.56174 7.6697 6.42928C7.98947 6.29683 8.26278 6.07253 8.45507 5.78474C8.64737 5.49696 8.75 5.15861 8.75 4.81249C8.75 4.34836 8.56563 3.90325 8.23744 3.57506C7.90925 3.24687 7.46413 3.06249 7 3.06249Z" fill="#529E66"/>
<path d="M7.00027 13.5625C6.03009 13.5619 5.07212 13.3461 4.19533 12.9308C3.31854 12.5155 2.54474 11.9109 1.92965 11.1606L1.70215 10.8806L1.92965 10.605C2.54526 9.8557 3.31929 9.25215 4.19605 8.83776C5.07281 8.42337 6.03052 8.20845 7.00027 8.20845C7.97003 8.20845 8.92773 8.42337 9.8045 8.83776C10.6813 9.25215 11.4553 9.8557 12.0709 10.605L12.2984 10.8806L12.0709 11.1606C11.4558 11.9109 10.682 12.5155 9.80522 12.9308C8.92843 13.3461 7.97046 13.5619 7.00027 13.5625ZM2.8484 10.885C3.3805 11.4546 4.02402 11.9088 4.739 12.2193C5.45398 12.5298 6.22515 12.6901 7.00465 12.6901C7.78414 12.6901 8.55532 12.5298 9.2703 12.2193C9.98528 11.9088 10.6288 11.4546 11.1609 10.885C10.6288 10.3154 9.98528 9.86119 9.2703 9.55067C8.55532 9.24016 7.78414 9.07992 7.00465 9.07992C6.22515 9.07992 5.45398 9.24016 4.739 9.55067C4.02402 9.86119 3.3805 10.3154 2.8484 10.885Z" fill="#529E66"/>
<path d="M7.00047 13.5625C5.5098 13.5635 4.0632 13.0569 2.89878 12.1262C1.73435 11.1955 0.921479 9.89612 0.593959 8.44186C0.266438 6.98762 0.443782 5.46519 1.0968 4.12516C1.74982 2.78513 2.8396 1.70736 4.18678 1.06922C5.53396 0.431081 7.05826 0.270611 8.50879 0.61422C9.95932 0.957828 11.2497 1.78504 12.1674 2.9597C13.0852 4.13437 13.5757 5.58649 13.5581 7.07706C13.5406 8.56763 13.0162 10.0078 12.0711 11.1606C11.456 11.9109 10.6822 12.5155 9.80542 12.9308C8.92863 13.3461 7.97066 13.5618 7.00047 13.5625ZM7.00047 1.3125C5.87559 1.3125 4.77597 1.64606 3.84067 2.27101C2.90536 2.89596 2.17638 3.78423 1.74591 4.82348C1.31544 5.86274 1.20281 7.00631 1.42226 8.10957C1.64171 9.21284 2.18339 10.2263 2.97881 11.0217C3.77422 11.8171 4.78763 12.3588 5.8909 12.5782C6.99417 12.7977 8.13773 12.685 9.17699 12.2546C10.2162 11.8241 11.1045 11.0951 11.7295 10.1598C12.3544 9.2245 12.688 8.12488 12.688 7C12.688 5.49158 12.0888 4.04494 11.0221 2.97833C9.95553 1.91171 8.50889 1.3125 7.00047 1.3125Z" fill="#529E66"/>
<path d="M2.2666 10.885C2.2666 10.885 6.67223 15.8069 11.1566 11.375L11.7341 10.885C11.7341 10.885 7.9891 7 4.18723 9.33187L2.2666 10.885Z" fill="#529E66"/>
<path d="M7 7C8.20812 7 9.1875 6.02062 9.1875 4.8125C9.1875 3.60438 8.20812 2.625 7 2.625C5.79188 2.625 4.8125 3.60438 4.8125 4.8125C4.8125 6.02062 5.79188 7 7 7Z" fill="#529E66"/>
</g>
<defs>
<clipPath id="clip0_417_9292">
<rect width="14" height="14" fill="white"/>
</clipPath>
</defs>
</svg>
