<svg width="24" height="24" viewBox="0 0 24 24" fill="none" xmlns="http://www.w3.org/2000/svg">
<g clip-path="url(#clip0_36_164)">
<path d="M23.9391 20.565C23.8883 20.3216 23.743 20.1083 23.535 19.972C23.327 19.8358 23.0734 19.7877 22.83 19.8384C22.5866 19.8892 22.3733 20.0345 22.237 20.2425C22.1008 20.4505 22.0527 20.7041 22.1034 20.9475C22.1337 21.0904 22.1316 21.2383 22.0973 21.3803C22.063 21.5224 21.9973 21.6549 21.9052 21.7683C21.8152 21.8805 21.701 21.9709 21.5711 22.0327C21.4412 22.0945 21.299 22.126 21.1552 22.125H2.84484C2.70102 22.126 2.55885 22.0944 2.42896 22.0326C2.29908 21.9708 2.18486 21.8805 2.09484 21.7683C2.00268 21.6549 1.93705 21.5224 1.90274 21.3803C1.86843 21.2383 1.86632 21.0904 1.89656 20.9475C2.86922 16.2741 6.99141 12.8602 11.7516 12.7444C11.8341 12.7477 11.9166 12.7491 12 12.7491C12.0834 12.7491 12.1669 12.7491 12.2494 12.7444C13.9031 12.7836 15.5231 13.2201 16.9727 14.017C18.4223 14.814 19.6589 15.9479 20.5781 17.3231C20.7171 17.5284 20.9318 17.6702 21.1751 17.7176C21.4185 17.765 21.6706 17.7141 21.8765 17.576C22.0824 17.4379 22.2252 17.2239 22.2737 16.9808C22.3222 16.7377 22.2725 16.4853 22.1353 16.2787C20.623 14.0189 18.399 12.3291 15.8166 11.4778C16.6106 10.885 17.2554 10.115 17.6995 9.22911C18.1437 8.34325 18.375 7.36597 18.375 6.375C18.375 2.85938 15.5156 0 12 0C8.48438 0 5.625 2.85938 5.625 6.375C5.62513 7.36653 5.85668 8.34434 6.30125 9.23062C6.74581 10.1169 7.39111 10.8872 8.18578 11.4802C6.1536 12.1487 4.33305 13.34 2.90692 14.9347C1.48079 16.5293 0.499284 18.4711 0.0609379 20.565C-0.0263404 20.9795 -0.0200753 21.4082 0.079277 21.8199C0.178629 22.2317 0.368567 22.6161 0.635257 22.9452C0.901947 23.2742 1.23867 23.5397 1.62091 23.7221C2.00315 23.9046 2.42128 23.9995 2.84484 24H21.1552C21.5787 23.9995 21.9968 23.9046 22.3791 23.7221C22.7613 23.5397 23.0981 23.2742 23.3647 22.9452C23.6314 22.6161 23.8214 22.2317 23.9207 21.8199C24.0201 21.4082 24.0263 20.9795 23.9391 20.565ZM7.5 6.375C7.50003 5.49469 7.75826 4.63373 8.24271 3.89871C8.72715 3.16369 9.41655 2.58691 10.2255 2.23978C11.0345 1.89265 11.9275 1.79042 12.794 1.94575C13.6605 2.10108 14.4624 2.50714 15.1004 3.11367C15.7385 3.72019 16.1846 4.50052 16.3836 5.35805C16.5825 6.21557 16.5256 7.11263 16.2198 7.93813C15.9141 8.76363 15.3729 9.48132 14.6634 10.0023C13.9538 10.5234 13.107 10.8248 12.2278 10.8694C12.1519 10.8694 12.0759 10.867 12 10.867C11.9241 10.867 11.8486 10.867 11.7731 10.8694C10.6209 10.8097 9.53544 10.3104 8.74043 9.4742C7.94543 8.63804 7.50146 7.52878 7.5 6.375Z" fill="white"/>
</g>
<defs>
<clipPath id="clip0_36_164">
<rect width="24" height="24" fill="white"/>
</clipPath>
</defs>
</svg>
