<svg width="24" height="24" viewBox="0 0 24 24" fill="none" xmlns="http://www.w3.org/2000/svg">
<g clip-path="url(#clip0_113_127)">
<path d="M21.1875 16.5001C20.9389 16.5001 20.7004 16.4013 20.5246 16.2256C20.3488 16.0498 20.25 15.8114 20.2499 15.5628V9.84417C20.2475 9.71954 20.2699 9.59568 20.3159 9.47983C20.362 9.36399 20.4306 9.25848 20.5179 9.16949C20.6052 9.0805 20.7094 9.0098 20.8243 8.96154C20.9392 8.91328 21.0626 8.88843 21.1873 8.88843C21.312 8.88843 21.4354 8.91328 21.5503 8.96154C21.6652 9.0098 21.7694 9.0805 21.8567 9.16949C21.944 9.25848 22.0126 9.36399 22.0587 9.47983C22.1047 9.59568 22.1272 9.71954 22.1247 9.84417V15.5628C22.1247 15.8114 22.0259 16.0497 21.8501 16.2255C21.6744 16.4012 21.436 16.5 21.1875 16.5001Z" fill="white"/>
<path d="M0.937609 12.188C0.752139 12.1879 0.57085 12.1329 0.416674 12.0298C0.262498 11.9267 0.142361 11.7802 0.0714595 11.6088C0.000558167 11.4374 -0.0179222 11.2489 0.0183562 11.067C0.0546345 10.8851 0.144042 10.7181 0.275268 10.587L10.1323 0.74921C10.145 0.736554 10.158 0.724602 10.1714 0.714055C10.6876 0.253095 11.3557 -0.00116368 12.0478 4.00417e-06C12.7399 0.00117169 13.4072 0.257684 13.9218 0.720383C13.9352 0.732336 13.9482 0.74464 13.9605 0.757296L23.7275 10.5898C23.8972 10.7673 23.9905 11.0043 23.9873 11.2499C23.9841 11.4954 23.8847 11.7299 23.7105 11.9029C23.5362 12.076 23.3011 12.1738 23.0555 12.1753C22.8099 12.1768 22.5736 12.0818 22.3972 11.9109L12.6513 2.10268C12.482 1.95761 12.2665 1.87766 12.0435 1.87721C11.8206 1.87676 11.6047 1.95583 11.4349 2.10022L1.5996 11.9138C1.51276 12.0008 1.40957 12.0698 1.29596 12.1169C1.18236 12.164 1.06057 12.1881 0.937609 12.188Z" fill="white"/>
<path d="M18.375 24.0001H14.6249C14.3763 24.0001 14.1378 23.9013 13.9619 23.7255C13.7861 23.5496 13.6873 23.3112 13.6873 23.0625V16.7813C13.681 16.3504 13.5054 15.9393 13.1984 15.6368C12.8914 15.3342 12.4778 15.1647 12.0468 15.1647C11.6158 15.1647 11.2021 15.3342 10.8951 15.6368C10.5881 15.9393 10.4125 16.3504 10.4062 16.7813V23.0625C10.4062 23.3112 10.3074 23.5496 10.1316 23.7255C9.95575 23.9013 9.71726 24.0001 9.46859 24.0001H5.62498C4.63073 23.999 3.67753 23.6035 2.97449 22.9005C2.27145 22.1975 1.87599 21.2443 1.87488 20.2501V9.5162C1.87488 9.26754 1.97366 9.02906 2.1495 8.85323C2.32533 8.67739 2.56382 8.57861 2.81249 8.57861C3.06116 8.57861 3.29965 8.67739 3.47548 8.85323C3.65132 9.02906 3.7501 9.26754 3.7501 9.5162V20.2501C3.75066 20.7472 3.94837 21.2237 4.29986 21.5752C4.65134 21.9266 5.1279 22.1243 5.62498 22.1249H8.53133V16.7813C8.53133 15.849 8.90172 14.9548 9.56103 14.2955C10.2203 13.6362 11.1145 13.2658 12.0469 13.2658C12.9793 13.2658 13.8735 13.6362 14.5328 14.2955C15.1922 14.9548 15.5625 15.849 15.5625 16.7813V22.1249H18.375C18.8721 22.1243 19.3487 21.9266 19.7002 21.5752C20.0516 21.2237 20.2493 20.7472 20.2499 20.2501C20.2475 20.1255 20.27 20.0016 20.316 19.8858C20.362 19.7699 20.4307 19.6644 20.518 19.5754C20.6052 19.4864 20.7094 19.4157 20.8243 19.3675C20.9393 19.3192 21.0627 19.2943 21.1873 19.2943C21.312 19.2943 21.4354 19.3192 21.5503 19.3675C21.6653 19.4157 21.7694 19.4864 21.8567 19.5754C21.944 19.6644 22.0127 19.7699 22.0587 19.8858C22.1047 20.0016 22.1272 20.1255 22.1248 20.2501C22.1237 21.2442 21.7283 22.1974 21.0253 22.9004C20.3223 23.6034 19.3692 23.9989 18.375 24.0001Z" fill="white"/>
<path d="M14.3904 10.9691H9.74984C9.50436 10.9644 9.27054 10.8635 9.09862 10.6882C8.92669 10.5129 8.83038 10.2772 8.83038 10.0317C8.83038 9.78618 8.92669 9.55046 9.09862 9.37518C9.27054 9.1999 9.50436 9.09905 9.74984 9.09429H14.3904C14.5151 9.09188 14.6389 9.11434 14.7548 9.16037C14.8706 9.20639 14.9761 9.27506 15.0651 9.36234C15.1541 9.44963 15.2248 9.55378 15.2731 9.66871C15.3214 9.78365 15.3462 9.90705 15.3462 10.0317C15.3462 10.1564 15.3214 10.2798 15.2731 10.3947C15.2248 10.5096 15.1541 10.6138 15.0651 10.7011C14.9761 10.7883 14.8706 10.857 14.7548 10.903C14.6389 10.9491 14.5151 10.9715 14.3904 10.9691Z" fill="white"/>
</g>
<defs>
<clipPath id="clip0_113_127">
<rect width="24" height="24" fill="white"/>
</clipPath>
</defs>
</svg>
