<svg width="230" height="133" viewBox="0 0 230 133" fill="none" xmlns="http://www.w3.org/2000/svg">
<g clip-path="url(#clip0_431_4882)">
<path fill-rule="evenodd" clip-rule="evenodd" d="M54.6276 132.456C53.4562 131.122 52.3286 129.749 51.2449 128.337C50.3973 127.233 49.3065 126.339 48.0569 125.723C46.8073 125.107 45.4325 124.787 44.0389 124.787C38.5887 124.782 30.2731 124.782 30.2731 124.782C27.6662 124.782 25.1661 123.748 23.3227 121.909C21.4793 120.069 20.4438 117.573 20.4438 114.972C20.4438 112.37 21.4793 109.875 23.3227 108.035C25.1661 106.195 27.6662 105.162 30.2731 105.162H61.3329C62.6308 105.173 63.918 104.927 65.1203 104.439C66.3226 103.951 67.4161 103.23 68.3378 102.318C69.2595 101.406 69.9911 100.321 70.4904 99.1254C70.9897 97.9297 71.2467 96.6471 71.2467 95.3517C71.2467 94.0563 70.9897 92.7738 70.4904 91.578C69.9911 90.3823 69.2595 89.2972 68.3378 88.3851C67.4161 87.4731 66.3226 86.7523 65.1203 86.2643C63.918 85.7763 62.6308 85.5308 61.3329 85.5419H9.82888C8.53101 85.553 7.24378 85.3075 6.04148 84.8195C4.83918 84.3315 3.74563 83.6107 2.82393 82.6987C1.90222 81.7867 1.17062 80.7015 0.671357 79.5058C0.172089 78.3101 -0.0849609 77.0275 -0.0849609 75.7321C-0.0849609 74.4367 0.172089 73.1542 0.671357 71.9585C1.17062 70.7627 1.90222 69.6776 2.82393 68.7655C3.74563 67.8535 4.83918 67.1327 6.04148 66.6447C7.24378 66.1567 8.53101 65.9112 9.82888 65.9223H45.2133C46.5111 65.9334 47.7984 65.6879 49.0007 65.1999C50.203 64.712 51.2965 63.9911 52.2182 63.0791C53.1399 62.1671 53.8715 61.0819 54.3708 59.8862C54.8701 58.6905 55.1271 57.4079 55.1271 56.1125C55.1271 54.8171 54.8701 53.5346 54.3708 52.3389C53.8715 51.1432 53.1399 50.058 52.2182 49.1459C51.2965 48.2339 50.203 47.5131 49.0007 47.0251C47.7984 46.5371 46.5111 46.2916 45.2133 46.3027H25.9485C23.3416 46.3027 20.8415 45.2692 18.9981 43.4294C17.1548 41.5896 16.1192 39.0944 16.1192 36.4926C16.1192 33.8907 17.1548 31.3955 18.9981 29.5557C20.8415 27.716 23.3416 26.6824 25.9485 26.6824H51.2151C52.4317 26.6823 53.636 26.4384 54.7563 25.9649C55.8767 25.4915 56.8904 24.7982 57.7372 23.9263C72.2486 9.15741 92.4625 -0.000717163 114.803 -0.000717163C145.076 -0.000717163 171.445 16.8164 185.033 41.5891C185.815 43.0135 186.967 44.2018 188.367 45.0296C189.767 45.8573 191.365 46.294 192.992 46.294C198.962 46.302 207.59 46.302 207.59 46.302C210.182 46.3242 212.66 47.3676 214.485 49.2049C216.31 51.0421 217.334 53.5246 217.334 56.1118C217.334 58.699 216.31 61.1815 214.485 63.0187C212.66 64.856 210.182 65.8994 207.59 65.9216H188.323C187.026 65.9105 185.738 66.156 184.536 66.644C183.334 67.132 182.24 67.8528 181.318 68.7648C180.397 69.6768 179.665 70.762 179.166 71.9577C178.667 73.1535 178.41 74.436 178.41 75.7314C178.41 77.0268 178.667 78.3093 179.166 79.505C179.665 80.7008 180.397 81.7859 181.318 82.698C182.24 83.61 183.334 84.3308 184.536 84.8188C185.738 85.3068 187.026 85.5523 188.323 85.5412H220.17C222.762 85.5634 225.24 86.6068 227.065 88.444C228.89 90.2813 229.914 92.7638 229.914 95.351C229.914 97.9382 228.89 100.421 227.065 102.258C225.24 104.095 222.762 105.139 220.17 105.161H196.971C195.183 105.161 193.435 105.688 191.945 106.676C190.456 107.663 189.292 109.068 188.599 110.713C185.26 118.646 180.66 125.988 174.975 132.457L54.6276 132.456Z" fill="#EEEFE3"/>
<path fill-rule="evenodd" clip-rule="evenodd" d="M200.75 131.912H84.8419C84.6973 131.912 84.5587 131.969 84.4565 132.071C84.3543 132.173 84.2969 132.312 84.2969 132.456C84.2969 132.6 84.3543 132.739 84.4565 132.841C84.5587 132.943 84.6973 133 84.8419 133H200.75C200.895 133 201.033 132.943 201.136 132.841C201.238 132.739 201.295 132.6 201.295 132.456C201.295 132.312 201.238 132.173 201.136 132.071C201.033 131.969 200.895 131.912 200.75 131.912Z" fill="#529E66"/>
<path fill-rule="evenodd" clip-rule="evenodd" d="M79.0283 131.912H31.7755C31.6309 131.912 31.4923 131.969 31.3901 132.071C31.2879 132.173 31.2305 132.312 31.2305 132.456C31.2305 132.6 31.2879 132.739 31.3901 132.841C31.4923 132.943 31.6309 133 31.7755 133H79.0283C79.1729 133 79.3115 132.943 79.4137 132.841C79.5159 132.739 79.5733 132.6 79.5733 132.456C79.5733 132.312 79.5159 132.173 79.4137 132.071C79.3115 131.969 79.1729 131.912 79.0283 131.912Z" fill="#529E66"/>
<path d="M49.2646 53.6252V99.2954L69.7575 106.793V61.1239L59.0148 57.1914L49.2683 53.6252H49.2646Z" fill="#ABCA74"/>
<path d="M28.7764 106.796L49.2649 99.2983V53.6259L28.7764 61.1238V106.796Z" fill="#E2E8F0"/>
<path d="M8.28686 53.6252V99.2954L28.7797 106.793V61.1239L16.3387 56.5705L8.28613 53.6252H8.28686Z" fill="#ABCA74"/>
<path d="M58.6294 67.5172C60.2681 69.3776 62.0979 71.0965 62.8697 73.5225C63.6691 76.0385 62.3923 78.7583 63.3144 81.1503C64.2904 83.6888 67.5416 85.5535 69.7544 83.6112V61.1275L59.0117 57.195C57.1869 60.7489 55.8767 64.4065 58.6294 67.5208V67.5172Z" fill="white"/>
<path d="M8.28686 53.6252V85.9727C11.2547 86.6639 13.1485 85.9111 14.1448 83.0883C15.3075 79.789 16.3285 80.5259 19.1321 79.1543C21.8972 77.806 21.4575 75.1015 20.5063 72.4992C18.8734 68.0314 14.373 61.9253 17.545 57.0108L8.28613 53.6237L8.28686 53.6252Z" fill="white"/>
<path d="M31.8418 60.21C31.8418 64.2498 36.3255 74.2805 39.1291 76.5288C41.932 74.2805 46.4165 64.2462 46.4165 60.21C46.4165 56.1738 43.1536 52.8926 39.1291 52.8926C35.1047 52.8926 31.8418 56.1716 31.8418 60.21Z" fill="#ABCA74"/>
<path fill-rule="evenodd" clip-rule="evenodd" d="M39.1394 75.813C39.5122 75.4794 39.8094 75.1232 40.3203 74.3363C40.3989 74.2152 40.5225 74.1303 40.6639 74.1001C40.8053 74.07 40.9529 74.0972 41.0742 74.1757C41.1955 74.2541 41.2807 74.3775 41.3108 74.5186C41.341 74.6597 41.3138 74.807 41.2352 74.9281C40.478 76.0937 40.1248 76.4302 39.4708 76.9589C39.3738 77.0367 39.2532 77.0791 39.1288 77.0791C39.0045 77.0791 38.8839 77.0367 38.7869 76.9589C36.9339 75.4641 34.3366 70.6773 32.7452 66.3386C32.6954 66.2031 32.7017 66.0534 32.7625 65.9225C32.8234 65.7916 32.9339 65.6902 33.0696 65.6405C33.2054 65.5909 33.3554 65.5971 33.4866 65.6579C33.6177 65.7186 33.7194 65.8289 33.7691 65.9644C35.1905 69.841 37.4113 74.1282 39.1394 75.813Z" fill="#529E66"/>
<path fill-rule="evenodd" clip-rule="evenodd" d="M42.6481 72.629C44.8892 68.5928 46.9617 62.9994 46.9617 60.21C46.9617 55.8677 43.454 52.3479 39.1294 52.3479C37.7918 52.3487 36.4769 52.6919 35.3102 53.3447C34.1435 53.9976 33.164 54.9382 32.4656 56.0766C32.4281 56.1375 32.4029 56.2051 32.3916 56.2757C32.3803 56.3462 32.383 56.4183 32.3996 56.4878C32.4162 56.5573 32.4464 56.6229 32.4884 56.6808C32.5303 56.7386 32.5833 56.7877 32.6443 56.8251C32.7053 56.8625 32.7731 56.8876 32.8438 56.8989C32.9145 56.9102 32.9867 56.9075 33.0563 56.8909C33.126 56.8744 33.1917 56.8443 33.2496 56.8023C33.3076 56.7604 33.3568 56.7076 33.3943 56.6467C33.9955 55.666 34.8389 54.8558 35.8437 54.2936C36.8485 53.7314 37.9811 53.4361 39.133 53.4359C42.8573 53.4359 45.8753 56.4704 45.8753 60.21C45.8753 62.8841 43.8471 68.2323 41.6983 72.1046C41.6629 72.1671 41.6404 72.236 41.6318 72.3073C41.6233 72.3786 41.629 72.4508 41.6485 72.5199C41.6681 72.589 41.7012 72.6535 41.7459 72.7097C41.7905 72.766 41.8459 72.8128 41.9088 72.8476C41.9717 72.8824 42.0409 72.9044 42.1124 72.9124C42.1839 72.9204 42.2562 72.9142 42.3253 72.8941C42.3943 72.8741 42.4587 72.8406 42.5147 72.7956C42.5708 72.7506 42.6173 72.6949 42.6517 72.6319L42.6481 72.629Z" fill="#529E66"/>
<path d="M36.3955 60.0968C36.3955 60.6362 36.5557 61.1634 36.8559 61.6119C37.156 62.0605 37.5827 62.4101 38.0819 62.6166C38.5811 62.8232 39.1304 62.8774 39.6605 62.7725C40.1906 62.6675 40.6776 62.4081 41.0599 62.027C41.4423 61.6458 41.7029 61.1601 41.8088 60.6312C41.9146 60.1023 41.861 59.554 41.6547 59.0555C41.4484 58.557 41.0987 58.1307 40.6497 57.8305C40.2007 57.5304 39.6727 57.3698 39.1323 57.3691C38.7731 57.3687 38.4173 57.439 38.0853 57.5759C37.7534 57.7128 37.4517 57.9136 37.1975 58.1669C36.9434 58.4203 36.7417 58.7211 36.6041 59.0522C36.4665 59.3834 36.3956 59.7384 36.3955 60.0968Z" fill="white"/>
<path d="M8.28711 91.3891V95.6995C11.1409 96.5996 14.2838 97.3292 17.7393 97.8949C19.089 98.1181 20.4545 98.2321 21.8226 98.2358C24.3021 98.2358 26.597 97.8594 28.7764 97.2668C31.7471 96.477 34.4918 95.2846 37.2061 94.1118C40.3759 92.7418 43.6475 91.3239 47.3355 90.4644C47.999 90.315 48.6436 90.1786 49.2678 90.0626C57.6619 88.5228 63.0504 90.4717 69.7571 95.4297V90.447C63.453 86.302 57.5253 84.5642 49.2642 85.9205C48.3427 86.0656 47.3864 86.2541 46.4032 86.4862C42.3526 87.4291 38.9036 88.9188 35.571 90.3578C33.2354 91.3732 31.0226 92.3349 28.7764 93.0297C25.5724 94.0248 22.2804 94.4955 18.4013 93.8616C14.6249 93.2446 11.2535 92.4205 8.28711 91.3891Z" fill="#FFC94D"/>
<path fill-rule="evenodd" clip-rule="evenodd" d="M9.00997 98.8806L24.4073 104.542C24.4764 104.565 24.5403 104.602 24.595 104.65C24.6497 104.698 24.6941 104.757 24.7257 104.823C24.7573 104.888 24.7753 104.959 24.7788 105.032C24.7823 105.105 24.7711 105.178 24.7459 105.246C24.7206 105.314 24.682 105.377 24.6321 105.43C24.5822 105.483 24.5221 105.526 24.4554 105.555C24.3888 105.585 24.3168 105.601 24.2439 105.602C24.1709 105.603 24.0985 105.59 24.0308 105.563L8.27601 99.7698C8.17187 99.7315 8.08195 99.6623 8.01831 99.5716C7.95466 99.4808 7.92034 99.3728 7.91992 99.2621V53.5795C7.9202 53.4917 7.94173 53.4054 7.98268 53.3278C8.02363 53.2501 8.08279 53.1835 8.1551 53.1337C8.22741 53.0838 8.31074 53.0521 8.39797 53.0413C8.4852 53.0306 8.57375 53.041 8.65607 53.0718L29.093 60.7206C29.2178 60.7783 29.3162 60.881 29.3683 61.0081C29.4204 61.1352 29.4224 61.2773 29.3739 61.4058C29.3255 61.5343 29.2301 61.6397 29.107 61.701C28.9838 61.7622 28.842 61.7747 28.71 61.736L9.00924 54.3628V98.8791L9.00997 98.8806Z" fill="#529E66"/>
<path fill-rule="evenodd" clip-rule="evenodd" d="M69.0178 106.021V99.2613C69.0178 99.1171 69.0752 98.9787 69.1774 98.8767C69.2796 98.7747 69.4183 98.7174 69.5628 98.7174C69.7074 98.7174 69.846 98.7747 69.9482 98.8767C70.0504 98.9787 70.1078 99.1171 70.1078 99.2613V106.804C70.1074 106.892 70.0859 106.978 70.0451 107.055C70.0042 107.133 69.9453 107.199 69.8733 107.249C69.8013 107.299 69.7183 107.33 69.6313 107.341C69.5444 107.352 69.4561 107.342 69.3739 107.312L49.4413 99.9438L31.1336 106.409C31.0658 106.434 30.9936 106.446 30.9214 106.443C30.8491 106.44 30.7782 106.423 30.7126 106.392C30.6471 106.361 30.5884 106.318 30.5398 106.265C30.4912 106.211 30.4537 106.149 30.4296 106.081C30.4055 106.012 30.3952 105.94 30.3993 105.868C30.4034 105.796 30.4219 105.726 30.4536 105.661C30.4853 105.596 30.5296 105.538 30.584 105.49C30.6383 105.443 30.7016 105.406 30.7702 105.383L49.2632 98.8559C49.3832 98.8128 49.5146 98.8128 49.6346 98.8559L69.0178 106.021Z" fill="#529E66"/>
<path fill-rule="evenodd" clip-rule="evenodd" d="M49.5467 54.1575L47.9233 54.7298C47.8557 54.7536 47.7842 54.7639 47.7127 54.7601C47.6412 54.7563 47.5711 54.7385 47.5065 54.7077C47.4419 54.6769 47.384 54.6336 47.3361 54.5805C47.2882 54.5274 47.2513 54.4653 47.2274 54.3979C47.2036 54.3306 47.1933 54.2591 47.1971 54.1878C47.2009 54.1164 47.2187 54.0465 47.2496 53.982C47.2804 53.9175 47.3237 53.8597 47.377 53.8119C47.4302 53.7641 47.4924 53.7273 47.5599 53.7035L49.3694 53.066C49.4893 53.0225 49.6208 53.0225 49.7407 53.066L69.7518 60.5023C69.8557 60.5407 69.9454 60.61 70.0088 60.7007C70.0722 60.7914 70.1063 60.8994 70.1065 61.01V87.4683C70.1065 87.6125 70.049 87.7509 69.9468 87.8529C69.8446 87.9549 69.706 88.0122 69.5614 88.0122C69.4169 88.0122 69.2783 87.9549 69.176 87.8529C69.0738 87.7509 69.0164 87.6125 69.0164 87.4683V61.3936L49.546 54.1575H49.5467Z" fill="#529E66"/>
<path d="M152.552 15.1613V124.078C152.552 128.686 148.773 132.455 144.157 132.455H85.3948C80.7788 132.455 77 128.684 77 124.078V15.1613C77 10.5536 80.7788 6.78429 85.3948 6.78429H144.157C148.774 6.78429 152.552 10.5558 152.552 15.162V15.1613Z" fill="white"/>
<path d="M109.074 97.8952C109.615 96.9502 110.398 96.1666 111.342 95.625C112.307 95.0797 113.396 94.7931 114.503 94.7931C115.611 94.7931 116.7 95.0797 117.664 95.625C118.608 96.1666 119.391 96.9502 119.932 97.8952C120.616 99.0951 120.886 100.487 120.702 101.856C120.517 103.225 119.888 104.495 118.911 105.471C117.935 106.446 116.664 107.074 115.296 107.255C113.928 107.437 112.538 107.164 111.341 106.477C110.391 105.931 109.603 105.142 109.058 104.19C108.514 103.239 108.232 102.159 108.242 101.063C108.231 99.9514 108.518 98.8574 109.074 97.8952ZM111.659 102.708C111.95 103.204 112.366 103.615 112.865 103.901C113.364 104.187 113.928 104.337 114.503 104.337C115.078 104.337 115.643 104.187 116.142 103.901C116.641 103.615 117.056 103.204 117.347 102.708C117.639 102.209 117.79 101.641 117.785 101.063C117.785 100.192 117.439 99.3569 116.824 98.7412C116.208 98.1254 115.374 97.7795 114.504 97.7795C113.634 97.7795 112.8 98.1254 112.184 98.7412C111.569 99.3569 111.224 100.192 111.224 101.063C111.218 101.64 111.369 102.209 111.659 102.708Z" fill="#FFC94D"/>
<path d="M131 95.091C130.998 95.1709 130.982 95.2496 130.953 95.3231L127.275 102.526V106.854C127.281 106.975 127.246 107.095 127.175 107.188C127.137 107.23 127.091 107.262 127.04 107.283C126.99 107.303 126.936 107.312 126.883 107.308H124.893C124.838 107.314 124.782 107.307 124.73 107.286C124.678 107.265 124.63 107.232 124.591 107.189C124.552 107.145 124.522 107.092 124.504 107.035C124.485 106.977 124.479 106.915 124.484 106.854V102.502L120.813 95.3167C120.783 95.2433 120.765 95.1647 120.759 95.0845C120.757 95.0435 120.765 95.0026 120.78 94.9653C120.796 94.928 120.819 94.8954 120.848 94.8702C120.922 94.8147 121.01 94.7879 121.098 94.7939H123.422C123.525 94.7958 123.624 94.8352 123.705 94.9059C123.798 94.985 123.873 95.0873 123.924 95.2046L125.879 99.3117L127.838 95.1965C127.889 95.08 127.964 94.9787 128.058 94.9011C128.142 94.8313 128.245 94.7937 128.35 94.7939H130.664C130.885 94.7939 131 94.8913 131 95.091Z" fill="#F59398"/>
<path d="M100.276 106.172C101.533 106.172 102.552 105.153 102.552 103.897C102.552 102.64 101.533 101.621 100.276 101.621C99.0189 101.621 98 102.64 98 103.897C98 105.153 99.0189 106.172 100.276 106.172Z" fill="#ABCA74"/>
<path d="M105 90C106.105 90 107 89.1046 107 88C107 86.8954 106.105 86 105 86C103.895 86 103 86.8954 103 88C103 89.1046 103.895 90 105 90Z" fill="#ABCA74"/>
<path d="M103.689 91.3793H107.103V103.431C107.103 104.158 106.768 104.856 106.172 105.37C105.576 105.884 104.768 106.172 103.925 106.172H103.689V91.3793Z" fill="#ABCA74"/>
<path d="M152.776 119.888V124.078C152.776 128.686 148.997 132.455 144.381 132.455H85.6185C82.2299 132.455 79.2918 130.425 77.9692 127.523C77.4756 126.442 77.2213 125.267 77.2236 124.078V119.889L152.776 119.888Z" fill="#ABCA74"/>
<path d="M152.776 15.1613V19.3505H77.2236V15.1613C77.2236 10.5536 81.0025 6.78355 85.6192 6.78355H144.381C148.997 6.78355 152.776 10.555 152.776 15.1613Z" fill="#ABCA74"/>
<path fill-rule="evenodd" clip-rule="evenodd" d="M105.061 14.1466H115.064C115.186 14.1515 115.308 14.1317 115.423 14.0883C115.537 14.045 115.642 13.979 115.73 13.8943C115.818 13.8096 115.888 13.708 115.936 13.5956C115.984 13.4832 116.009 13.3622 116.009 13.24C116.009 13.1178 115.984 12.9969 115.936 12.8844C115.888 12.772 115.818 12.6704 115.73 12.5857C115.642 12.5011 115.537 12.4351 115.423 12.3917C115.308 12.3484 115.186 12.3285 115.064 12.3334H105.061C104.938 12.3285 104.816 12.3484 104.702 12.3917C104.587 12.4351 104.483 12.5011 104.394 12.5857C104.306 12.6704 104.236 12.772 104.188 12.8844C104.14 12.9969 104.115 13.1178 104.115 13.24C104.115 13.3622 104.14 13.4832 104.188 13.5956C104.236 13.708 104.306 13.8096 104.394 13.8943C104.483 13.979 104.587 14.045 104.702 14.0883C104.816 14.1317 104.938 14.1515 105.061 14.1466Z" fill="white"/>
<path fill-rule="evenodd" clip-rule="evenodd" d="M122.035 14.1466H123.852C123.974 14.1515 124.096 14.1317 124.211 14.0883C124.325 14.045 124.43 13.979 124.518 13.8943C124.607 13.8096 124.677 13.708 124.725 13.5956C124.773 13.4832 124.797 13.3622 124.797 13.24C124.797 13.1178 124.773 12.9969 124.725 12.8844C124.677 12.772 124.607 12.6704 124.518 12.5857C124.43 12.5011 124.325 12.4351 124.211 12.3917C124.096 12.3484 123.974 12.3285 123.852 12.3334H122.035C121.913 12.3285 121.791 12.3484 121.676 12.3917C121.562 12.4351 121.457 12.5011 121.369 12.5857C121.281 12.6704 121.211 12.772 121.163 12.8844C121.115 12.9969 121.09 13.1178 121.09 13.24C121.09 13.3622 121.115 13.4832 121.163 13.5956C121.211 13.708 121.281 13.8096 121.369 13.8943C121.457 13.979 121.562 14.045 121.676 14.0883C121.791 14.1317 121.913 14.1515 122.035 14.1466Z" fill="white"/>
<path fill-rule="evenodd" clip-rule="evenodd" d="M110.803 127.128H119.198C119.43 127.115 119.648 127.014 119.807 126.845C119.967 126.677 120.056 126.453 120.056 126.222C120.056 125.99 119.967 125.766 119.807 125.598C119.648 125.429 119.43 125.328 119.198 125.315H110.803C110.571 125.328 110.353 125.429 110.193 125.598C110.033 125.766 109.944 125.99 109.944 126.222C109.944 126.453 110.033 126.677 110.193 126.845C110.353 127.014 110.571 127.115 110.803 127.128Z" fill="white"/>
<path fill-rule="evenodd" clip-rule="evenodd" d="M152.231 116.91V124.078C152.231 128.387 148.697 131.911 144.382 131.911H92.2628C92.1182 131.911 91.9796 131.969 91.8774 132.071C91.7752 132.173 91.7178 132.311 91.7178 132.455C91.7178 132.6 91.7752 132.738 91.8774 132.84C91.9796 132.942 92.1182 132.999 92.2628 132.999H144.381C149.297 132.999 153.319 128.986 153.319 124.078V116.91C153.319 116.766 153.262 116.628 153.16 116.526C153.057 116.424 152.919 116.366 152.774 116.366C152.63 116.366 152.491 116.424 152.389 116.526C152.287 116.628 152.229 116.766 152.229 116.91L152.231 116.91Z" fill="#529E66"/>
<path fill-rule="evenodd" clip-rule="evenodd" d="M78 119.511V75.4887C78 75.3591 77.9473 75.2348 77.8535 75.1431C77.7598 75.0515 77.6326 75 77.5 75C77.3674 75 77.2402 75.0515 77.1464 75.1431C77.0527 75.2348 77 75.3591 77 75.4887V119.511C77 119.641 77.0527 119.765 77.1464 119.857C77.2402 119.949 77.3674 120 77.5 120C77.6326 120 77.7598 119.949 77.8535 119.857C77.9473 119.765 78 119.641 78 119.511Z" fill="#529E66"/>
<path fill-rule="evenodd" clip-rule="evenodd" d="M77.7695 42.0533V15.1613C77.7695 10.8524 81.3034 7.32825 85.6179 7.32825H144.379C148.697 7.32825 152.228 10.8531 152.228 15.1613V43.3218C152.228 43.4661 152.285 43.6044 152.387 43.7064C152.49 43.8085 152.628 43.8658 152.773 43.8658C152.917 43.8658 153.056 43.8085 153.158 43.7064C153.26 43.6044 153.318 43.4661 153.318 43.3218V15.1613C153.318 10.254 149.295 6.24033 144.379 6.24033H85.62C80.7039 6.24033 76.6816 10.254 76.6816 15.1613V42.0533C76.6816 42.1976 76.7391 42.3359 76.8413 42.4379C76.9435 42.5399 77.0821 42.5973 77.2267 42.5973C77.3712 42.5973 77.5098 42.5399 77.6121 42.4379C77.7143 42.3359 77.7717 42.1976 77.7717 42.0533H77.7695Z" fill="#529E66"/>
<path d="M185.239 72.9706H177.947V77.7169H185.239V72.9706Z" fill="#ABCA74"/>
<path d="M185.239 92.588H177.947V97.6505H185.239V92.588Z" fill="#ABCA74"/>
<path d="M185.239 112.522H177.947V132.139H185.239V112.522Z" fill="#ABCA74"/>
<path d="M199.824 92.5873H161.462V77.719H199.824L206.899 85.1546L199.824 92.5873Z" fill="#FFC94D"/>
<path fill-rule="evenodd" clip-rule="evenodd" d="M162.006 92.0433H183.024C183.169 92.0433 183.308 92.1006 183.41 92.2027C183.512 92.3047 183.569 92.443 183.569 92.5873C183.569 92.7316 183.512 92.8699 183.41 92.9719C183.308 93.0739 183.169 93.1313 183.024 93.1313H161.461C161.316 93.1313 161.178 93.0739 161.076 92.9719C160.973 92.8699 160.916 92.7316 160.916 92.5873V77.719C160.916 77.5748 160.973 77.4364 161.076 77.3344C161.178 77.2324 161.316 77.1751 161.461 77.1751H166.073C166.217 77.1751 166.356 77.2324 166.458 77.3344C166.56 77.4364 166.618 77.5748 166.618 77.719C166.618 77.8633 166.56 78.0016 166.458 78.1037C166.356 78.2057 166.217 78.263 166.073 78.263H162.003L162.006 92.0433Z" fill="#529E66"/>
<path fill-rule="evenodd" clip-rule="evenodd" d="M199.588 78.2601H175.994C175.85 78.2601 175.711 78.2028 175.609 78.1008C175.507 77.9987 175.449 77.8604 175.449 77.7161C175.449 77.5719 175.507 77.4335 175.609 77.3315C175.711 77.2295 175.85 77.1722 175.994 77.1722H199.823C199.897 77.1723 199.971 77.1874 200.038 77.2166C200.106 77.2458 200.168 77.2884 200.219 77.3419L207.291 84.7775C207.387 84.8785 207.441 85.0126 207.441 85.1521C207.441 85.2915 207.387 85.4257 207.291 85.5267L201.405 91.7104C201.305 91.8151 201.168 91.876 201.023 91.8797C200.879 91.8834 200.739 91.8297 200.634 91.7304C200.529 91.631 200.468 91.4942 200.464 91.3499C200.461 91.2057 200.515 91.0659 200.614 90.9612L206.144 85.1495L199.586 78.2594L199.588 78.2601Z" fill="#529E66"/>
<path fill-rule="evenodd" clip-rule="evenodd" d="M184.712 73.5269H179.879C179.734 73.5269 179.596 73.4696 179.494 73.3676C179.391 73.2655 179.334 73.1272 179.334 72.9829C179.334 72.8387 179.391 72.7003 179.494 72.5983C179.596 72.4963 179.734 72.439 179.879 72.439H185.257C185.401 72.439 185.54 72.4963 185.642 72.5983C185.744 72.7003 185.802 72.8387 185.802 72.9829V77.1896C185.802 77.3338 185.744 77.4722 185.642 77.5742C185.54 77.6762 185.401 77.7335 185.257 77.7335C185.112 77.7335 184.973 77.6762 184.871 77.5742C184.769 77.4722 184.712 77.3338 184.712 77.1896V73.5269Z" fill="#529E66"/>
<path fill-rule="evenodd" clip-rule="evenodd" d="M184.726 95.009V97.4568C184.726 97.6011 184.783 97.7395 184.885 97.8415C184.987 97.9435 185.126 98.0008 185.271 98.0008C185.415 98.0008 185.554 97.9435 185.656 97.8415C185.758 97.7395 185.816 97.6011 185.816 97.4568V95.009C185.816 94.8647 185.758 94.7264 185.656 94.6244C185.554 94.5224 185.415 94.465 185.271 94.465C185.126 94.465 184.987 94.5224 184.885 94.6244C184.783 94.7264 184.726 94.8647 184.726 95.009Z" fill="#529E66"/>
<path d="M168.045 112.522H201.09V97.6534H168.045L160.97 105.089L168.045 112.522Z" fill="#FFC94D"/>
<path fill-rule="evenodd" clip-rule="evenodd" d="M200.544 111.978V109.43C200.544 109.286 200.602 109.147 200.704 109.045C200.806 108.943 200.945 108.886 201.09 108.886C201.234 108.886 201.373 108.943 201.475 109.045C201.577 109.147 201.635 109.286 201.635 109.43V112.522C201.635 112.593 201.621 112.664 201.593 112.73C201.566 112.796 201.526 112.856 201.475 112.907C201.424 112.957 201.364 112.997 201.298 113.024C201.232 113.052 201.161 113.066 201.09 113.066H168.044C167.971 113.066 167.897 113.051 167.83 113.022C167.762 112.993 167.701 112.95 167.65 112.897L160.575 105.461C160.478 105.36 160.425 105.226 160.425 105.086C160.425 104.947 160.478 104.813 160.575 104.712L166.36 98.6311C166.459 98.5264 166.597 98.4655 166.741 98.4618C166.886 98.4581 167.026 98.5118 167.131 98.6111C167.235 98.7105 167.296 98.8473 167.3 98.9916C167.304 99.1358 167.25 99.2756 167.151 99.3803L161.721 105.086L168.278 111.976L200.544 111.978Z" fill="#529E66"/>
<path fill-rule="evenodd" clip-rule="evenodd" d="M184.726 112.551V127.375C184.726 127.519 184.783 127.657 184.885 127.759C184.987 127.861 185.126 127.919 185.271 127.919C185.415 127.919 185.554 127.861 185.656 127.759C185.758 127.657 185.816 127.519 185.816 127.375V112.551C185.816 112.407 185.758 112.269 185.656 112.167C185.554 112.065 185.415 112.007 185.271 112.007C185.126 112.007 184.987 112.065 184.885 112.167C184.783 112.269 184.726 112.407 184.726 112.551Z" fill="#529E66"/>
<path fill-rule="evenodd" clip-rule="evenodd" d="M177.594 112.551V132.225C177.594 132.369 177.651 132.507 177.753 132.609C177.856 132.711 177.994 132.769 178.139 132.769C178.283 132.769 178.422 132.711 178.524 132.609C178.626 132.507 178.684 132.369 178.684 132.225V112.551C178.684 112.407 178.626 112.269 178.524 112.167C178.422 112.065 178.283 112.007 178.139 112.007C177.994 112.007 177.856 112.065 177.753 112.167C177.651 112.269 177.594 112.407 177.594 112.551Z" fill="#529E66"/>
<path fill-rule="evenodd" clip-rule="evenodd" d="M200.545 98.1944H179.284C179.14 98.1944 179.001 98.1371 178.899 98.0351C178.797 97.9331 178.739 97.7948 178.739 97.6505C178.739 97.5062 178.797 97.3679 178.899 97.2658C179.001 97.1638 179.14 97.1065 179.284 97.1065H201.09C201.161 97.1064 201.232 97.1204 201.298 97.1477C201.364 97.175 201.425 97.2151 201.475 97.2656C201.526 97.3162 201.566 97.3762 201.593 97.4422C201.621 97.5082 201.635 97.579 201.635 97.6505V103.487C201.635 103.631 201.577 103.769 201.475 103.871C201.373 103.973 201.234 104.031 201.09 104.031C200.945 104.031 200.806 103.973 200.704 103.871C200.602 103.769 200.545 103.631 200.545 103.487V98.1944Z" fill="#529E66"/>
<path d="M182.304 55.5261C193.301 55.5261 202.217 46.6282 202.217 35.652C202.217 24.6758 193.301 15.7778 182.304 15.7778C171.306 15.7778 162.391 24.6758 162.391 35.652C162.391 46.6282 171.306 55.5261 182.304 55.5261Z" fill="#ABCA74"/>
<path fill-rule="evenodd" clip-rule="evenodd" d="M175.825 17.4307C177.904 16.6942 180.095 16.3191 182.302 16.3217C192.991 16.3217 201.669 24.9823 201.669 35.6512C201.67 37.2155 201.481 38.7742 201.106 40.293C201.087 40.363 201.082 40.436 201.092 40.5079C201.101 40.5797 201.125 40.6489 201.162 40.7113C201.199 40.7738 201.248 40.8283 201.306 40.8716C201.365 40.9149 201.431 40.9461 201.501 40.9635C201.572 40.9808 201.645 40.9839 201.717 40.9726C201.789 40.9613 201.857 40.9358 201.919 40.8976C201.981 40.8594 202.034 40.8093 202.076 40.7502C202.118 40.6911 202.148 40.6242 202.164 40.5534C202.56 38.9487 202.76 37.3018 202.759 35.6491C202.759 24.3803 193.592 15.2316 182.302 15.2316C179.971 15.23 177.658 15.6269 175.461 16.4052C175.327 16.4549 175.218 16.5553 175.158 16.6846C175.097 16.8139 175.09 16.9617 175.138 17.0963C175.185 17.2309 175.284 17.3413 175.413 17.4039C175.541 17.4664 175.689 17.4761 175.825 17.4307Z" fill="#529E66"/>
<path fill-rule="evenodd" clip-rule="evenodd" d="M189.481 53.6085C187.198 54.5182 184.762 54.9842 182.303 54.9814C171.614 54.9814 162.936 46.3201 162.936 35.6512C162.929 31.4646 164.292 27.3903 166.817 24.0467C166.904 23.9313 166.941 23.7862 166.92 23.6434C166.9 23.5006 166.823 23.3717 166.708 23.2852C166.592 23.1986 166.447 23.1614 166.304 23.1818C166.161 23.2022 166.032 23.2785 165.945 23.394C163.278 26.9257 161.839 31.2291 161.845 35.6512C161.845 46.9207 171.011 56.0694 182.303 56.0694C184.899 56.0723 187.473 55.5799 189.884 54.6188C190.019 54.5653 190.126 54.4608 190.183 54.3284C190.24 54.1959 190.242 54.0462 190.188 53.9124C190.135 53.7785 190.03 53.6713 189.897 53.6145C189.764 53.5576 189.614 53.5557 189.48 53.6092L189.481 53.6085Z" fill="#529E66"/>
<path d="M182.303 51.7394C173.414 51.7394 166.184 44.5221 166.184 35.6512C166.184 26.7803 173.415 19.563 182.303 19.563C191.191 19.563 198.425 26.7796 198.425 35.6512C198.425 44.5229 191.191 51.7394 182.303 51.7394Z" fill="white"/>
<path d="M188.941 24.1758L188.337 34.2398C188.259 35.5403 187.741 37.0126 186.973 38.3406C186.205 39.6686 185.186 40.8529 184.098 41.5717L175.668 47.1237L176.275 37.0597C176.353 35.7622 176.871 34.292 177.639 32.9612C178.407 31.6324 179.426 30.4495 180.514 29.7322L188.944 24.178L188.941 24.1758Z" fill="#FFC94D"/>
<path d="M188.941 24.1758L188.337 34.2398C188.259 35.5403 187.741 37.0126 186.973 38.3406L177.636 32.9626C178.404 31.6346 179.423 30.451 180.511 29.7344L188.941 24.1794V24.1758Z" fill="#ABCA74"/>
<path d="M183.946 36.597C183.758 36.9213 183.479 37.1829 183.143 37.3486C182.806 37.5143 182.428 37.5768 182.056 37.5281C181.684 37.4794 181.335 37.3217 181.053 37.075C180.771 36.8283 180.568 36.5036 180.471 36.142C180.374 35.7804 180.386 35.3981 180.507 35.0436C180.627 34.689 180.85 34.378 181.148 34.15C181.445 33.9219 181.804 33.787 182.178 33.7623C182.552 33.7377 182.925 33.8243 183.25 34.0114C183.686 34.2623 184.004 34.6757 184.134 35.1605C184.265 35.6454 184.197 36.162 183.946 36.597Z" fill="white"/>
<path d="M140.048 45.7588C139.774 45.7591 139.502 45.7027 139.25 45.5931C138.999 45.4835 138.773 45.3231 138.586 45.122C135.966 42.2875 132.858 39.946 129.408 38.2093C129.174 38.092 128.966 37.9299 128.795 37.7322C128.624 37.5346 128.493 37.3052 128.411 37.0573C128.329 36.8093 128.296 36.5476 128.315 36.2872C128.335 36.0267 128.405 35.7725 128.522 35.5392C128.64 35.3058 128.802 35.0979 129 34.9272C129.198 34.7565 129.428 34.6264 129.677 34.5443C129.925 34.4622 130.187 34.4298 130.448 34.4489C130.709 34.4679 130.964 34.5381 131.198 34.6554C135.073 36.6043 138.566 39.233 141.51 42.4159C141.772 42.6997 141.946 43.0537 142.01 43.4346C142.074 43.8154 142.026 44.2067 141.871 44.5606C141.716 44.9144 141.461 45.2156 141.137 45.4272C140.814 45.6388 140.435 45.7518 140.048 45.7522V45.7588ZM91.4161 45.1176C94.4206 41.8649 98.0666 39.2676 102.125 37.4889C106.184 35.7101 110.567 34.7884 115 34.7816C117.533 34.7711 120.058 35.0779 122.515 35.6947C123.025 35.8204 123.565 35.7397 124.016 35.4703C124.467 35.2009 124.793 34.7646 124.923 34.2564C125.053 33.7482 124.977 33.2092 124.711 32.7569C124.444 32.3046 124.01 31.9755 123.502 31.8413C120.722 31.1429 117.866 30.7945 115 30.8042C110.016 30.8118 105.088 31.8481 100.526 33.8479C95.9628 35.8476 91.8637 38.7677 88.4861 42.4246C88.1316 42.8131 87.9456 43.3258 87.9687 43.8507C87.9919 44.3755 88.2223 44.87 88.6095 45.2258C88.9968 45.5817 89.5095 45.7701 90.0356 45.7498C90.5616 45.7295 91.0582 45.5022 91.4168 45.1176H91.4161ZM98.0966 52.2254C100.112 49.8856 102.594 47.9907 105.384 46.6614C108.175 45.3321 111.212 44.5976 114.302 44.5047C114.829 44.4884 115.328 44.2646 115.69 43.8822C116.053 43.4998 116.248 42.9899 116.235 42.4638C116.204 41.3664 115.259 40.5164 114.185 40.5316C110.541 40.6422 106.96 41.5087 103.669 43.0759C100.379 44.6431 97.4512 46.8767 95.0728 49.6347C94.9021 49.8326 94.7721 50.0621 94.6903 50.3102C94.6084 50.5582 94.5764 50.82 94.5959 51.0804C94.6154 51.3408 94.6861 51.5949 94.8039 51.8281C94.9218 52.0612 95.0846 52.2689 95.2829 52.4393C95.4812 52.6097 95.7112 52.7395 95.9597 52.8211C96.2082 52.9028 96.4705 52.9348 96.7314 52.9154C96.9924 52.8959 97.2469 52.8253 97.4805 52.7077C97.7142 52.5901 97.9223 52.4276 98.093 52.2297L98.0966 52.2254ZM134.716 52.4321C135.116 52.0868 135.362 51.5973 135.4 51.0712C135.439 50.545 135.266 50.0253 134.921 49.626C131.876 46.0996 127.943 43.448 123.529 41.9445C123.028 41.7755 122.48 41.8121 122.006 42.0463C121.532 42.2804 121.17 42.6929 121.001 43.1931C120.832 43.6932 120.868 44.24 121.103 44.7131C121.338 45.1862 121.751 45.547 122.252 45.716C125.994 46.9908 129.326 49.2401 131.905 52.2312C132.076 52.4288 132.285 52.5908 132.519 52.708C132.752 52.8252 133.007 52.8953 133.268 52.9142C133.529 52.9332 133.792 52.9006 134.04 52.8183C134.289 52.7361 134.518 52.6058 134.716 52.435V52.4321ZM127.932 59.7574C128.359 59.4465 128.645 58.9791 128.727 58.4579C128.808 57.9367 128.679 57.4044 128.368 56.9781C126.829 54.8804 124.817 53.1733 122.495 51.9949C120.172 50.8165 117.605 50.1998 115 50.1946C114.753 50.1916 114.506 50.2034 114.26 50.2301C113.74 50.294 113.266 50.561 112.943 50.9727C112.62 51.3843 112.474 51.907 112.536 52.4263C112.661 53.5142 113.636 54.2714 114.741 54.1785C114.827 54.1704 114.913 54.1685 115 54.1727C116.977 54.1765 118.927 54.6446 120.69 55.5391C122.453 56.4337 123.98 57.7296 125.149 59.3222C125.46 59.7482 125.928 60.0333 126.45 60.1149C126.972 60.1965 127.505 60.0679 127.932 59.7574ZM121.851 66.7448C121.851 65.3922 121.449 64.07 120.696 62.9453C119.943 61.8207 118.873 60.9442 117.621 60.4266C116.369 59.909 114.991 59.7736 113.662 60.0376C112.333 60.3015 111.112 60.9529 110.154 61.9094C109.195 62.8658 108.543 64.0844 108.278 65.4111C108.014 66.7377 108.15 68.1127 108.669 69.3623C109.187 70.6119 110.066 71.6799 111.193 72.4313C112.32 73.1826 113.644 73.5836 115 73.5835C116.816 73.5813 118.558 72.86 119.842 71.5778C121.127 70.2956 121.849 68.5572 121.851 66.7441V66.7448ZM117.866 66.7448C117.866 67.3107 117.698 67.8639 117.383 68.3344C117.068 68.8049 116.62 69.1717 116.096 69.3882C115.572 69.6048 114.996 69.6614 114.44 69.551C113.884 69.4406 113.373 69.1681 112.972 68.768C112.571 68.3678 112.298 67.858 112.187 67.303C112.077 66.748 112.133 66.1726 112.35 65.6498C112.567 65.127 112.935 64.6801 113.406 64.3657C113.878 64.0513 114.432 63.8835 114.999 63.8835C115.759 63.8847 116.487 64.1864 117.025 64.7226C117.562 65.2588 117.864 65.9857 117.866 66.7441V66.7448ZM96.7406 63.291L130.367 29.2376C130.561 29.0541 130.716 28.8336 130.823 28.5891C130.93 28.3446 130.987 28.0811 130.99 27.8143C130.992 27.5475 130.941 27.2829 130.84 27.0362C130.738 26.7895 130.587 26.5658 130.397 26.3783C130.207 26.1909 129.981 26.0435 129.733 25.9451C129.484 25.8466 129.218 25.799 128.951 25.8052C128.684 25.8114 128.421 25.8712 128.177 25.981C127.933 26.0908 127.714 26.2485 127.533 26.4445L93.9036 60.4987C93.7106 60.6823 93.5566 60.9028 93.4506 61.147C93.3446 61.3912 93.2888 61.6542 93.2865 61.9203C93.2842 62.1864 93.3355 62.4503 93.4373 62.6962C93.5391 62.9422 93.6893 63.1653 93.8791 63.3522C94.0689 63.5392 94.2944 63.6862 94.5422 63.7845C94.7899 63.8829 95.055 63.9306 95.3216 63.9248C95.5881 63.919 95.8509 63.8599 96.0941 63.7509C96.3374 63.6419 96.5562 63.4853 96.7377 63.2903L96.7406 63.291Z" fill="#FFC94D"/>
</g>
<defs>
<clipPath id="clip0_431_4882">
<rect width="230" height="133" fill="white"/>
</clipPath>
</defs>
</svg>
