<svg width="191" height="97" viewBox="0 0 191 97" fill="none" xmlns="http://www.w3.org/2000/svg">
<path fill-rule="evenodd" clip-rule="evenodd" d="M121.088 13.3557C116.17 9.86308 110.549 7.50207 104.625 6.43988C98.7001 5.37768 92.616 5.64027 86.8033 7.20907C80.9906 8.77786 75.5916 11.6145 70.9884 15.518C66.3853 19.4216 62.6907 24.2966 60.1663 29.7979L50.3904 32.431L27.3234 38.6626L19.0582 40.8861C18.0955 41.1466 17.2748 41.7813 16.7764 42.6508C16.278 43.5202 16.1426 44.5534 16.4 45.5232C16.6621 46.4906 17.293 47.3147 18.1553 47.816C19.0177 48.3173 20.0417 48.4554 21.0047 48.2002L53.0632 39.5403C54.0123 39.3217 55.0087 39.4822 55.8428 39.9881C56.6769 40.494 57.2837 41.3058 57.5358 42.2529C57.7878 43.2 57.6654 44.2087 57.1943 45.0668C56.7232 45.9249 55.9401 46.5657 55.0096 46.8544L2.77478 60.9561C1.81416 61.22 0.995918 61.8553 0.498092 62.7238C0.000266581 63.5922 -0.136861 64.6235 0.11655 65.5932C0.381987 66.5585 1.01345 67.3801 1.87481 67.8808C2.73618 68.3816 3.75845 68.5214 4.72124 68.2702L21.8036 63.6477C22.7528 63.4291 23.7491 63.5896 24.5832 64.0955C25.4173 64.6013 26.0241 65.4132 26.2762 66.3603C26.5282 67.3074 26.4059 68.316 25.9348 69.1742C25.4637 70.0323 24.6806 70.6731 23.7501 70.9618L20.4963 71.8395C19.5357 72.1034 18.7174 72.7388 18.2196 73.6072C17.7218 74.4756 17.5846 75.5069 17.8381 76.4767C18.0968 77.4462 18.727 78.2727 19.5904 78.7746C20.4538 79.2765 21.4796 79.4128 22.4427 79.1536L69.55 66.4417C65.6542 60.7674 63.5714 54.0308 63.5798 47.1324C63.5798 28.3058 78.7303 13.0485 97.425 13.0485C105.658 13.0325 113.612 16.0563 119.78 21.5475L126.317 19.7775C126.8 19.6275 127.309 19.5772 127.812 19.6296C128.315 19.682 128.802 19.8361 129.245 20.0825C129.688 20.329 130.076 20.6628 130.388 21.0639C130.7 21.4651 130.928 21.9255 131.059 22.4175C131.19 22.9095 131.221 23.423 131.15 23.9274C131.079 24.4317 130.908 24.9166 130.648 25.3529C130.387 25.7892 130.041 26.1681 129.631 26.4668C129.222 26.7656 128.756 26.9781 128.263 27.0916L125.358 27.8816C129.223 33.5457 131.285 40.26 131.27 47.1324C131.27 65.9443 116.12 81.2162 97.425 81.2162C89.2252 81.2264 81.3029 78.2255 75.1424 72.7757L45.8003 80.6896C44.8375 80.9501 44.0168 81.5848 43.5184 82.4543C43.02 83.3237 42.8846 84.3569 43.142 85.3268C43.4041 86.2941 44.035 87.1181 44.8973 87.6195C45.7597 88.1208 46.7838 88.2589 47.7467 88.0037L57.2757 85.4291L64.0156 83.6152L73.7915 80.9675C78.7094 84.4601 84.3297 86.8212 90.2543 87.8834C96.179 88.9456 102.263 88.683 108.076 87.1142C113.888 85.5454 119.288 82.7088 123.891 78.8052C128.494 74.9016 132.188 70.0266 134.713 64.5254L138.766 63.4429L173.482 54.0662L176.126 53.3494C176.602 53.222 177.049 53.0013 177.44 52.7C177.831 52.3986 178.16 52.0225 178.407 51.5932C178.654 51.1638 178.814 50.6897 178.879 50.1978C178.944 49.706 178.911 49.2061 178.784 48.7268C178.525 47.7573 177.895 46.9308 177.032 46.4289C176.168 45.927 175.143 45.7907 174.179 46.0499L137.879 55.8362C136.93 56.0548 135.934 55.8942 135.1 55.3884C134.266 54.8825 133.659 54.0707 133.407 53.1236C133.155 52.1764 133.277 51.1678 133.748 50.3097C134.219 49.4515 135.002 48.8108 135.933 48.522L150.967 44.47C151.928 44.2061 152.746 43.5708 153.244 42.7023C153.742 41.8339 153.879 40.8026 153.625 39.8329C153.36 38.8682 152.728 38.0476 151.866 37.5493C151.004 37.0509 149.982 36.9148 149.021 37.1705L139.869 39.6281C138.92 39.8466 137.924 39.6861 137.09 39.1802C136.256 38.6744 135.649 37.8625 135.397 36.9154C135.145 35.9683 135.267 34.9597 135.738 34.1016C136.209 33.2434 136.992 32.6027 137.923 32.3139L159.45 26.5065C160.413 26.246 161.234 25.6113 161.732 24.7418C162.231 23.8724 162.366 22.8392 162.108 21.8693C161.847 20.9025 161.215 20.0795 160.352 19.5806C159.489 19.0816 158.465 18.9473 157.504 19.207L142.194 23.3322C141.244 23.5507 140.248 23.3902 139.414 22.8844C138.58 22.3785 137.973 21.5667 137.721 20.6195C137.469 19.6724 137.591 18.6638 138.062 17.8057C138.534 16.9475 139.317 16.3068 140.247 16.018L172.073 7.43126C173.034 7.1673 173.852 6.53199 174.35 5.66355C174.848 4.79512 174.985 3.76384 174.731 2.7941C174.466 1.82941 173.834 1.00889 172.972 0.510502C172.11 0.0121098 171.088 -0.123981 170.127 0.131751L143.53 7.2996L125.14 12.2586L121.088 13.3557ZM96.9311 60.5465L93.4014 64.0865L89.8861 60.5465L74.7357 45.2892L81.7807 38.1945L93.4014 49.8971L112.997 30.1636L120.042 37.2583L96.9311 60.5465ZM53.4699 62.9455L43.2146 65.7103C42.7313 65.8602 42.2229 65.9105 41.7198 65.8581C41.2167 65.8057 40.7292 65.6517 40.2866 65.4052C39.8439 65.1588 39.4552 64.825 39.1435 64.4238C38.8319 64.0226 38.6038 63.5623 38.4729 63.0703C38.342 62.5783 38.3109 62.0648 38.3815 61.5604C38.4522 61.056 38.6231 60.5712 38.884 60.1349C39.1449 59.6985 39.4906 59.3197 39.9002 59.0209C40.3099 58.7222 40.7751 58.5097 41.2682 58.3961L51.5234 55.6314C52.4726 55.4128 53.4689 55.5733 54.303 56.0792C55.1371 56.5851 55.744 57.3969 55.996 58.344C56.2481 59.2911 56.1257 60.2997 55.6546 61.1579C55.1835 62.016 54.4004 62.6568 53.4699 62.9455ZM33.1047 84.1126C34.0678 83.8534 35.0937 83.9897 35.957 84.4916C36.8204 84.9936 37.4506 85.82 37.7094 86.7896C37.9668 87.7595 37.8314 88.7926 37.333 89.662C36.8346 90.5315 36.0139 91.1662 35.0512 91.4267L14.8893 96.8685C13.9264 97.1236 12.9023 96.9855 12.0399 96.4842C11.1776 95.9829 10.5467 95.1589 10.2846 94.1915C10.0312 93.2217 10.1683 92.1905 10.6662 91.322C11.164 90.4536 11.9822 89.8183 12.9429 89.5543L33.1047 84.1126ZM159.813 34.2449L167.236 32.2408C168.199 31.9856 169.223 32.1237 170.085 32.625C170.948 33.1264 171.579 33.9504 171.841 34.9178C172.098 35.8876 171.963 36.9208 171.464 37.7902C170.966 38.6597 170.145 39.2944 169.183 39.5549L161.76 41.559C160.797 41.8182 159.771 41.6819 158.908 41.18C158.044 40.678 157.414 39.8516 157.155 38.882C156.906 37.9124 157.045 36.883 157.542 36.0155C158.039 35.1481 158.855 34.5122 159.813 34.2449ZM168.079 16.3545L186.265 11.4394C187.228 11.1842 188.252 11.3223 189.114 11.8236C189.977 12.325 190.607 13.149 190.87 14.1164C191.123 15.0861 190.986 16.1174 190.488 16.9858C189.99 17.8543 189.172 18.4896 188.211 18.7535L170.025 23.654C169.062 23.9132 168.036 23.7769 167.173 23.275C166.309 22.773 165.679 21.9466 165.42 20.977C165.167 20.0092 165.305 18.9798 165.803 18.1137C166.301 17.2476 167.119 16.6152 168.079 16.3545ZM10.0377 43.3144C11.0006 43.0592 12.0247 43.1973 12.887 43.6986C13.7494 44.2 14.3803 45.024 14.6424 45.9914C14.8958 46.9611 14.7587 47.9924 14.2608 48.8608C13.763 49.7292 12.9448 50.3646 11.9841 50.6285L9.04993 51.4331C8.08698 51.6883 7.06292 51.5502 6.20057 51.0488C5.33821 50.5475 4.70735 49.7235 4.44525 48.7561C4.18784 47.7862 4.32321 46.7531 4.82162 45.8836C5.32003 45.0142 6.14073 44.3795 7.10347 44.1189L10.0377 43.3144Z" fill="url(#paint0_linear_1491_4966)"/>
<defs>
<linearGradient id="paint0_linear_1491_4966" x1="60.4365" y1="-91.9049" x2="108.433" y2="85.9685" gradientUnits="userSpaceOnUse">
<stop stop-color="#FAD007"/>
<stop offset="1" stop-color="#449A45"/>
</linearGradient>
</defs>
</svg>
