<svg width="30" height="30" viewBox="0 0 30 30" fill="none" xmlns="http://www.w3.org/2000/svg">
<g clip-path="url(#clip0_280_2947)">
<path d="M19.3126 15.0917L13.6208 20.7835L10.6883 17.8511C10.2959 17.4587 9.66028 17.4587 9.26791 17.8511C8.87554 18.2434 8.87554 18.8791 9.26791 19.2714L12.9106 22.9141C13.1067 23.1103 13.3637 23.2084 13.6208 23.2084C13.8778 23.2084 14.1348 23.1103 14.3309 22.9141L20.7329 16.5121C21.1253 16.1197 21.1253 15.4841 20.7329 15.0917C20.3406 14.6993 19.7049 14.6993 19.3126 15.0917Z" fill="#ABCA74"/>
<path d="M24.0402 2.90621H22.5335V1.94196C22.5335 1.38725 22.0837 0.9375 21.529 0.9375C20.9743 0.9375 20.5246 1.38725 20.5246 1.94196V2.90621H9.47545V1.94196C9.47545 1.38725 9.02569 0.9375 8.47098 0.9375C7.91627 0.9375 7.46652 1.38725 7.46652 1.94196V2.90621H5.95982C3.19068 2.90621 0.9375 5.15939 0.9375 7.92853V24.0402C0.9375 26.8093 3.19068 29.0625 5.95982 29.0625H24.0402C26.8093 29.0625 29.0625 26.8093 29.0625 24.0402V7.92853C29.0625 5.15939 26.8093 2.90621 24.0402 2.90621ZM2.94643 7.92853C2.94643 6.26685 4.29814 4.91514 5.95982 4.91514H7.46652V5.8789C7.46652 6.43361 7.91627 6.88336 8.47098 6.88336C9.02569 6.88336 9.47545 6.43361 9.47545 5.8789V4.91514H20.5246V5.8789C20.5246 6.43361 20.9743 6.88336 21.529 6.88336C22.0837 6.88336 22.5335 6.43361 22.5335 5.8789V4.91514H24.0402C25.7019 4.91514 27.0536 6.26685 27.0536 7.92853V8.94281H2.94643V7.92853ZM24.0402 27.0536H5.95982C4.29814 27.0536 2.94643 25.7019 2.94643 24.0402V10.9517H27.0536V24.0402C27.0536 25.7019 25.7019 27.0536 24.0402 27.0536Z" fill="#ABCA74"/>
</g>
<defs>
<clipPath id="clip0_280_2947">
<rect width="30" height="30" fill="white"/>
</clipPath>
</defs>
</svg>
