<svg width="18" height="18" viewBox="0 0 18 18" fill="none" xmlns="http://www.w3.org/2000/svg">
<g clip-path="url(#clip0_184_1919)">
<path d="M15.7508 2.81152H4.50473C3.88363 2.81152 3.38013 3.31503 3.38013 3.93613C3.38013 4.55723 3.88363 5.06073 4.50473 5.06073H15.7508C16.3719 5.06073 16.8754 4.55723 16.8754 3.93613C16.8754 3.31503 16.3719 2.81152 15.7508 2.81152Z" fill="#529E66"/>
<path d="M2.25551 3.93609C2.25424 3.63832 2.13493 3.3532 1.92375 3.14325C1.48512 2.70722 0.776689 2.70722 0.338058 3.14325C0.126843 3.3532 0.00752958 3.63832 0.00629954 3.93609C-0.00209985 4.00895 -0.00209985 4.08254 0.00629954 4.15539C0.0190216 4.22866 0.0397565 4.30032 0.0681528 4.36906C0.0983414 4.43566 0.134083 4.49962 0.17499 4.56025C0.215371 4.6233 0.262499 4.68174 0.315566 4.73456C0.366735 4.78552 0.423282 4.83079 0.484257 4.86951C0.543474 4.91264 0.607682 4.94852 0.675439 4.97635C0.74998 5.01501 0.82944 5.04341 0.911606 5.0607C0.98446 5.06885 1.05805 5.06885 1.1309 5.0607C1.42787 5.06094 1.71289 4.9437 1.92375 4.73456C1.97682 4.68174 2.02395 4.6233 2.06433 4.56025C2.10523 4.49962 2.14097 4.43566 2.17116 4.36906C2.20705 4.30117 2.23534 4.22951 2.25551 4.15539C2.26391 4.08254 2.26391 4.00895 2.25551 3.93609Z" fill="#529E66"/>
<path d="M2.25556 8.99682C2.26392 8.92397 2.26392 8.85038 2.25556 8.77752C2.23612 8.70495 2.2078 8.63509 2.17121 8.56947C2.14225 8.50048 2.10644 8.43456 2.06437 8.37267C2.0254 8.31032 1.9781 8.25356 1.9238 8.20398C1.48517 7.76795 0.776737 7.76795 0.338106 8.20398C0.126891 8.41393 0.00757769 8.69905 0.00634766 8.99682C0.00852658 9.14502 0.0370986 9.29161 0.090693 9.42979C0.118878 9.49632 0.152757 9.56028 0.191907 9.62098C0.234678 9.68209 0.283668 9.73864 0.338106 9.78967C0.3878 9.84386 0.444522 9.89116 0.506797 9.93024C0.566014 9.9734 0.630187 10.0093 0.69798 10.0371C0.766545 10.0659 0.838274 10.0867 0.911654 10.0989C0.983594 10.1151 1.05722 10.1226 1.13095 10.1214C1.20381 10.1298 1.2774 10.1298 1.35025 10.1214C1.4218 10.1092 1.49167 10.0884 1.5583 10.0596C1.62792 10.0319 1.69399 9.99607 1.75511 9.95274C1.81738 9.91366 1.87411 9.86635 1.9238 9.81216C1.97799 9.76247 2.02529 9.70574 2.06437 9.64347C2.1076 9.58429 2.14348 9.52011 2.17121 9.45229C2.20962 9.37764 2.23799 9.29822 2.25556 9.21612C2.2642 9.14327 2.2642 9.06968 2.25556 8.99682Z" fill="#529E66"/>
<path d="M2.25563 14.0576C2.26396 13.9847 2.26396 13.9111 2.25563 13.8383C2.23619 13.7639 2.20787 13.6922 2.17128 13.6246C2.14109 13.558 2.10535 13.494 2.06444 13.4334C2.02536 13.3711 1.97806 13.3144 1.92387 13.2647C1.48524 12.8287 0.776806 12.8287 0.338175 13.2647C0.283983 13.3144 0.236679 13.3711 0.197599 13.4334C0.156692 13.494 0.120951 13.558 0.0907619 13.6246C0.0615925 13.693 0.0408225 13.7648 0.0289087 13.8383C0.0130588 13.9103 0.005538 13.9838 0.00641659 14.0576C0.00768177 14.3553 0.126995 14.6404 0.338175 14.8504C0.387868 14.9046 0.444591 14.9519 0.506866 14.991C0.566083 15.0341 0.630256 15.07 0.698049 15.0978C0.766614 15.1267 0.838343 15.1474 0.911723 15.1597C0.983663 15.1758 1.05729 15.1834 1.13102 15.1822C1.20387 15.1906 1.27747 15.1906 1.35032 15.1822C1.42187 15.1699 1.49174 15.1491 1.55837 15.1203C1.62799 15.0927 1.69406 15.0568 1.75518 15.0135C1.81745 14.9744 1.87417 14.9271 1.92387 14.8729C1.97806 14.8232 2.02536 14.7665 2.06444 14.7042C2.10771 14.6451 2.14359 14.5808 2.17128 14.513C2.20966 14.4383 2.23802 14.3589 2.25563 14.2768C2.26427 14.204 2.26427 14.1304 2.25563 14.0576Z" fill="#529E66"/>
<path d="M16.8754 7.87225H4.50473C3.88363 7.87225 3.38013 8.37576 3.38013 8.99686C3.38013 9.61796 3.88363 10.1215 4.50473 10.1215H16.8754C17.4965 10.1215 18 9.61796 18 8.99686C18 8.37576 17.4965 7.87225 16.8754 7.87225Z" fill="#529E66"/>
<path d="M11.8147 12.933H4.50473C3.88363 12.933 3.38013 13.4365 3.38013 14.0576C3.38013 14.6787 3.88363 15.1822 4.50473 15.1822H11.8147C12.4358 15.1822 12.9393 14.6787 12.9393 14.0576C12.9393 13.4365 12.4358 12.933 11.8147 12.933Z" fill="#529E66"/>
</g>
<defs>
<clipPath id="clip0_184_1919">
<rect width="18" height="18" fill="white"/>
</clipPath>
</defs>
</svg>
