<svg width="14" height="14" viewBox="0 0 14 14" fill="none" xmlns="http://www.w3.org/2000/svg">
<g clip-path="url(#clip0_173_22428)">
<path d="M6.99999 0C4.68999 0 2.79999 1.89 2.79999 4.2C2.79999 6.51 6.99999 11.9 6.99999 11.9C6.99999 11.9 11.2 6.51 11.2 4.2C11.2 1.89 9.30999 0 6.99999 0ZM6.99999 5.6C6.22999 5.6 5.59999 4.97 5.59999 4.2C5.59999 3.43 6.22999 2.8 6.99999 2.8C7.76999 2.8 8.39999 3.43 8.39999 4.2C8.39999 4.97 7.76999 5.6 6.99999 5.6Z" fill="white"/>
<path d="M11.41 7.77001C11.2 8.19001 10.99 8.61001 10.71 9.03001C11.9 9.45001 12.6 10.01 12.6 10.5C12.6 11.34 10.36 12.6 7 12.6C3.64 12.6 1.4 11.34 1.4 10.5C1.4 10.01 2.1 9.45001 3.29 8.96001C3.01 8.54001 2.8 8.12001 2.59 7.70001C0.98 8.40001 0 9.38001 0 10.5C0 12.46 2.94 14 6.86 14C10.36 14 14 12.81 14 10.5C14 9.38001 13.02 8.40001 11.41 7.77001Z" fill="white"/>
</g>
<defs>
<clipPath id="clip0_173_22428">
<rect width="14" height="14" fill="white"/>
</clipPath>
</defs>
</svg>
