<svg width="82" height="55" viewBox="0 0 82 55" fill="none" xmlns="http://www.w3.org/2000/svg">
<g clip-path="url(#clip0_1_4)">
<path d="M4.41088 51.4346C4.58283 51.6092 4.71765 51.8192 4.80665 52.0512C4.9013 52.2902 4.94908 52.5464 4.94718 52.8048C4.95613 53.191 4.865 53.5727 4.68333 53.9098C4.50613 54.2213 4.24212 54.4695 3.92619 54.6217C3.55607 54.7948 3.15325 54.8793 2.74747 54.869H0.13765C0.118901 54.872 0.0997235 54.8704 0.081679 54.8643C0.0636345 54.8582 0.0472367 54.8478 0.0338174 54.8338C0.020398 54.8199 0.0103362 54.8029 0.00445797 54.7841C-0.00142022 54.7654 -0.00295032 54.7455 -1.00491e-05 54.726V47.7977C-0.00295032 47.7783 -0.00142022 47.7584 0.00445797 47.7396C0.0103362 47.7209 0.020398 47.7038 0.0338174 47.6899C0.0472367 47.676 0.0636345 47.6655 0.081679 47.6594C0.0997235 47.6533 0.118901 47.6517 0.13765 47.6548H2.53811C2.92296 47.6446 3.30512 47.724 3.65661 47.8871C3.95573 48.0312 4.20502 48.2672 4.37072 48.5633C4.54289 48.8799 4.62912 49.2392 4.62023 49.6028C4.62089 49.9049 4.54471 50.2019 4.3994 50.4636C4.26649 50.7147 4.06755 50.9213 3.82581 51.0593C4.04553 51.1371 4.24552 51.2654 4.41088 51.4346ZM1.064 48.6586V50.684H2.54098C2.72451 50.6887 2.90614 50.6446 3.06868 50.5559C3.21797 50.4763 3.34158 50.3531 3.42431 50.2015C3.51022 50.0392 3.55373 49.8564 3.55049 49.6713C3.55492 49.5346 3.53168 49.3986 3.48228 49.2718C3.43287 49.1451 3.35841 49.0305 3.2637 48.9356C3.16509 48.8412 3.0494 48.7681 2.92337 48.7206C2.79733 48.673 2.66345 48.6519 2.52951 48.6586H1.064ZM3.34114 53.7222C3.5078 53.6308 3.6453 53.4911 3.73691 53.3201C3.83301 53.1377 3.88145 52.9323 3.87744 52.7244C3.88241 52.5163 3.8339 52.3107 3.73691 52.1286C3.64676 51.9579 3.50872 51.8198 3.34114 51.7325C3.15681 51.6377 2.95311 51.5907 2.74747 51.5955H1.064V53.8711H2.74747C2.95397 53.8745 3.15801 53.8243 3.34114 53.7252V53.7222Z" fill="#529E66"/>
<path d="M15.2746 49.3913C15.5924 48.8258 16.0473 48.3566 16.594 48.0306C17.1407 47.7045 17.7602 47.5329 18.3906 47.5329C19.021 47.5329 19.6405 47.7045 20.1872 48.0306C20.7339 48.3566 21.1888 48.8258 21.5066 49.3913C21.8187 49.9663 21.9827 50.6152 21.9827 51.2753C21.9827 51.9353 21.8187 52.5842 21.5066 53.1592C21.1943 53.7195 20.7439 54.1832 20.2017 54.5026C19.6486 54.8267 19.0243 54.9971 18.3892 54.9971C17.7541 54.9971 17.1297 54.8267 16.5766 54.5026C16.0353 54.1831 15.5858 53.7194 15.2746 53.1592C14.9606 52.5849 14.7955 51.9357 14.7955 51.2753C14.7955 50.6148 14.9606 49.9656 15.2746 49.3913ZM16.2038 52.5992C16.4206 52.9916 16.7345 53.3166 17.1129 53.5405C17.4958 53.7693 17.9298 53.8895 18.3715 53.889C18.8132 53.8885 19.2471 53.7673 19.6294 53.5377C20.0118 53.308 20.3293 52.9779 20.55 52.5806C20.7707 52.1832 20.8869 51.7325 20.8869 51.2738C20.8869 50.815 20.7707 50.3643 20.55 49.967C20.3293 49.5696 20.0118 49.2395 19.6294 49.0099C19.2471 48.7802 18.8132 48.659 18.3715 48.6586C17.9298 48.6581 17.4958 48.7782 17.1129 49.007C16.7333 49.2334 16.4193 49.5616 16.2038 49.9572C15.9811 50.3592 15.8662 50.8159 15.8711 51.2797C15.8654 51.7427 15.9804 52.1986 16.2038 52.5992Z" fill="#529E66"/>
<path d="M32.3044 49.3913C32.5426 48.9663 32.8591 48.5942 33.2358 48.2962C33.6125 47.9983 34.0419 47.7803 34.4997 47.6547C34.9575 47.5291 35.4347 47.4985 35.9039 47.5644C36.3731 47.6303 36.8252 47.7916 37.2344 48.039C37.6436 48.2864 38.0019 48.6151 38.2888 49.0063C38.5757 49.3975 38.7855 49.8436 38.9064 50.3191C39.0274 50.7945 39.0569 51.29 38.9934 51.7774C38.9299 52.2647 38.7747 52.7342 38.5364 53.1592C38.2252 53.7194 37.7758 54.1831 37.2344 54.5026C36.5472 54.9135 35.7488 55.0778 34.9627 54.9702C34.1766 54.8626 33.4465 54.489 32.8853 53.9072C32.3241 53.3254 31.9631 52.5677 31.8581 51.7515C31.7531 50.9352 31.91 50.1057 32.3044 49.3913ZM33.2336 52.5993C33.4514 52.9918 33.7663 53.3168 34.1456 53.5405C34.5285 53.7693 34.9625 53.8895 35.4042 53.889C35.8459 53.8885 36.2797 53.7673 36.6621 53.5377C37.0445 53.308 37.3619 52.9779 37.5827 52.5806C37.8034 52.1832 37.9196 51.7325 37.9196 51.2738C37.9196 50.815 37.8034 50.3644 37.5827 49.967C37.3619 49.5696 37.0445 49.2395 36.6621 49.0099C36.2797 48.7802 35.8459 48.6591 35.4042 48.6586C34.9625 48.6581 34.5285 48.7783 34.1456 49.0071C33.7652 49.2333 33.4503 49.5615 33.2336 49.9572C33.0122 50.3598 32.8974 50.8161 32.9009 51.2797C32.8967 51.7425 33.0115 52.1981 33.2336 52.5993Z" fill="#529E66"/>
<path d="M55.2795 54.7557C55.2802 54.7719 55.2775 54.788 55.2715 54.8029C55.2656 54.8178 55.2565 54.8312 55.245 54.8421C55.2174 54.8649 55.1828 54.8765 55.1475 54.8749H54.2068C54.1714 54.8748 54.1364 54.8667 54.1043 54.8513C54.0721 54.8359 54.0435 54.8135 54.0204 54.7855L51.6573 51.4882L50.3552 53.043V54.726C50.3552 54.8243 50.3093 54.8749 50.2204 54.8749H49.4231C49.404 54.8761 49.3849 54.873 49.3671 54.8658C49.3493 54.8586 49.3332 54.8475 49.3199 54.8332C49.2956 54.8034 49.2832 54.765 49.2855 54.726V47.7977C49.2827 47.7781 49.2842 47.7581 49.2901 47.7393C49.296 47.7205 49.306 47.7033 49.3194 47.6892C49.3327 47.675 49.349 47.6643 49.367 47.6578C49.385 47.6513 49.4042 47.6492 49.4231 47.6518H50.2204C50.3093 47.6518 50.3552 47.6994 50.3552 47.7977V51.6401L53.4182 47.7977C53.4503 47.7529 53.4927 47.717 53.5415 47.6935C53.5851 47.6749 53.632 47.6658 53.6791 47.6667H54.5969C54.6321 47.6655 54.6665 47.6771 54.6944 47.6994C54.7054 47.7101 54.7141 47.723 54.72 47.7374C54.7259 47.7517 54.7289 47.7672 54.7288 47.7828C54.7297 47.8291 54.7133 47.874 54.6829 47.9079L52.3628 50.6631L55.2307 54.6485C55.256 54.679 55.2728 54.7161 55.2795 54.7557Z" fill="#529E66"/>
<path d="M66.4472 54.726C66.4472 54.8243 66.4013 54.8749 66.3124 54.8749H65.5151C65.4969 54.8759 65.4787 54.8727 65.4618 54.8654C65.445 54.8582 65.4298 54.8472 65.4176 54.8332C65.3922 54.8039 65.3788 54.7654 65.3803 54.726V47.7977C65.3803 47.6994 65.4262 47.6518 65.5151 47.6518H66.3124C66.4013 47.6518 66.4472 47.6994 66.4472 47.7977V54.726Z" fill="#529E66"/>
<path d="M77.1417 47.8394C77.1417 47.7173 77.2019 47.6577 77.3224 47.6577H81.7103C81.76 47.6541 81.8091 47.6701 81.848 47.7024C81.8656 47.72 81.8794 47.7414 81.8883 47.765C81.8972 47.7887 81.901 47.8141 81.8996 47.8394V48.5007C81.901 48.526 81.8972 48.5514 81.8883 48.5751C81.8794 48.5987 81.8656 48.6201 81.848 48.6377C81.8299 48.6559 81.8083 48.6699 81.7845 48.6786C81.7607 48.6874 81.7354 48.6907 81.7103 48.6883H78.2114V50.6989H80.9962C81.0512 50.6956 81.1056 50.7113 81.1511 50.7436C81.1697 50.7605 81.1843 50.7817 81.1938 50.8055C81.2032 50.8292 81.2073 50.8549 81.2056 50.8806V51.5418C81.2065 51.5672 81.2018 51.5925 81.1918 51.6158C81.1819 51.639 81.167 51.6595 81.1482 51.6759C81.1046 51.71 81.0507 51.7269 80.9962 51.7235H78.2114V53.8324H81.7534C81.8183 53.8304 81.882 53.8514 81.934 53.892C81.9562 53.913 81.9736 53.9389 81.985 53.9677C81.9964 53.9965 82.0015 54.0276 82 54.0588V54.6813C82.0026 54.7065 81.9996 54.732 81.9911 54.7558C81.9827 54.7795 81.969 54.8009 81.9512 54.8183C81.9127 54.8538 81.8621 54.872 81.8107 54.8689H77.3138C77.2893 54.8724 77.2643 54.8699 77.2409 54.8617C77.2175 54.8535 77.1962 54.8398 77.1787 54.8216C77.1612 54.8034 77.148 54.7813 77.1401 54.757C77.1322 54.7327 77.1298 54.7067 77.1331 54.6813L77.1417 47.8394Z" fill="#529E66"/>
<path d="M31.2461 22.9532C32.2396 21.1529 33.677 19.6601 35.4104 18.6282C37.181 17.5894 39.1801 17.0435 41.2136 17.0435C43.2472 17.0435 45.2463 17.5894 47.0169 18.6282C48.7503 19.6601 50.1876 21.1529 51.1812 22.9532C52.4362 25.2392 52.9327 27.8904 52.594 30.4983C52.2553 33.1062 51.1002 35.526 49.3068 37.3849C47.5134 39.2438 45.1811 40.4386 42.6694 40.7852C40.1578 41.1317 37.606 40.6108 35.4075 39.3027C33.6633 38.2623 32.217 36.7585 31.2171 34.9458C30.2172 33.1332 29.6996 31.0768 29.7175 28.9878C29.6975 26.8704 30.2254 24.7862 31.2461 22.9532ZM35.9926 32.1213C36.5268 33.0665 37.2897 33.8503 38.2055 34.3949C39.1214 34.9395 40.1583 35.226 41.2136 35.226C42.269 35.226 43.3059 34.9395 44.2218 34.3949C45.1376 33.8503 45.9005 33.0665 46.4347 32.1213C46.971 31.1718 47.2486 30.0886 47.2377 28.9878C47.2377 27.3289 46.6032 25.7379 45.4738 24.5648C44.3443 23.3918 42.8124 22.7327 41.2151 22.7327C39.6178 22.7327 38.0859 23.3918 36.9564 24.5648C35.8269 25.7379 35.1924 27.3289 35.1924 28.9878C35.182 30.0882 35.4585 31.1709 35.9926 32.1213Z" fill="#FFC94D"/>
<path d="M72.3781 18.0116C72.373 18.1583 72.3419 18.3027 72.2863 18.4376L65.0763 31.6537V39.5946C65.089 39.8175 65.0192 40.037 64.8813 40.2082C64.8058 40.2845 64.7158 40.3436 64.617 40.3815C64.5182 40.4195 64.4128 40.4355 64.3077 40.4287H60.4073C60.2993 40.4399 60.1903 40.426 60.0881 40.388C59.9859 40.35 59.8932 40.2888 59.8165 40.209C59.7399 40.1291 59.6814 40.0326 59.6452 39.9263C59.609 39.8201 59.596 39.7068 59.6072 39.5946V31.609L52.4115 18.4257C52.3531 18.291 52.3172 18.1469 52.3054 17.9997C52.3021 17.9244 52.3163 17.8494 52.3467 17.781C52.3772 17.7126 52.423 17.6528 52.4803 17.6066C52.6244 17.5047 52.7969 17.4555 52.9708 17.4666H57.525C57.7263 17.47 57.9208 17.5422 58.0786 17.6721C58.2615 17.8171 58.4088 18.0049 58.5087 18.2201L62.3403 25.756L66.1805 18.2053C66.2802 17.9915 66.4277 17.8056 66.6107 17.6631C66.7764 17.5351 66.9776 17.4661 67.1842 17.4666H71.7184C72.1515 17.4666 72.3781 17.6453 72.3781 18.0116Z" fill="#F59398"/>
<path d="M14.9075 38.8708C17.2755 38.8708 19.1951 36.8771 19.1951 34.4178C19.1951 31.9585 17.2755 29.9648 14.9075 29.9648C12.5395 29.9648 10.6199 31.9585 10.6199 34.4178C10.6199 36.8771 12.5395 38.8708 14.9075 38.8708Z" fill="#ABCA74"/>
<path d="M23.8354 8.90604C26.2034 8.90604 28.123 6.91235 28.123 4.45302C28.123 1.99368 26.2034 0 23.8354 0C21.4675 0 19.5479 1.99368 19.5479 4.45302C19.5479 6.91235 21.4675 8.90604 23.8354 8.90604Z" fill="#ABCA74"/>
<path d="M21.478 11.1519H26.927V34.3195C26.927 35.717 26.3925 37.0572 25.4411 38.0454C24.4896 39.0336 23.1992 39.5887 21.8537 39.5887H21.478V11.1519Z" fill="#ABCA74"/>
</g>
<defs>
<clipPath id="clip0_1_4">
<rect width="82" height="55" fill="white"/>
</clipPath>
</defs>
</svg>
