<svg width="19" height="18" viewBox="0 0 19 18" fill="none" xmlns="http://www.w3.org/2000/svg">
<g clip-path="url(#clip0_970_3378)">
<path d="M18.0223 -1.15414H1.24715C-0.307272 -1.15414 -1.56738 0.132266 -1.56738 1.71913V16.7002C-1.56738 18.2871 -0.307272 19.5735 1.24715 19.5735H18.0223C19.5768 19.5735 20.8369 18.2871 20.8369 16.7002V1.71913C20.8369 0.132266 19.5768 -1.15414 18.0223 -1.15414Z" fill="#A50064"/>
<path d="M13.2254 3.00045C11.6947 3.00045 10.454 4.21259 10.454 5.70636C10.454 7.20013 11.698 8.41227 13.2254 8.41227C14.7528 8.41227 16 7.20013 16 5.70636C16 4.21259 14.7593 3.00045 13.2254 3.00045ZM13.2254 6.86086C12.9189 6.86659 12.6228 6.74839 12.402 6.53223C12.1812 6.31606 12.0538 6.01961 12.0478 5.70801C12.0637 5.40132 12.1946 5.1125 12.4137 4.90111C12.6328 4.68971 12.9234 4.57186 13.2254 4.57186C13.5274 4.57186 13.818 4.68971 14.0371 4.90111C14.2562 5.1125 14.3871 5.40132 14.4029 5.70801C14.397 6.01961 14.2696 6.31606 14.0488 6.53223C13.828 6.74839 13.5319 6.86659 13.2254 6.86086ZM9.66197 5.03277V8.4238H8.06168V5.0163C8.06168 4.88963 8.01219 4.76815 7.9241 4.67858C7.83601 4.58901 7.71653 4.53869 7.59195 4.53869C7.46737 4.53869 7.3479 4.58901 7.25981 4.67858C7.17172 4.76815 7.12223 4.88963 7.12223 5.0163V8.4238H5.52841V5.0163C5.52841 4.88963 5.47892 4.76815 5.39083 4.67858C5.30274 4.58901 5.18326 4.53869 5.05868 4.53869C4.93411 4.53869 4.81463 4.58901 4.72654 4.67858C4.63845 4.76815 4.58896 4.88963 4.58896 5.0163V8.4238H3V5.03277C3.01191 4.48294 3.23764 3.96033 3.62776 3.57941C4.01788 3.19848 4.54058 2.9903 5.08136 3.00045C5.52904 2.99952 5.96556 3.14247 6.32856 3.40889C6.69125 3.14311 7.12706 3.0002 7.57413 3.00045C8.1159 2.98897 8.64002 3.19651 9.03145 3.57753C9.42289 3.95856 9.64965 4.48192 9.66197 5.03277ZM13.2254 9.57665C11.6947 9.57665 10.454 10.7871 10.454 12.2826C10.454 13.778 11.698 14.9934 13.2254 14.9934C14.7528 14.9934 15.9968 13.7829 15.9968 12.2892C15.9968 10.7954 14.7593 9.57665 13.2254 9.57665ZM13.2254 13.4371C13.0032 13.4283 12.7885 13.3534 12.6078 13.2215C12.4272 13.0897 12.2887 12.9067 12.2096 12.6954C12.1304 12.4842 12.1141 12.2539 12.1627 12.0333C12.2112 11.8126 12.3225 11.6114 12.4827 11.4546C12.6429 11.2978 12.8449 11.1923 13.0635 11.1513C13.2822 11.1103 13.5079 11.1356 13.7125 11.224C13.9172 11.3124 14.0917 11.4601 14.2145 11.6486C14.3372 11.8371 14.4028 12.0581 14.4029 12.2842C14.4008 12.4391 14.3687 12.592 14.3083 12.7341C14.2479 12.8763 14.1605 13.005 14.0511 13.1127C13.9417 13.2204 13.8124 13.3051 13.6707 13.3619C13.529 13.4187 13.3777 13.4465 13.2254 13.4437V13.4371ZM9.66197 11.6156V15H8.06168V11.5974C8.06168 11.4708 8.01219 11.3493 7.9241 11.2597C7.83601 11.1701 7.71653 11.1198 7.59195 11.1198C7.46737 11.1198 7.3479 11.1701 7.25981 11.2597C7.17172 11.3493 7.12223 11.4708 7.12223 11.5974V15H5.52841V11.5974C5.52841 11.4708 5.47892 11.3493 5.39083 11.2597C5.30274 11.1701 5.18326 11.1198 5.05868 11.1198C4.93411 11.1198 4.81463 11.1701 4.72654 11.2597C4.63845 11.3493 4.58896 11.4708 4.58896 11.5974V15H3V11.6156C3.00485 11.3427 3.06254 11.0734 3.16979 10.8232C3.27705 10.5731 3.43174 10.3468 3.62505 10.1574C3.81835 9.96809 4.04647 9.81933 4.29635 9.71967C4.54624 9.62001 4.81299 9.57141 5.08136 9.57665C5.52876 9.57591 5.96507 9.71822 6.32856 9.98345C6.6913 9.71794 7.12718 9.57559 7.57413 9.57665C7.84299 9.57076 8.11034 9.61885 8.36088 9.71819C8.61142 9.81754 8.84022 9.96617 9.03417 10.1556C9.22812 10.345 9.38341 10.5714 9.49114 10.822C9.59887 11.0725 9.65692 11.3422 9.66197 11.6156Z" fill="white"/>
</g>
<defs>
<clipPath id="clip0_970_3378">
<rect width="19" height="18" rx="3" fill="white"/>
</clipPath>
</defs>
</svg>
