<svg width="18" height="20" viewBox="0 0 18 20" fill="none" xmlns="http://www.w3.org/2000/svg">
<path fill-rule="evenodd" clip-rule="evenodd" d="M12.536 6.87891C12.5359 6.17958 12.3284 5.496 11.9398 4.91459C11.5512 4.33319 10.9989 3.88007 10.3528 3.61253C9.70663 3.345 8.99568 3.27507 8.30981 3.41157C7.62393 3.54808 6.99394 3.8849 6.49948 4.37944C6.00502 4.87398 5.66831 5.50403 5.53192 6.18993C5.39553 6.87582 5.46558 7.58676 5.73322 8.23284C6.00086 8.87893 6.45407 9.43115 7.03554 9.81967C7.61701 10.2082 8.30063 10.4156 8.99995 10.4156C9.93753 10.4144 10.8364 10.0414 11.4993 9.3784C12.1622 8.71538 12.535 7.81648 12.536 6.87891ZM3.46667 13.8806L4.99605 12.998C5.12687 13.1755 5.25952 13.3504 5.39773 13.5224L4.57593 16.5537L2.06636 18.003L3.46675 13.8806H3.46667ZM5.26136 2.77258C6.27483 1.75895 7.63667 1.25242 8.99995 1.25242C10.3616 1.25242 11.7252 1.75934 12.7386 2.77258C13.9218 3.9559 14.421 5.43223 14.2202 7.16098C13.8425 10.4336 11.0527 13.8558 8.99995 15.2965C6.94737 13.8558 4.15765 10.4336 3.77808 7.16098C3.57905 5.43223 4.07839 3.9559 5.26136 2.77258ZM15.9338 18.003L14.5334 13.8807L13.0041 12.9981C12.8732 13.1755 12.7406 13.3504 12.6024 13.5225L13.4242 16.5538L15.9338 18.003V18.003ZM11.6147 14.6563C10.9587 15.3438 10.2751 15.9398 9.62472 16.3839V18.1289L12.1601 16.6656L11.6147 14.6563ZM8.37538 16.3839C7.72495 15.9398 7.04136 15.3438 6.38538 14.6563L5.8398 16.6656L8.37538 18.1289V16.3838V16.3839ZM0.542412 19.8581C0.444026 19.7776 0.372598 19.6689 0.337692 19.5466C0.302786 19.4243 0.306069 19.2943 0.3471 19.1739L2.35933 13.2558C2.4082 13.1127 2.50697 12.9919 2.63757 12.9157L4.29226 11.9604C3.5164 10.7109 2.74253 9.07711 2.538 7.30469C2.4219 6.30469 2.50112 5.35547 2.77569 4.48289C3.07788 3.52195 3.61589 2.6491 4.3769 1.88883C5.59487 0.670703 7.23667 0 8.99995 0C10.7632 0 12.4051 0.670703 13.6231 1.88867C14.3822 2.64895 14.9221 3.52148 15.2243 4.48274C15.497 5.3552 15.5781 6.30469 15.462 7.30453C15.2575 9.07711 14.4836 10.7108 13.7078 11.9604L15.3607 12.9157C15.4922 12.9913 15.5918 13.1122 15.6407 13.2558L17.6529 19.1738C17.6938 19.2942 17.6971 19.4242 17.6622 19.5465C17.6273 19.6688 17.5559 19.7776 17.4576 19.8582C17.3592 19.9389 17.2386 19.9876 17.1119 19.9979C16.9851 20.0083 16.8582 19.9797 16.7482 19.916L12.8897 17.6875L9.31319 19.7523C9.21791 19.8072 9.10989 19.8361 8.99993 19.8361C8.88998 19.8361 8.78195 19.8072 8.68667 19.7523L5.11015 17.6875L1.25183 19.9163C1.14168 19.9799 1.01478 20.0084 0.888033 19.998C0.761289 19.9876 0.640725 19.9388 0.542412 19.8581Z" fill="#252525"/>
</svg>
