<svg width="14" height="18" viewBox="0 0 14 18" fill="none" xmlns="http://www.w3.org/2000/svg">
<path d="M7.0004 0.529419C4.35334 0.529419 2.2357 2.64707 2.2357 5.29413V7.41177C1.3357 7.41177 0.647461 8.10001 0.647461 9.00001V15.8824C0.647461 16.7824 1.3357 17.4706 2.2357 17.4706H11.7651C12.6651 17.4706 13.3533 16.7824 13.3533 15.8824V9.00001C13.3533 8.10001 12.6651 7.41177 11.7651 7.41177V5.29413C11.7651 2.64707 9.64746 0.529419 7.0004 0.529419ZM12.2945 9.00001V15.8824C12.2945 16.2 12.0828 16.4118 11.7651 16.4118H2.2357C1.91805 16.4118 1.70628 16.2 1.70628 15.8824V9.00001C1.70628 8.68236 1.91805 8.4706 2.2357 8.4706H2.76511H11.2357H11.7651C12.0828 8.4706 12.2945 8.68236 12.2945 9.00001ZM3.29452 7.41177V5.29413C3.29452 3.22942 4.9357 1.58824 7.0004 1.58824C9.06511 1.58824 10.7063 3.22942 10.7063 5.29413V7.41177H3.29452Z" fill="#ABCA74"/>
<path d="M7.00034 10.0588C6.10034 10.0588 5.41211 10.7471 5.41211 11.6471C5.41211 12.3353 5.83564 12.9177 6.47093 13.1294V14.2941C6.47093 14.6118 6.6827 14.8235 7.00034 14.8235C7.31799 14.8235 7.52976 14.6118 7.52976 14.2941V13.1294C8.16505 12.9177 8.58858 12.3353 8.58858 11.6471C8.58858 10.7471 7.90034 10.0588 7.00034 10.0588ZM7.00034 12.1765C6.6827 12.1765 6.47093 11.9647 6.47093 11.6471C6.47093 11.3294 6.6827 11.1177 7.00034 11.1177C7.31799 11.1177 7.52976 11.3294 7.52976 11.6471C7.52976 11.9647 7.31799 12.1765 7.00034 12.1765Z" fill="#ABCA74"/>
</svg>
