<svg width="24" height="24" viewBox="0 0 24 24" fill="none" xmlns="http://www.w3.org/2000/svg">
<g clip-path="url(#clip0_473_4208)">
<path d="M22.9568 22.3437H9.39129C8.81521 22.3437 8.34766 21.8763 8.34766 21.3002C8.34766 20.7241 8.81521 20.2568 9.39129 20.2568H22.9568C23.5329 20.2568 24.0002 20.7241 24.0002 21.3002C24.0002 21.8763 23.5329 22.3437 22.9568 22.3437Z" fill="#ABCA74"/>
<path d="M20.106 3.71303L18.6304 2.23739C17.8416 1.44845 16.4672 1.4496 15.6794 2.23739L13.5215 4.39535L17.948 8.8219L20.106 6.66394C20.5004 6.27053 20.7174 5.7468 20.7174 5.18849C20.7174 4.63132 20.5004 4.10741 20.106 3.71303Z" fill="#ABCA74"/>
<path d="M12.0446 5.87195L1.29012 16.6264C1.22134 16.6942 1.17338 16.7808 1.1514 16.8758L0.0139556 21.7018C-0.0276979 21.8772 0.0254199 22.063 0.152865 22.1902C0.250884 22.2894 0.384443 22.3436 0.521059 22.3436C0.560802 22.3436 0.601501 22.3394 0.641052 22.3301L5.46733 21.1926C5.56133 21.1709 5.64789 21.1227 5.71668 21.0539L16.4711 10.2996L12.0446 5.87195Z" fill="#ABCA74"/>
</g>
<defs>
<clipPath id="clip0_473_4208">
<rect width="24" height="24" fill="white"/>
</clipPath>
</defs>
</svg>
