<svg width="354" height="60" viewBox="0 0 354 60" fill="none" xmlns="http://www.w3.org/2000/svg">
<path d="M354 0H0V2C2.20914 2 4 3.79086 4 6C4 8.20914 2.20914 10 0 10V14C2.20914 14 4 15.7909 4 18C4 20.2091 2.20914 22 0 22V26C2.20914 26 4 27.7909 4 30C4 32.2091 2.20914 34 0 34V38C2.20914 38 4 39.7909 4 42C4 44.2091 2.20914 46 0 46V50C2.20914 50 4 51.7909 4 54C4 56.2091 2.20914 58 0 58V60H354V58C351.791 58 350 56.2091 350 54C350 51.7909 351.791 50 354 50V46C351.791 46 350 44.2091 350 42C350 39.7909 351.791 38 354 38V34C351.791 34 350 32.2091 350 30C350 27.7909 351.791 26 354 26V22C351.791 22 350 20.2091 350 18C350 15.7909 351.791 14 354 14V10C351.791 10 350 8.20914 350 6C350 3.79086 351.791 2 354 2V0Z" fill="#ABCA74"/>
</svg>
