<svg width="30" height="30" viewBox="0 0 30 30" fill="none" xmlns="http://www.w3.org/2000/svg">
<g clip-path="url(#clip0_798_2365)">
<path d="M6.84066 5.56258L5.29631 6.22578C1.71653 7.76249 0.141636 11.9744 1.8346 15.4819V15.4825V18.7807L3.78798 17.4906L8.0275 13.2991L8.67908 18.6529L11.0956 18.945L11.7879 8.23367L6.84066 5.56258Z" fill="#FFDFCF"/>
<path d="M4.41727 15.2291H8.88325V23.3774H4.41727V15.2291Z" fill="#FFDFCF"/>
<path d="M9.28807 11.1383L6.8701 12.9732L4.99244 14.5768L4.57596 15.7836L4.99244 16.962L5.78729 16.7487L6.84261 15.4878L9.93882 13.5408L9.28807 11.1383Z" fill="#FFEEE6"/>
<path d="M24.645 6.22578L23.1007 5.56258L19.1713 10.3671L18.8008 17.3891L23.1007 18.4308V19.4787C23.1007 19.9781 23.2293 20.4697 23.4743 20.905L23.6928 21.2939L27.2169 22.065C27.6741 22.165 28.1067 21.8168 28.1067 21.3488V15.4825V15.4819C29.7997 11.9744 28.2248 7.76249 24.645 6.22578Z" fill="#FFDFCF"/>
<path d="M23.1006 12.1575V18.4308V19.4787C23.1006 19.9781 23.2293 20.4697 23.4743 20.905L23.6613 21.2379C24.0636 20.3601 24.2755 19.397 24.2755 18.4308V13.3324C24.2754 12.6835 23.7495 12.1575 23.1006 12.1575Z" fill="#FFCEBF"/>
<path d="M20.7119 15.2291H25.1652V24.4743H20.7119V15.2291Z" fill="#FFDFCF"/>
<path d="M23.7945 13.6261L23.13 13.0586L19.7447 10.6243L19.0439 12.7842L23.1576 15.5733L23.7945 16.3341L24.3966 16.4233L24.5092 14.5939L23.7945 13.6261Z" fill="#FFEEE6"/>
<path d="M22.2195 5.18436C21.9699 5.07745 21.7308 4.9488 21.5052 4.79959C21.2796 4.65097 21.067 4.48179 20.8708 4.2944C19.9662 3.43265 19.4545 2.23782 19.4545 0.98836V0.939369C19.4545 0.622216 19.1974 0.365158 18.8802 0.365158H11.061C10.7439 0.365158 10.4868 0.622216 10.4868 0.939369V0.98836C10.4868 1.6128 10.3587 2.22431 10.1179 2.78648C9.87702 3.34923 9.5228 3.86382 9.07048 4.2944C8.67749 4.66918 8.22106 4.97053 7.72175 5.18436L6.84061 5.56266V12.2676V18.4309C6.84061 19.3302 7.05913 20.2166 7.47738 21.0132L7.74466 21.5225C7.79224 21.613 7.81398 21.714 7.80751 21.8156L7.40859 28.1118C7.3653 28.7947 7.90755 29.3723 8.59179 29.3723H14.6062L14.7102 29.2536H15.3765L15.4873 29.3723H21.3493C22.0336 29.3723 22.5758 28.7947 22.5325 28.1118L22.1336 21.8156C22.1271 21.714 22.1489 21.613 22.1964 21.5225L22.4637 21.0132C22.882 20.2166 23.1005 19.3302 23.1005 18.4309V12.2676V5.56266L22.2195 5.18436Z" fill="#FFDFCF"/>
<path d="M19.4545 0.988282V0.93929C19.4545 0.622138 19.1974 0.365021 18.8802 0.365021H11.061C10.7439 0.365021 10.4868 0.622138 10.4868 0.93929V0.988282C10.4868 1.61272 10.3587 2.22423 10.1179 2.7864C9.87702 3.34915 9.5228 3.86374 9.07048 4.29433C8.67749 4.66911 8.22106 4.97046 7.72174 5.18428L6.8406 5.56258L5.29625 6.22579C1.71647 7.7625 0.141575 11.9744 1.83454 15.4819V15.4825V21.3488C1.83454 21.8168 2.26718 22.165 2.72438 22.065L4.43514 21.6907V16.7017V16.7012C2.74218 13.1936 4.31707 8.98177 7.89686 7.44506L10.1278 6.48455C10.6272 6.27073 11.0836 5.96938 11.4766 5.5946C11.9289 5.16401 12.2831 4.64943 12.524 4.08667C12.5973 3.91538 12.6603 3.62354 12.7123 3.30069C12.8641 2.35828 13.6779 1.66529 14.6325 1.66529L19.5048 1.66494C19.4714 1.44219 19.4545 1.21638 19.4545 0.988282Z" fill="#FFCEBF"/>
<path d="M10.1182 28.1059L10.5171 21.7809C10.5235 21.6788 10.5018 21.5773 10.4542 21.4865L10.1869 20.9748C9.7687 20.1746 9.55018 19.2841 9.55018 18.3807V14.8671C9.55018 13.3707 8.33708 12.1575 6.84061 12.1575V18.3807C6.84061 19.2841 7.05913 20.1746 7.47738 20.9748L7.74466 21.4865C7.79224 21.5773 7.81398 21.6788 7.80751 21.7809L7.40865 28.1059C7.36536 28.7919 7.90761 29.3722 8.59185 29.3722H11.3014C10.6171 29.3722 10.0749 28.7919 10.1182 28.1059Z" fill="#FFCEBF"/>
<path d="M29.3082 24.8262L29.0466 24.3231C28.9785 24.1916 28.9426 24.0453 28.9426 23.8967V18.9729C28.9426 18.3702 28.6789 17.798 28.2207 17.4062L23.7945 13.6261V16.3342L24.9217 17.6805C25.0327 17.8139 25.0809 17.9889 25.0533 18.1604L24.4864 21.6421C24.44 21.9253 24.195 22.1338 23.9078 22.1338H23.3074C23.1013 22.1338 22.9103 22.0257 22.8046 21.8495L21.9182 20.3715C21.5734 19.7976 20.8185 19.629 20.2628 20.002C19.9303 20.2247 19.7447 20.5936 19.7447 20.9736C19.7447 21.1281 19.7752 21.285 19.8393 21.4342L21.0529 24.2662C21.5434 25.4117 22.4404 26.3363 23.5706 26.8614L24.1686 27.1393L25.4207 28.8318C25.6956 29.2034 26.2453 29.2214 26.544 28.8687L29.2077 25.7228C29.4201 25.472 29.4598 25.1178 29.3082 24.8262Z" fill="#FFEEE6"/>
<path d="M9.73738 19.9165C9.1815 19.5434 8.42648 19.712 8.08207 20.2861L7.19534 21.7639C7.08943 21.9404 6.89869 22.0484 6.69286 22.0484H6.09221C5.8049 22.0484 5.56 21.8401 5.51383 21.5565L4.94696 18.075C4.91906 17.9036 4.96705 17.7286 5.07855 17.5954L5.78728 16.7486L4.99249 14.5768L1.77961 17.321C1.32142 17.7123 1.05761 18.2846 1.05761 18.8872V23.8114C1.05761 23.9599 1.02183 24.1062 0.953395 24.2379L0.62796 24.8636C0.514998 25.0808 0.544604 25.3447 0.702799 25.5316L3.63536 28.9948C3.8426 29.2396 4.22396 29.2271 4.4147 28.9692L5.83134 27.0542L6.42946 26.7761C7.55984 26.2507 8.45649 25.3265 8.94746 24.1808L10.1609 21.3489C10.3824 20.8317 10.2046 20.2301 9.73738 19.9165Z" fill="#FFEEE6"/>
<path d="M22.0748 5.66486L24.5009 6.70631C25.0125 6.92595 25.4918 7.20944 25.9255 7.54886C26.0061 7.61195 26.1018 7.6425 26.1968 7.6425C26.3276 7.6425 26.4572 7.58446 26.544 7.47343C26.694 7.28181 26.6602 7.0049 26.4686 6.85499C25.975 6.46876 25.4299 6.14632 24.8485 5.89672L22.4224 4.85521C21.9703 4.66118 21.5603 4.39067 21.204 4.05114C20.3906 3.27614 19.9242 2.18741 19.9242 1.06407V0.440571C19.9242 0.1972 19.727 0 19.4836 0C19.2403 0 19.0431 0.1972 19.0431 0.440571V1.06401C19.0431 2.42725 19.6092 3.74849 20.5961 4.68897C21.0286 5.10105 21.5261 5.42936 22.0748 5.66486Z" fill="#9B506B"/>
<path d="M29.9497 25.1048L29.4376 24.1199C29.402 24.0513 29.383 23.9742 29.383 23.8967V18.9725C29.383 18.2711 29.0895 17.6064 28.5755 17.1335C28.5757 17.128 28.5763 17.1227 28.5763 17.1172L28.5764 15.6569C29.6867 13.2718 29.4249 10.474 27.8842 8.33043C27.7421 8.1327 27.4667 8.08783 27.2693 8.22981C27.0717 8.37179 27.0266 8.64712 27.1687 8.84467C28.5407 10.7535 28.7592 13.2524 27.739 15.3664C27.7102 15.4261 27.6952 15.4915 27.6952 15.5579V16.3783L23.5705 12.8554V12.3433C23.5705 12.0999 23.3733 11.9027 23.1299 11.9027C22.8866 11.9027 22.6894 12.0999 22.6894 12.3433V18.5064C22.6894 19.1087 22.5809 19.7093 22.3733 20.274L22.2957 20.1446C22.0664 19.7624 21.7005 19.4985 21.2655 19.4014C20.8306 19.3046 20.3872 19.3876 20.0172 19.636C19.3746 20.0672 19.1295 20.8963 19.4342 21.6077L20.6476 24.4395C20.9613 25.1714 21.4264 25.8179 22.0052 26.3435C22.0051 26.3534 22.005 26.3633 22.0056 26.3733L22.202 29.4755C22.2168 29.7089 22.4107 29.8883 22.6414 29.8883C22.6507 29.8883 22.6601 29.888 22.6696 29.8874C22.9124 29.872 23.0968 29.6627 23.0815 29.4199L22.9297 27.0227C23.0771 27.1087 23.2289 27.1883 23.3849 27.2608L23.8813 27.4916L25.6048 29.8214C25.6912 29.9382 25.8244 30 25.9593 29.9999C26.0503 29.9999 26.1422 29.9718 26.2209 29.9135C26.4165 29.7688 26.4578 29.493 26.3131 29.2974L24.5229 26.8774C24.4791 26.8182 24.4212 26.771 24.3544 26.7399L23.7563 26.4618C22.7227 25.9815 21.9064 25.14 21.4575 24.0925L20.2441 21.2607C20.1061 20.9385 20.2171 20.5629 20.5081 20.3677C20.6758 20.2552 20.8766 20.2174 21.0735 20.2614C21.2706 20.3053 21.4363 20.4249 21.5401 20.5979L22.4268 22.0758C22.6114 22.3832 22.9486 22.5741 23.307 22.5741H23.9078C24.4135 22.5741 24.8396 22.2118 24.9209 21.7126L25.011 21.1593C25.0501 20.9191 24.8871 20.6927 24.647 20.6537C24.4067 20.6147 24.1804 20.7776 24.1414 21.0177L24.0513 21.5709C24.0398 21.6417 23.9794 21.693 23.9078 21.693H23.3071C23.2564 21.693 23.2085 21.6659 23.1825 21.6225L22.9299 21.2014C23.3489 20.3684 23.5706 19.439 23.5706 18.5063V16.753L24.5836 17.9634C24.613 17.9984 24.6256 18.0444 24.6182 18.0895L24.4472 19.1402C24.4081 19.3804 24.571 19.6068 24.8112 19.6458C24.8352 19.6497 24.859 19.6516 24.8825 19.6516C25.0947 19.6516 25.2817 19.498 25.3169 19.2818L25.4879 18.231C25.5364 17.933 25.4531 17.6293 25.2593 17.3979L23.5706 15.3803V14.0141L27.9343 17.7413C28.2951 18.0493 28.5019 18.4981 28.5019 18.9725V23.8967C28.5019 24.115 28.5551 24.3327 28.6558 24.5263L29.1679 25.5112C29.2464 25.6621 29.4 25.7487 29.5592 25.7487C29.6277 25.7487 29.6971 25.7326 29.7621 25.6989C29.9779 25.5867 30.062 25.3207 29.9497 25.1048Z" fill="#9B506B"/>
<path d="M18.2192 17.9498C17.4196 18.6685 16.9611 19.6969 16.9611 20.7713C16.9611 21.3863 17.1117 21.9971 17.3969 22.5379C17.4758 22.6876 17.6287 22.7731 17.787 22.7731C17.8563 22.7731 17.9266 22.7567 17.9921 22.7222C18.2073 22.6086 18.2898 22.3422 18.1764 22.1269C17.9577 21.7123 17.8423 21.2436 17.8423 20.7713C17.8423 19.9465 18.1944 19.157 18.8082 18.605C18.9892 18.4424 19.004 18.1638 18.8413 17.9829C18.6788 17.802 18.4002 17.7871 18.2192 17.9498Z" fill="#9B506B"/>
<path d="M19.9706 17.0594C19.7325 17.1095 19.5801 17.3431 19.6301 17.5812C19.6737 17.7888 19.8568 17.9313 20.0608 17.9313C20.0909 17.9313 20.1213 17.9282 20.1519 17.9218C20.5203 17.8444 20.9119 17.8394 21.2833 17.9074C21.5222 17.9511 21.7522 17.793 21.7961 17.5536C21.8399 17.3143 21.6815 17.0847 21.4422 17.0408C20.9588 16.9522 20.4506 16.9585 19.9706 17.0594Z" fill="#9B506B"/>
<path d="M10.5164 0C10.273 0 10.0758 0.1972 10.0758 0.440571V1.06401C10.0758 2.18735 9.60941 3.27603 8.79605 4.05108C8.43984 4.39044 8.02987 4.66101 7.57755 4.85515L5.15153 5.8966C3.30889 6.68763 1.90723 8.15767 1.2049 10.036C0.514555 11.8823 0.592918 13.8743 1.4236 15.6569V17.1172C1.4236 17.1224 1.42419 17.1275 1.42436 17.1327C0.910834 17.597 0.616943 18.2549 0.616943 18.9495V19.7307C0.616943 19.9741 0.814143 20.1713 1.05751 20.1713C1.30089 20.1713 1.49809 19.9741 1.49809 19.7307V18.9495C1.49809 18.4898 1.69857 18.0548 2.04821 17.7562L6.42942 14.0141V15.3803L4.74069 17.3978C4.54689 17.6292 4.4636 17.9329 4.51206 18.2311L5.07893 21.7126C5.16023 22.2119 5.58635 22.5742 6.09212 22.5742H6.69283C7.05139 22.5742 7.38869 22.3832 7.57303 22.0758L8.45981 20.598C8.56367 20.4249 8.72932 20.3054 8.92634 20.2614C9.12337 20.2174 9.32409 20.2552 9.4918 20.3677C9.78276 20.563 9.89378 20.9386 9.75579 21.2607L8.54234 24.0925C8.09343 25.1402 7.27708 25.9816 6.24356 26.462L5.64544 26.74C5.57865 26.771 5.52073 26.8183 5.47697 26.8775L3.68678 29.2974C3.54204 29.493 3.58334 29.7689 3.77895 29.9136C3.85772 29.9719 3.94954 30.0001 4.04059 30C4.17552 30 4.30869 29.9382 4.3951 29.8214L6.11856 27.4917L6.61488 27.261C6.77096 27.1885 6.92275 27.1089 7.07019 27.0229L6.9184 29.4199C6.90301 29.6628 7.08746 29.8721 7.3303 29.8874C7.33976 29.888 7.34916 29.8883 7.3585 29.8883C7.58912 29.8883 7.78303 29.7089 7.79784 29.4756L7.99427 26.3734C7.99492 26.3634 7.99469 26.3535 7.99463 26.3436C8.57336 25.8179 9.03854 25.1715 9.35217 24.4396L10.5656 21.6077C10.8704 20.8964 10.6252 20.0672 9.98272 19.6361C9.61264 19.3877 9.16919 19.3044 8.73426 19.4015C8.29927 19.4986 7.93336 19.7625 7.70414 20.1448L7.62654 20.2741C7.41895 19.7093 7.31045 19.1087 7.31045 18.5064V12.3433C7.31045 12.0999 7.11325 11.9027 6.86988 11.9027C6.62651 11.9027 6.42931 12.0999 6.42931 12.3433V12.8554L2.30456 16.3784V15.5578C2.30456 15.4915 2.28959 15.4261 2.2608 15.3664C1.49468 13.779 1.41273 11.9956 2.03006 10.3447C2.64739 8.69376 3.87952 7.40159 5.49917 6.70631L7.92513 5.66486C8.47403 5.42924 8.97152 5.10093 9.40392 4.68903C10.3909 3.74849 10.957 2.42731 10.957 1.06407V0.440571C10.957 0.1972 10.7598 0 10.5164 0ZM6.8176 21.6226C6.79152 21.6661 6.7437 21.6931 6.69294 21.6931H6.09224C6.02058 21.6931 5.96025 21.6418 5.94873 21.5711L5.38186 18.0896C5.37452 18.0444 5.38715 17.9985 5.41646 17.9635L6.42954 16.7531V18.5065C6.42954 19.4392 6.65118 20.3685 7.07025 21.2016L6.8176 21.6226Z" fill="#9B506B"/>
<path d="M1.05764 21.1678C0.814273 21.1678 0.617073 21.365 0.617073 21.6084V23.909C0.617073 23.9784 0.600156 24.0476 0.568141 24.1092L0.0504405 25.1048C-0.0618169 25.3207 0.022244 25.5867 0.238065 25.6989C0.302976 25.7327 0.372469 25.7487 0.440963 25.7487C0.600038 25.7487 0.753709 25.6622 0.83219 25.5113L1.34989 24.5156C1.44687 24.329 1.49816 24.1192 1.49816 23.909V21.6084C1.49822 21.365 1.30102 21.1678 1.05764 21.1678Z" fill="#9B506B"/>
<path d="M11.7809 17.9498C11.5999 17.787 11.3213 17.8019 11.1587 17.9829C10.996 18.1638 11.0108 18.4424 11.1918 18.605C11.8057 19.157 12.1578 19.9465 12.1578 20.7713C12.1578 21.2436 12.0422 21.7124 11.8236 22.1269C11.7101 22.3422 11.7927 22.6086 12.0079 22.7222C12.0735 22.7567 12.1437 22.7731 12.213 22.7731C12.3712 22.7731 12.5242 22.6876 12.6032 22.5379C12.8883 21.9971 13.039 21.3863 13.039 20.7713C13.039 19.697 12.5804 18.6686 11.7809 17.9498Z" fill="#9B506B"/>
<path d="M8.55788 17.0408C8.31857 17.0846 8.16014 17.3142 8.20402 17.5535C8.2479 17.7928 8.47782 17.9515 8.71678 17.9074C9.08821 17.8394 9.47973 17.8444 9.84817 17.9217C9.87877 17.9281 9.9092 17.9312 9.93928 17.9312C10.1432 17.9312 10.3263 17.7887 10.37 17.5812C10.42 17.343 10.2676 17.1095 10.0294 17.0594C9.54946 16.9585 9.04122 16.9522 8.55788 17.0408Z" fill="#9B506B"/>
</g>
<defs>
<clipPath id="clip0_798_2365">
<rect width="30" height="30" fill="white"/>
</clipPath>
</defs>
</svg>
