<svg width="30" height="30" viewBox="0 0 30 30" fill="none" xmlns="http://www.w3.org/2000/svg">
<path d="M7.20726 5.83593C8.83078 2.88281 11.7741 0.660932 15 0.65976C18.2259 0.658588 21.1692 2.88281 22.7927 5.83593C23.6334 7.36593 23.4759 10.4166 22.9451 12.8501H7.05468C6.52406 10.4168 6.36656 7.36617 7.20726 5.83593Z" fill="#F59398"/>
<path d="M8.44688 12.4533L9.04922 16.7126C7.9779 16.8877 6.75071 15.6539 6.57305 14.5828C6.35461 13.2668 7.10462 12.3424 8.44688 12.4533Z" fill="#FFCEBF"/>
<path d="M23.427 14.5828C23.2493 15.6539 22.0221 16.8877 20.9508 16.7126L21.5531 12.4533C22.8954 12.3424 23.6454 13.2668 23.427 14.5828Z" fill="#FFCEBF"/>
<path d="M3.89415 29.4516H26.1059C25.7554 28.5302 25.2009 27.7001 24.484 27.0234C23.3449 25.9664 20.4551 25.4414 18.9762 24.6914C18.5871 24.5041 18.2459 24.2305 17.9786 23.8913C17.7114 23.5522 17.5251 23.1565 17.434 22.7344C17.4106 22.643 17.3918 22.5539 17.3777 22.4648C17.3129 22.0441 17.2722 21.6199 17.2559 21.1945H12.7465C12.7293 21.6192 12.6878 22.0426 12.6223 22.4625C12.6082 22.5516 12.5895 22.643 12.566 22.7344C12.4749 23.1565 12.2886 23.5522 12.0214 23.8913C11.7541 24.2305 11.4129 24.5041 11.0238 24.6914C9.54727 25.4414 6.65743 25.9664 5.51603 27.0234C4.80059 27.7013 4.24635 28.5311 3.89415 29.4516Z" fill="#FFDFCF"/>
<path d="M12.6223 22.4625C13.256 22.8234 13.9413 23.0851 14.6543 23.2383C14.8819 23.2898 15.1181 23.2898 15.3457 23.2383C16.0582 23.0845 16.7433 22.8238 17.3777 22.4648C17.3129 22.0441 17.2722 21.6199 17.2559 21.1945H12.7465C12.7293 21.6192 12.6878 22.0426 12.6223 22.4625Z" fill="#FFCEBF"/>
<path d="M8.67561 15.4453C9.02952 17.2453 9.76545 18.6938 10.7194 19.6359C10.7311 19.65 10.7451 19.6617 10.7569 19.6734C11.6592 20.5477 12.8076 21.4922 14.6569 21.9C14.8844 21.9516 15.1207 21.9516 15.3483 21.9C17.1975 21.4922 18.3459 20.5477 19.2483 19.6734C19.26 19.6617 19.274 19.65 19.2858 19.6359C20.2444 18.6914 20.9498 17.2406 21.3014 15.4359C21.49 14.453 21.5756 13.4531 21.5569 12.4523C21.5053 8.2875 19.6912 10.4109 18.3483 6.53204C17.2265 3.27891 13.7381 3.61172 11.9531 5.79141C11.8094 5.96411 11.619 6.09184 11.4047 6.15938C9.06092 6.91172 8.56405 9.17813 8.45155 12.4523C8.41142 13.4553 8.4866 14.4595 8.67561 15.4453Z" fill="#FFDFCF"/>
<path d="M15 15.9773C15.3279 15.9663 15.6405 15.8362 15.8794 15.6113C15.9371 15.5526 15.9706 15.4743 15.9733 15.3921C15.9761 15.3099 15.9478 15.2296 15.8941 15.1672C15.8404 15.1048 15.7653 15.0649 15.6835 15.0553C15.6018 15.0458 15.5194 15.0673 15.4528 15.1156C15.3967 15.1806 15.3272 15.2329 15.249 15.2687C15.1709 15.3045 15.086 15.323 15 15.323C14.9141 15.323 14.8291 15.3045 14.751 15.2687C14.6728 15.2329 14.6033 15.1806 14.5472 15.1156C14.4806 15.0673 14.3982 15.0458 14.3165 15.0553C14.2347 15.0649 14.1596 15.1048 14.1059 15.1672C14.0522 15.2296 14.024 15.3099 14.0267 15.3921C14.0294 15.4743 14.0629 15.5526 14.1206 15.6113C14.3595 15.8362 14.6721 15.9663 15 15.9773Z" fill="#9B506B"/>
<path d="M12.9588 17.4548C12.9719 17.3892 13.0104 17.3315 13.066 17.2942C13.1216 17.257 13.1897 17.2434 13.2553 17.2563H13.2593C13.5293 17.3118 13.8069 17.3197 14.0796 17.2798C14.1476 17.2702 14.2141 17.2563 14.2929 17.242C14.4047 17.2163 14.5202 17.2109 14.6339 17.2259C14.753 17.2468 14.8661 17.2931 14.9656 17.3618C14.9763 17.3678 14.9884 17.371 15.0007 17.371C15.013 17.371 15.0251 17.3678 15.0359 17.3618C15.1353 17.2931 15.2485 17.2468 15.3675 17.2259C15.4812 17.2109 15.5967 17.2163 15.7085 17.242C15.7873 17.2573 15.8538 17.2702 15.9218 17.2798C16.1945 17.3197 16.4721 17.3118 16.7421 17.2563H16.7463C16.8075 17.2442 16.871 17.2551 16.9246 17.2871C16.9781 17.319 17.018 17.3696 17.0364 17.4292C17.0548 17.4888 17.0505 17.5531 17.0243 17.6097C16.9981 17.6663 16.9518 17.7111 16.8945 17.7356C16.5715 17.8747 16.222 17.9416 15.8705 17.9316C15.7833 17.929 15.6952 17.9215 15.6197 17.9156C15.5428 17.911 15.4669 17.9352 15.4069 17.9836C15.2924 18.0531 15.1616 18.0911 15.0277 18.0935H14.9752C14.8413 18.0911 14.7104 18.0531 14.5959 17.9836C14.5359 17.9352 14.4599 17.911 14.3829 17.9156C14.3077 17.9215 14.2188 17.929 14.1321 17.9316C13.7807 17.9416 13.4313 17.8747 13.1084 17.7356C13.055 17.7131 13.0111 17.6728 12.9839 17.6217C12.9566 17.5706 12.9478 17.5117 12.9588 17.4548Z" fill="#9B506B"/>
<path d="M15 19.2837C15.184 19.2826 15.3654 19.2397 15.5304 19.1583C15.5742 19.1397 15.6137 19.1124 15.6466 19.0781C15.6796 19.0438 15.7052 19.0031 15.722 18.9586C15.7387 18.9141 15.7463 18.8667 15.7442 18.8191C15.7421 18.7716 15.7304 18.725 15.7097 18.6822C15.6891 18.6393 15.66 18.6011 15.6242 18.5698C15.5883 18.5385 15.5465 18.5149 15.5013 18.5002C15.456 18.4856 15.4083 18.4803 15.3609 18.4846C15.3135 18.4889 15.2675 18.5028 15.2257 18.5255C15.1565 18.5624 15.0792 18.5817 15.0007 18.5817C14.9222 18.5817 14.8449 18.5624 14.7757 18.5255C14.6925 18.4901 14.5989 18.4882 14.5144 18.5201C14.4298 18.5519 14.3607 18.6151 14.3215 18.6966C14.2823 18.778 14.276 18.8714 14.3038 18.9573C14.3317 19.0433 14.3915 19.1153 14.471 19.1583C14.6356 19.2395 14.8165 19.2824 15 19.2837Z" fill="#9B506B"/>
<path d="M13.1081 10.2527C12.7898 10.1117 12.4501 10.0253 12.1031 9.99703C11.7691 9.96019 11.4318 9.96373 11.0986 10.0076C10.7685 10.0513 10.4414 10.1151 10.1191 10.1986C9.78967 10.2771 9.47157 10.3973 9.17249 10.5562C9.13867 10.5754 9.11314 10.6064 9.10081 10.6432C9.08848 10.6801 9.09022 10.7202 9.10571 10.7558C9.1212 10.7914 9.14934 10.8201 9.18469 10.8362C9.22004 10.8523 9.26012 10.8548 9.29718 10.8431L9.30679 10.8398C9.59952 10.753 9.90039 10.6963 10.2047 10.6709C10.5137 10.6424 10.824 10.6323 11.1342 10.6406C11.4431 10.6493 11.749 10.6491 12.0513 10.6617C12.3466 10.6762 12.6406 10.7093 12.9316 10.7609L12.9431 10.7632C13.008 10.7758 13.0752 10.7642 13.132 10.7306C13.1889 10.697 13.2315 10.6437 13.2517 10.5808C13.2719 10.5179 13.2684 10.4498 13.2417 10.3893C13.2151 10.3289 13.1672 10.2803 13.1072 10.2527H13.1081Z" fill="#9E5969"/>
<path d="M12.777 12.9094C12.5851 12.9731 12.3818 12.9946 12.1809 12.9724C11.9589 12.9527 11.7397 12.9087 11.5273 12.8412C11.4185 12.8067 11.3093 12.7709 11.2041 12.7275C11.1499 12.7087 10.8701 12.5843 10.8701 12.5843C10.7177 12.5164 10.5517 12.4843 10.3849 12.4905C10.2925 12.4942 10.2023 12.5203 10.1221 12.5664C10.0418 12.6126 9.97402 12.6775 9.92438 12.7556C9.91033 12.7811 9.90379 12.8099 9.90551 12.839C9.90724 12.868 9.91716 12.8959 9.93412 12.9195C9.95108 12.943 9.97439 12.9613 10.0013 12.9722C10.0283 12.9831 10.0577 12.9861 10.0863 12.9809L10.121 12.9745C10.2018 12.9598 10.2851 12.9685 10.361 12.9996C10.445 13.0302 10.5252 13.0704 10.5998 13.1196C10.6233 13.1355 10.758 13.2209 10.758 13.2209C10.8195 13.2546 10.8809 13.2912 10.9437 13.3198C11.0697 13.3791 11.1995 13.43 11.3323 13.4721C11.6038 13.5585 11.8878 13.5996 12.1727 13.5937C12.4836 13.5941 12.7857 13.4908 13.0313 13.3001C13.0732 13.2648 13.1014 13.2159 13.111 13.1619C13.1207 13.108 13.1111 13.0523 13.0839 13.0047C13.0568 12.9571 13.0138 12.9205 12.9625 12.9013C12.9112 12.8821 12.8547 12.8814 12.803 12.8995L12.777 12.9094Z" fill="#9B506B"/>
<path d="M16.9688 13.3001C17.2143 13.4907 17.5164 13.5941 17.8273 13.5938C18.1123 13.5993 18.3962 13.5579 18.6677 13.4712C18.8005 13.4291 18.9303 13.3782 19.0563 13.3188C19.1192 13.2891 19.3772 13.1346 19.4002 13.1187C19.4748 13.0695 19.555 13.0292 19.639 12.9987C19.715 12.9675 19.7982 12.9588 19.879 12.9736L19.9137 12.9799C19.9423 12.9851 19.9717 12.9821 19.9986 12.9712C20.0256 12.9603 20.0489 12.942 20.0658 12.9185C20.0828 12.8949 20.0928 12.867 20.0945 12.838C20.0963 12.809 20.0898 12.7802 20.0759 12.7547C20.0261 12.6766 19.9583 12.6117 19.878 12.5656C19.7978 12.5194 19.7076 12.4933 19.6151 12.4896C19.4483 12.4834 19.2824 12.5154 19.1299 12.5834C19.1299 12.5834 18.8501 12.7078 18.7959 12.7266C18.6907 12.7702 18.5815 12.8058 18.4727 12.8402C18.2603 12.9078 18.0411 12.9518 17.8191 12.9715C17.6182 12.9936 17.4149 12.9721 17.2231 12.9084L17.1968 12.8988C17.1451 12.8807 17.0886 12.8812 17.0372 12.9004C16.9859 12.9195 16.9428 12.9561 16.9156 13.0037C16.8884 13.0513 16.8788 13.1069 16.8884 13.1609C16.8979 13.2149 16.9261 13.2638 16.9681 13.2991L16.9688 13.3001Z" fill="#9B506B"/>
<path d="M17.0489 10.7609C17.3401 10.7093 17.6343 10.6761 17.9297 10.6617C18.232 10.6491 18.5391 10.6493 18.8466 10.6406C19.1567 10.6323 19.4671 10.6424 19.7761 10.6709C20.0804 10.6963 20.3813 10.7529 20.674 10.8398L20.6838 10.8429C20.7209 10.8549 20.7612 10.8527 20.7968 10.8367C20.8323 10.8206 20.8607 10.7919 20.8762 10.7561C20.8918 10.7204 20.8935 10.6801 20.881 10.6431C20.8684 10.6062 20.8426 10.5752 20.8085 10.5562C20.5094 10.3973 20.1913 10.2771 19.8619 10.1986C19.5396 10.1151 19.2125 10.0513 18.8824 10.0076C18.5492 9.96373 18.2119 9.96019 17.8779 9.99703C17.5309 10.0253 17.1912 10.1117 16.8729 10.2527C16.813 10.2804 16.7654 10.3291 16.7389 10.3895C16.7124 10.4498 16.7089 10.5178 16.7291 10.5806C16.7493 10.6434 16.7917 10.6967 16.8484 10.7303C16.9051 10.764 16.9722 10.7758 17.0369 10.7634L17.0489 10.7609Z" fill="#9E5969"/>
<path d="M19.2726 19.6359C20.2312 18.6914 20.9367 17.2406 21.2883 15.4359C20.3437 15.1195 19.2187 15.6258 18.668 16.6664C18.0797 17.7727 18.3539 19.0758 19.2726 19.6359Z" fill="#FFE1E1"/>
<path d="M8.66249 15.4453C9.01639 17.2453 9.75233 18.6937 10.7062 19.6359C11.6273 19.0781 11.9015 17.7727 11.3133 16.6664C10.7555 15.6164 9.61405 15.1102 8.66249 15.4453Z" fill="#FFE1E1"/>
<path d="M18.6947 19.3064C18.7368 19.3063 18.7781 19.2948 18.8142 19.2732C18.8504 19.2516 18.88 19.2207 18.9001 19.1836C18.9201 19.1466 18.9298 19.1049 18.9282 19.0628C18.9265 19.0207 18.9135 18.9799 18.8906 18.9445C18.854 18.888 18.8205 18.8294 18.7905 18.769C18.7773 18.7407 18.7585 18.7154 18.7353 18.6945C18.7122 18.6736 18.685 18.6575 18.6556 18.6472C18.6261 18.6369 18.5949 18.6326 18.5637 18.6346C18.5325 18.6365 18.5021 18.6447 18.4741 18.6585C18.4462 18.6724 18.4212 18.6918 18.4009 18.7154C18.3805 18.739 18.365 18.7665 18.3554 18.7962C18.3457 18.8259 18.3422 18.8572 18.3448 18.8883C18.3474 18.9194 18.3563 18.9497 18.3708 18.9773C18.4086 19.0538 18.4509 19.128 18.4973 19.1995C18.5187 19.2324 18.5479 19.2595 18.5824 19.2781C18.6169 19.2968 18.6555 19.3065 18.6947 19.3064ZM18.3593 18.2248H18.3703C18.4011 18.2234 18.4312 18.2159 18.4591 18.2028C18.487 18.1898 18.512 18.1713 18.5327 18.1486C18.5535 18.1258 18.5695 18.0992 18.58 18.0703C18.5904 18.0413 18.5951 18.0106 18.5937 17.9798C18.5923 17.9484 18.5916 17.9166 18.5916 17.8861C18.5916 17.8479 18.5916 17.8109 18.5944 17.7741C18.5959 17.7433 18.5914 17.7125 18.581 17.6835C18.5707 17.6545 18.5547 17.6278 18.534 17.6049C18.4923 17.5588 18.4339 17.5311 18.3717 17.528C18.3096 17.5249 18.2487 17.5466 18.2026 17.5883C18.1564 17.6301 18.1287 17.6885 18.1256 17.7506C18.1233 17.7963 18.1221 17.8418 18.1223 17.8873C18.1223 17.9252 18.1223 17.9639 18.1249 18.0026C18.128 18.0626 18.1541 18.1191 18.1977 18.1605C18.2413 18.2018 18.2992 18.2249 18.3593 18.2248ZM18.5681 17.1075C18.614 17.1075 18.6589 17.0941 18.6973 17.0689C18.7356 17.0436 18.7657 17.0077 18.7837 16.9655C18.8107 16.9017 18.8409 16.8387 18.874 16.7763C18.9029 16.7221 18.9097 16.6587 18.893 16.5996C18.8763 16.5404 18.8373 16.49 18.7842 16.459C18.7318 16.4285 18.6696 16.4197 18.6108 16.4346C18.552 16.4495 18.5014 16.4869 18.4699 16.5387C18.4652 16.5464 18.4573 16.5621 18.4535 16.5694C18.4207 16.6308 18.3848 16.7053 18.3525 16.7803C18.3373 16.816 18.3311 16.8548 18.3346 16.8935C18.3381 16.9321 18.3511 16.9692 18.3724 17.0016C18.3938 17.0339 18.4229 17.0605 18.457 17.0789C18.4912 17.0972 18.5293 17.1068 18.5681 17.1068V17.1075ZM19.2319 16.1747C19.29 16.1747 19.346 16.1532 19.3891 16.1142C19.4407 16.0673 19.494 16.0234 19.549 15.9823C19.5736 15.9638 19.5943 15.9407 19.61 15.9142C19.6257 15.8877 19.636 15.8584 19.6404 15.8279C19.6447 15.7974 19.643 15.7664 19.6354 15.7366C19.6278 15.7068 19.6143 15.6788 19.5959 15.6541C19.5774 15.6295 19.5542 15.6088 19.5278 15.5931C19.5013 15.5774 19.472 15.5671 19.4415 15.5627C19.411 15.5584 19.38 15.5601 19.3502 15.5677C19.3204 15.5754 19.2923 15.5888 19.2677 15.6073C19.2014 15.657 19.1365 15.7099 19.0739 15.7666C19.0387 15.7984 19.014 15.8401 19.003 15.8862C18.9921 15.9322 18.9953 15.9806 19.0123 16.0248C19.0293 16.069 19.0594 16.107 19.0984 16.1338C19.1375 16.1606 19.1838 16.175 19.2312 16.1749L19.2319 16.1747ZM20.2308 15.6356C20.2497 15.6357 20.2685 15.6334 20.2868 15.6288C20.3525 15.6127 20.4191 15.6001 20.4862 15.5911C20.5175 15.5881 20.5479 15.5788 20.5756 15.5638C20.6032 15.5488 20.6275 15.5284 20.6471 15.5038C20.6667 15.4792 20.6811 15.4509 20.6896 15.4206C20.698 15.3903 20.7002 15.3586 20.6962 15.3274C20.6921 15.2963 20.6818 15.2662 20.6659 15.2391C20.6499 15.212 20.6287 15.1883 20.6035 15.1696C20.5782 15.1509 20.5494 15.1374 20.5189 15.13C20.4883 15.1226 20.4566 15.1214 20.4255 15.1266C20.3412 15.1375 20.2576 15.1531 20.175 15.1734C20.1194 15.1871 20.0707 15.2207 20.0382 15.2678C20.0057 15.3149 19.9915 15.3723 19.9983 15.4291C20.0052 15.486 20.0326 15.5383 20.0755 15.5763C20.1183 15.6143 20.1735 15.6356 20.2308 15.6356Z" fill="#9B506B"/>
<path d="M11.4827 19.1995C11.5292 19.128 11.5715 19.0538 11.6093 18.9773C11.6238 18.9497 11.6326 18.9194 11.6353 18.8883C11.6379 18.8572 11.6343 18.8259 11.6247 18.7962C11.6151 18.7665 11.5996 18.739 11.5792 18.7154C11.5588 18.6917 11.5339 18.6724 11.506 18.6585C11.478 18.6447 11.4475 18.6365 11.4164 18.6346C11.3852 18.6326 11.354 18.6369 11.3245 18.6472C11.295 18.6575 11.2679 18.6736 11.2447 18.6945C11.2216 18.7154 11.2028 18.7407 11.1895 18.769C11.1595 18.8293 11.126 18.8879 11.0895 18.9445C11.0723 18.9704 11.0604 18.9993 11.0545 19.0298C11.0486 19.0602 11.0488 19.0915 11.0551 19.1219C11.0614 19.1523 11.0736 19.1811 11.0911 19.2067C11.1086 19.2323 11.131 19.2542 11.1571 19.271C11.1831 19.2879 11.2122 19.2995 11.2427 19.305C11.2732 19.3105 11.3046 19.31 11.3348 19.3033C11.3651 19.2967 11.3938 19.2841 11.4192 19.2662C11.4446 19.2484 11.4662 19.2258 11.4827 19.1995ZM11.8552 18.0012C11.8568 17.9625 11.8575 17.9238 11.8575 17.8859C11.8575 17.8404 11.8575 17.7949 11.8545 17.7492C11.8514 17.6871 11.8237 17.6287 11.7775 17.5869C11.7314 17.5452 11.6705 17.5235 11.6084 17.5266C11.5462 17.5297 11.4878 17.5573 11.4461 17.6035C11.4043 17.6497 11.3826 17.7105 11.3857 17.7727C11.3874 17.8095 11.3885 17.8465 11.3883 17.8847C11.3883 17.9163 11.3883 17.9482 11.3864 17.9784C11.385 18.0092 11.3897 18.0399 11.4001 18.0689C11.4106 18.0978 11.4266 18.1244 11.4474 18.1472C11.4681 18.1699 11.4931 18.1883 11.521 18.2014C11.5489 18.2145 11.579 18.2219 11.6098 18.2234H11.6208C11.6809 18.2234 11.7387 18.2004 11.7824 18.1591C11.826 18.1177 11.852 18.0612 11.8552 18.0012ZM11.5036 17.0888C11.5319 17.0767 11.5576 17.0591 11.5791 17.0371C11.6007 17.0151 11.6177 16.9891 11.6291 16.9605C11.6406 16.9319 11.6463 16.9013 11.646 16.8706C11.6456 16.8398 11.6392 16.8093 11.6271 16.781C11.5945 16.7053 11.5589 16.6308 11.5259 16.5701C11.5224 16.5621 11.5142 16.5466 11.5097 16.5394C11.4782 16.4876 11.4276 16.4502 11.3688 16.4353C11.3101 16.4204 11.2478 16.4292 11.1954 16.4597C11.1423 16.4907 11.1032 16.5411 11.0865 16.6002C11.0697 16.6594 11.0765 16.7228 11.1054 16.777C11.1387 16.8395 11.1688 16.9026 11.1959 16.9662C11.214 17.0084 11.244 17.0443 11.2824 17.0696C11.3207 17.0948 11.3656 17.1082 11.4115 17.1082C11.4435 17.1082 11.4752 17.1016 11.5045 17.0888H11.5036ZM10.9219 16.0976C10.9426 16.0747 10.9585 16.0481 10.9689 16.0191C10.9792 15.9901 10.9837 15.9593 10.9822 15.9285C10.9806 15.8978 10.9731 15.8676 10.9599 15.8398C10.9467 15.812 10.9281 15.7871 10.9052 15.7664C10.8427 15.7097 10.7781 15.6566 10.7114 15.607C10.6868 15.5886 10.6588 15.5751 10.629 15.5675C10.5991 15.5599 10.5681 15.5582 10.5376 15.5625C10.5072 15.5669 10.4779 15.5772 10.4514 15.5929C10.4249 15.6085 10.4018 15.6293 10.3833 15.6539C10.3648 15.6785 10.3514 15.7066 10.3438 15.7364C10.3361 15.7662 10.3344 15.7972 10.3388 15.8277C10.3431 15.8581 10.3534 15.8875 10.3691 15.9139C10.3848 15.9404 10.4055 15.9636 10.4302 15.982C10.4852 16.023 10.5385 16.067 10.5902 16.114C10.6131 16.1347 10.6398 16.1506 10.6688 16.161C10.6978 16.1713 10.7285 16.1758 10.7593 16.1743C10.79 16.1727 10.8202 16.1652 10.848 16.152C10.8758 16.1388 10.9008 16.1202 10.9214 16.0973L10.9219 16.0976ZM9.97665 15.457C9.99143 15.3967 9.98163 15.3329 9.94942 15.2798C9.9172 15.2267 9.86521 15.1885 9.80486 15.1737C9.72237 15.1534 9.6388 15.1377 9.55454 15.1268C9.52355 15.1217 9.49185 15.1229 9.46133 15.1303C9.43081 15.1378 9.40209 15.1512 9.37688 15.17C9.35167 15.1887 9.33048 15.2123 9.31457 15.2394C9.29866 15.2665 9.28836 15.2965 9.28427 15.3276C9.28019 15.3588 9.2824 15.3904 9.29079 15.4207C9.29917 15.4509 9.31356 15.4792 9.33308 15.5038C9.35261 15.5284 9.37688 15.5488 9.40446 15.5639C9.43203 15.5789 9.46235 15.5882 9.49361 15.5913C9.5608 15.6003 9.62745 15.6129 9.69329 15.6291C9.71162 15.6336 9.73043 15.6359 9.74931 15.6359C9.80203 15.6362 9.8533 15.6187 9.89485 15.5862C9.9364 15.5538 9.9658 15.5083 9.97829 15.457H9.97665Z" fill="#9B506B"/>
<path d="M8.22797 17.4952C8.35567 17.4701 8.48813 17.4955 8.59743 17.5662C8.70673 17.6368 8.78434 17.7472 8.8139 17.8739L8.08898 22.6844C7.26984 22.1508 7.00312 21.6982 7.01344 20.5216C7.01719 20.0205 7.55601 17.6196 8.22797 17.4952Z" fill="#FFCEBF"/>
<path d="M7.39712 29.4541C7.39712 29.4541 8.61587 26.7164 8.78391 25.9275C8.98641 24.9731 7.84501 22.5844 7.84501 22.5844C7.54 21.673 7.55588 20.6847 7.89001 19.7836C8.20196 18.9427 8.59688 17.9004 8.87204 17.0979C8.9115 16.9818 8.98916 16.8826 9.09232 16.8163C9.19549 16.7501 9.31806 16.7208 9.44002 16.7332C9.56198 16.7457 9.67612 16.7991 9.7638 16.8848C9.85148 16.9705 9.90751 17.0834 9.92274 17.205C9.92274 17.2127 9.92438 17.2205 9.92509 17.2284C9.9654 17.6972 9.66329 19.6085 9.52922 20.2092C9.39985 20.7881 10.2792 21.5864 10.6957 22.2014C12.0281 24.1627 11.3857 25.2867 11.108 25.928C10.8706 26.4762 10.2129 29.4555 10.2129 29.4555L7.39712 29.4541Z" fill="#FFDFCF"/>
<path d="M21.772 17.4951C22.444 17.6196 22.9828 20.0205 22.987 20.5216C22.9971 21.6982 22.7306 22.1508 21.9115 22.6844L21.1875 17.8739C21.2171 17.7474 21.2945 17.6374 21.4035 17.5667C21.5124 17.4961 21.6445 17.4705 21.772 17.4951Z" fill="#FFCEBF"/>
<path d="M22.6029 29.4541C22.6029 29.4541 21.3842 26.7164 21.2161 25.9275C21.0136 24.9731 22.155 22.5844 22.155 22.5844C22.46 21.673 22.4441 20.6847 22.11 19.7836C21.7981 18.9427 21.4031 17.9004 21.128 17.0979C21.0885 16.9818 21.0109 16.8826 20.9077 16.8163C20.8045 16.7501 20.682 16.7208 20.56 16.7332C20.438 16.7457 20.3239 16.7991 20.2362 16.8848C20.1485 16.9705 20.0925 17.0834 20.0773 17.205C20.0773 17.2127 20.0756 17.2205 20.0749 17.2284C20.0346 17.6972 20.3367 19.6085 20.4708 20.2092C20.6002 20.7881 19.7208 21.5864 19.3043 22.2014C17.9719 24.1627 18.6143 25.2867 18.892 25.928C19.1295 26.4762 19.7871 29.4555 19.7871 29.4555L22.6029 29.4541Z" fill="#FFDFCF"/>
<path d="M13.1206 10.245C12.8015 10.1036 12.4615 10.0156 12.1139 9.98437C11.7792 9.9492 11.4415 9.95361 11.1077 9.99749C10.7774 10.0419 10.45 10.1066 10.1276 10.1911C9.7977 10.2704 9.47933 10.3916 9.18025 10.5518C9.14537 10.5715 9.11901 10.6033 9.10626 10.6413C9.09351 10.6793 9.09527 10.7206 9.1112 10.7573C9.12714 10.7941 9.15611 10.8236 9.19254 10.8402C9.22897 10.8568 9.27026 10.8594 9.30845 10.8473L9.31876 10.8441C9.61129 10.7582 9.91184 10.7025 10.2157 10.6779C10.5245 10.6502 10.8347 10.6409 11.1445 10.65C11.7448 10.6414 12.3448 10.681 12.9387 10.7686L12.9502 10.7707C13.017 10.7838 13.0862 10.7719 13.1449 10.7374C13.2035 10.7028 13.2475 10.648 13.2685 10.5832C13.2894 10.5185 13.286 10.4483 13.2587 10.3859C13.2315 10.3236 13.1823 10.2734 13.1206 10.2448V10.245Z" fill="#9B506B"/>
<path d="M17.0613 10.7688C17.6552 10.6813 18.2552 10.6416 18.8555 10.6502C19.1654 10.6411 19.4755 10.6505 19.7843 10.6781C20.0882 10.7028 20.3887 10.7584 20.6813 10.8443L20.6916 10.8473C20.7297 10.8591 20.7708 10.8564 20.807 10.8397C20.8432 10.8231 20.872 10.7937 20.8879 10.7571C20.9038 10.7205 20.9056 10.6794 20.893 10.6415C20.8805 10.6037 20.8544 10.5718 20.8198 10.552C20.5207 10.3918 20.2023 10.2706 19.8724 10.1913C19.55 10.1068 19.2226 10.0422 18.8923 9.99774C18.5586 9.95385 18.2208 9.94945 17.8861 9.98461C17.5382 10.0156 17.1977 10.1036 16.8783 10.245C16.8168 10.2738 16.7679 10.324 16.7408 10.3863C16.7138 10.4485 16.7104 10.5186 16.7312 10.5832C16.7521 10.6478 16.7959 10.7025 16.8543 10.7371C16.9127 10.7717 16.9817 10.7839 17.0484 10.7712L17.0613 10.7688Z" fill="#9B506B"/>
<path d="M3.56976 29.3189C3.93974 28.3499 4.52381 27.477 5.27835 26.7654C5.98148 26.1143 7.25507 25.665 8.43562 25.2738C8.29547 24.5901 8.08335 23.9231 7.8028 23.284C7.70646 23.0599 7.55427 22.8642 7.36077 22.7156C6.73921 22.2279 6.42609 21.6673 6.43616 20.5186C6.43921 20.145 6.9157 17.3388 7.93827 17.1497C8.1118 17.1167 8.29129 17.1383 8.45202 17.2116C8.47218 17.1546 8.4907 17.1005 8.50991 17.0452C7.42523 16.8398 6.40054 15.6888 6.22546 14.6402C6.15272 14.3102 6.15512 13.9681 6.23248 13.6392C6.30985 13.3102 6.46021 13.0029 6.67241 12.7399C6.20085 10.4665 5.98757 7.32586 6.89859 5.66695C8.71476 2.36273 11.8186 0.309375 15 0.307969C18.1814 0.306563 21.2852 2.36273 23.1007 5.66695C24.0117 7.32516 23.7984 10.4674 23.3269 12.7399C23.5391 13.0029 23.6894 13.3102 23.7668 13.6392C23.8442 13.9681 23.8466 14.3102 23.7738 14.6402C23.5999 15.6888 22.5741 16.8398 21.4894 17.0452C21.5086 17.1005 21.5273 17.1546 21.5473 17.2116C21.7078 17.1381 21.8872 17.1165 22.0605 17.1497C23.0836 17.3388 23.5605 20.145 23.5631 20.5186C23.5732 21.667 23.2601 22.2281 22.638 22.7159C22.4443 22.8642 22.2918 23.0598 22.1953 23.284C21.9145 23.9226 21.7023 24.5892 21.5625 25.2727C22.7398 25.6613 24.0126 26.1084 24.7202 26.7654C25.4748 27.477 26.0588 28.3499 26.4286 29.3189C26.4614 29.4047 26.4592 29.5 26.4227 29.5843C26.3861 29.6685 26.318 29.7351 26.233 29.7699C26.1479 29.8046 26.0526 29.8046 25.9676 29.7699C25.8825 29.7353 25.8143 29.6687 25.7777 29.5845C25.4457 28.7109 24.9208 27.9235 24.2421 27.281C23.693 26.7713 22.6087 26.3653 21.6094 26.0292C21.8534 26.8261 22.6226 28.6184 22.9291 29.3091C22.9663 29.3942 22.9682 29.4905 22.9346 29.5771C22.9009 29.6636 22.8344 29.7333 22.7495 29.771C22.6647 29.8087 22.5683 29.8113 22.4816 29.7781C22.3948 29.745 22.3247 29.6789 22.2865 29.5943C22.2354 29.479 21.0335 26.7663 20.8603 25.9507C20.6447 24.9331 21.6572 22.7398 21.8163 22.4032C22.0883 21.5731 22.0718 20.6755 21.7694 19.856L21.5716 19.3252C21.3056 18.6122 21.0059 17.8036 20.7834 17.1595C20.7719 17.1222 20.7489 17.0894 20.7178 17.0658C20.6875 17.0461 20.6529 17.0343 20.6169 17.0314C20.5809 17.0285 20.5448 17.0346 20.5118 17.0491C20.4816 17.0634 20.4562 17.0862 20.4388 17.1146C20.4214 17.1431 20.4127 17.1761 20.4138 17.2095C20.4097 17.2935 20.4111 17.3778 20.4183 17.4616C20.4985 18.3419 20.6269 19.2171 20.8029 20.0834C20.9339 20.6709 20.449 21.2644 19.98 21.8381C19.8302 22.0209 19.6891 22.1939 19.5837 22.3486C18.4409 24.0309 18.8669 24.9839 19.1489 25.6141L19.2033 25.7374C19.4473 26.2999 20.059 29.063 20.1279 29.3763C20.1381 29.4215 20.1393 29.4683 20.1314 29.514C20.1235 29.5597 20.1066 29.6033 20.0818 29.6425C20.0569 29.6816 20.0246 29.7154 19.9866 29.742C19.9486 29.7686 19.9057 29.7874 19.8605 29.7973C19.8152 29.8073 19.7684 29.8082 19.7228 29.8C19.6772 29.7918 19.6336 29.7746 19.5946 29.7495C19.5557 29.7244 19.522 29.6919 19.4957 29.6537C19.4694 29.6156 19.4508 29.5726 19.4412 29.5273C19.1763 28.3242 18.7226 26.396 18.5583 26.017L18.5072 25.9015C18.2983 25.4796 18.1724 25.0215 18.1362 24.5522C17.1473 23.7199 16.9934 22.5856 16.9366 21.7397C16.3957 21.9837 15.8287 22.1649 15.2466 22.2799C15.167 22.2992 15.0856 22.3101 15.0037 22.3125C14.9117 22.3095 14.8203 22.2973 14.7307 22.2762C14.1556 22.1623 13.5954 21.983 13.061 21.7418C13.0041 22.587 12.8501 23.7227 11.8608 24.5543C11.8242 25.0225 11.6984 25.4794 11.49 25.9003L11.4389 26.0159C11.2748 26.3948 10.8211 28.3228 10.556 29.5261C10.5463 29.5714 10.5278 29.6144 10.5015 29.6526C10.4751 29.6907 10.4415 29.7233 10.4025 29.7484C10.3636 29.7735 10.32 29.7906 10.2744 29.7988C10.2288 29.807 10.182 29.8061 10.1367 29.7962C10.0914 29.7862 10.0486 29.7674 10.0106 29.7408C9.97261 29.7143 9.94026 29.6804 9.91541 29.6413C9.89055 29.6022 9.87368 29.5585 9.86577 29.5128C9.85785 29.4672 9.85905 29.4204 9.86929 29.3752C9.9382 29.0618 10.549 26.299 10.7939 25.7363L10.8483 25.613C11.1295 24.9827 11.5563 24.0298 10.4135 22.3474C10.308 22.1927 10.1669 22.0193 10.0172 21.837C9.54843 21.2632 9.06327 20.6698 9.19429 20.082C9.37074 19.216 9.4996 18.341 9.58031 17.4609C9.58825 17.3701 9.58903 17.2788 9.58265 17.1879C9.58147 17.158 9.57184 17.129 9.55487 17.1044C9.5379 17.0798 9.5143 17.0604 9.48679 17.0487C9.45377 17.0341 9.41764 17.028 9.38168 17.0309C9.34571 17.0338 9.31103 17.0457 9.28077 17.0653C9.24967 17.0889 9.22679 17.1217 9.21538 17.1591C8.9932 17.8038 8.69296 18.6122 8.42695 19.3252L8.22913 19.856C7.92683 20.6755 7.91031 21.5731 8.18226 22.4032C8.34187 22.7398 9.35413 24.9331 9.13827 25.9507C8.96507 26.7663 7.7632 29.479 7.7121 29.5943C7.6739 29.6789 7.60377 29.745 7.51701 29.7781C7.43025 29.8113 7.33392 29.8087 7.24904 29.771C7.16416 29.7333 7.09764 29.6636 7.06399 29.5771C7.03034 29.4905 7.0323 29.3942 7.06945 29.3091C7.37577 28.6188 8.14406 26.8296 8.38851 26.0311C7.35726 26.378 6.30562 26.7734 5.75695 27.2813C5.07827 27.9236 4.55342 28.7109 4.22155 29.5845C4.19514 29.6492 4.15004 29.7045 4.09201 29.7435C4.03398 29.7824 3.96566 29.8032 3.89577 29.8031C3.85036 29.8032 3.80537 29.7943 3.76335 29.7771C3.72054 29.7598 3.68157 29.7341 3.64867 29.7017C3.61576 29.6693 3.58957 29.6307 3.57159 29.5881C3.55362 29.5456 3.5442 29.4999 3.54388 29.4537C3.54357 29.4075 3.55236 29.3617 3.56976 29.3189ZM22.2319 19.0793L22.4297 19.6116C22.6607 20.2382 22.7515 20.9078 22.6957 21.5733C22.8265 21.2399 22.8825 20.8819 22.8598 20.5245C22.8546 19.8848 22.2755 17.958 21.9321 17.8409C21.9065 17.836 21.88 17.8376 21.8551 17.8455C21.8303 17.8534 21.8077 17.8673 21.7896 17.8861C21.9354 18.2841 22.0887 18.6954 22.2319 19.0793ZM22.4848 6.00563C20.8181 2.97281 17.8802 1.01227 15 1.01109C12.1198 1.00992 9.18163 2.97281 7.51499 6.00563C6.7814 7.34156 6.87116 10.0327 7.29843 12.2831C7.55784 12.1706 7.83613 12.1079 8.11874 12.0984C8.34187 9.02813 8.77499 6.63281 11.2912 5.82492C11.4416 5.77787 11.5752 5.68834 11.6759 5.56711C12.7591 4.24523 14.4143 3.5618 15.8927 3.82547C17.1905 4.05727 18.1791 4.97719 18.6769 6.41578C19.2537 8.08336 19.8933 8.55844 20.4581 8.97727C21.1652 9.5025 21.7788 9.96609 21.889 12.0984C22.1684 12.1092 22.4434 12.1715 22.7001 12.2822C23.1281 10.0324 23.2186 7.34109 22.4848 6.00563ZM23.0803 14.5254C23.1363 14.294 23.1387 14.0528 23.0872 13.8204C23.0358 13.5879 22.9319 13.3703 22.7836 13.1841C22.5477 12.9442 22.227 12.8067 21.8906 12.8013C21.8847 13.1295 21.8701 13.4514 21.8468 13.7672C21.9754 13.7314 22.1095 13.7196 22.2424 13.7323C22.2886 13.7365 22.3334 13.7498 22.3744 13.7714C22.4154 13.793 22.4517 13.8224 22.4813 13.8581C22.5108 13.8938 22.533 13.935 22.5466 13.9793C22.5602 14.0236 22.5649 14.0701 22.5604 14.1162C22.556 14.1624 22.5424 14.2071 22.5206 14.248C22.4988 14.2889 22.4691 14.325 22.4332 14.3544C22.3974 14.3837 22.3561 14.4057 22.3117 14.4191C22.2673 14.4324 22.2208 14.4368 22.1747 14.4321C22.106 14.4258 21.8993 14.4066 21.7451 14.7277C21.6719 15.2726 21.5639 15.8123 21.4219 16.3434C22.1766 16.1653 22.9561 15.273 23.0803 14.5254ZM17.625 21.4606C17.663 22.1088 17.7143 22.9472 18.2226 23.6266C18.379 23.0259 18.6438 22.4588 19.0041 21.9532C19.1264 21.7727 19.2773 21.588 19.4372 21.3926C19.7487 21.0117 20.175 20.4905 20.1183 20.2362C20.078 20.0562 20.0215 19.7522 19.9631 19.4023C19.8169 19.5869 19.6591 19.762 19.4906 19.9266C18.9293 20.488 18.3012 20.9783 17.6203 21.3865C17.6215 21.412 17.6234 21.4343 17.625 21.4606ZM10.5633 21.3926C10.7231 21.588 10.8741 21.7727 10.9964 21.9532C11.3563 22.4583 11.621 23.0248 11.7773 23.625C12.285 22.9453 12.3375 22.1088 12.3757 21.4615C12.3771 21.4352 12.379 21.4127 12.3804 21.3872C11.6995 20.9782 11.0712 20.4873 10.5096 19.9256C10.3412 19.7608 10.1835 19.5855 10.0373 19.4006C9.97898 19.7508 9.92226 20.055 9.88195 20.235C9.82523 20.4905 10.2518 21.0117 10.5633 21.3926ZM9.28734 16.3341C9.45292 16.3136 9.62094 16.3386 9.77343 16.4063C9.91362 16.4684 10.0347 16.5669 10.1242 16.6914C10.2137 16.8159 10.2685 16.9621 10.2827 17.1148C10.2827 17.1148 10.2923 17.3513 10.2827 17.5045C10.2677 17.7485 10.2326 18.0649 10.189 18.3982C10.4169 18.7707 10.6893 19.1142 11.0001 19.421C11.9376 20.3297 13.0559 21.221 14.8694 21.5862C14.9564 21.6035 15.0459 21.6035 15.1329 21.5862C16.9465 21.221 18.0642 20.3297 19.0022 19.421C19.3125 19.1142 19.5845 18.7708 19.8122 18.3984C19.7679 18.0652 19.733 17.7492 19.7184 17.505C19.709 17.3863 19.708 17.2671 19.7154 17.1483C19.7154 17.1462 19.7182 17.1171 19.7184 17.1152C19.7325 16.9626 19.787 16.8164 19.8763 16.6918C19.9656 16.5672 20.0865 16.4686 20.2266 16.4063C20.3735 16.3406 20.5351 16.3145 20.6953 16.3306C21.0526 15.0799 21.2198 13.7825 21.1912 12.4821C21.1591 10.5028 20.6951 10.0289 20.0393 9.54188C19.4257 9.08602 18.6616 8.51859 18.0136 6.6457C17.4872 5.12414 16.5033 4.64883 15.7706 4.51805C14.5385 4.29703 13.1456 4.88484 12.221 6.01336C12.0344 6.23886 11.7867 6.4057 11.5076 6.49383C9.50601 7.13695 8.89968 9.04289 8.79046 12.5766C8.7545 13.8475 8.9224 15.1161 9.28734 16.3341ZM8.22843 14.6773C8.19705 14.5984 8.14091 14.5319 8.06847 14.4877C7.99603 14.4435 7.91119 14.424 7.82671 14.4321C7.78062 14.4368 7.73405 14.4324 7.68967 14.4191C7.6453 14.4057 7.60401 14.3837 7.56816 14.3544C7.53231 14.325 7.50261 14.2889 7.48079 14.248C7.45896 14.2071 7.44542 14.1624 7.44096 14.1162C7.43649 14.0701 7.44119 14.0236 7.45477 13.9793C7.46836 13.935 7.49057 13.8938 7.52012 13.8581C7.54968 13.8224 7.586 13.793 7.62699 13.7714C7.66798 13.7498 7.71284 13.7365 7.75898 13.7323C7.88474 13.7203 8.01164 13.7303 8.13398 13.7618C8.11116 13.4485 8.09671 13.1288 8.09062 12.8025C7.7607 12.8116 7.44719 12.9484 7.21616 13.1841C7.0678 13.3703 6.96394 13.5879 6.91252 13.8204C6.8611 14.0528 6.86346 14.294 6.91945 14.5254C7.04226 15.2655 7.81007 16.1477 8.55585 16.3383C8.4104 15.7924 8.30118 15.2375 8.22843 14.6773ZM8.21038 17.8861C8.19283 17.8674 8.1709 17.8533 8.14657 17.8451C8.12223 17.8369 8.09624 17.8349 8.07093 17.8392C7.72452 17.9564 7.14538 19.8839 7.14023 20.5235C7.11794 20.8801 7.17394 21.2372 7.30429 21.5698C7.24909 20.9054 7.33989 20.2371 7.5703 19.6116L7.76835 19.0793C7.91132 18.6954 8.06484 18.2841 8.21038 17.8861Z" fill="#9B506B"/>
</svg>
