<svg width="30" height="30" viewBox="0 0 30 30" fill="none" xmlns="http://www.w3.org/2000/svg">
<g clip-path="url(#clip0_157_4566)">
<path d="M25.7812 12.8958H21.0938C19.6699 12.8958 18.5156 11.7415 18.5156 10.3177V7.73953H28.3594V10.3177C28.3594 11.7415 27.2051 12.8958 25.7812 12.8958Z" fill="url(#paint0_linear_157_4566)"/>
<path d="M28.5938 4.45312L25.5469 10.0781L23.4375 9.84375L26.9531 3.51539C27.6661 2.13867 29.4867 2.99133 28.5938 4.45312Z" fill="#FFDFCF"/>
<path d="M18.2789 25.3125C17.6489 25.3041 17.3159 25.1958 17.0662 25.0331C16.4327 24.6202 15.855 23.4994 15.3647 22.9678C12.8137 20.2029 10.8429 17.8111 10.5445 17.3438C6.32578 12.4219 2.10703 4.21875 2.10703 4.21875C1.53023 2.97164 0.981797 1.99148 0.46875 1.17188V12.6562C4.68656 18.0497 8.43516 20.1562 8.43516 20.1562C8.9625 20.5177 9.13828 20.8594 9.13828 21.3281C9.13828 21.9884 9.04453 22.6324 8.90391 23.4375C8.73398 24.4097 9.71273 24.7983 10.3102 24.8438C10.8637 24.8791 12.1043 24.7643 12.6539 24.8438C13.1302 24.9127 13.3784 25.0638 13.8258 25.3125C14.2957 25.5736 14.543 25.7379 14.9977 26.0156C16.4761 26.7183 18.0066 26.4848 18.5133 26.25C18.9966 25.9936 18.6487 25.3174 18.2789 25.3125Z" fill="#FFDFCF"/>
<path d="M19.2187 23.2031C19.7461 23.5645 19.9219 23.9062 19.9219 24.375C19.9219 25.0352 19.8281 25.6793 19.6875 26.4844C19.5176 27.4566 20.4963 27.8452 21.0937 27.8906C21.6473 27.926 22.8879 27.8112 23.4375 27.8906C23.9137 27.9595 24.162 28.1107 24.6094 28.3594C25.0793 28.6205 25.3266 28.7848 25.7812 29.0625C27.2597 29.7652 28.7902 29.5317 29.2969 29.2969C29.7802 29.0405 29.4323 28.3643 29.0625 28.3594C28.4325 28.3509 28.0995 28.2427 27.8498 28.08C27.2163 27.667 26.6386 26.5463 26.1483 26.0147C23.5973 23.2498 21.6265 20.858 21.3281 20.3906C17.1094 15.4688 12.8906 7.26562 12.8906 7.26562C9.63867 0.234375 7.26562 0.46875 7.26562 0.46875C2.95898 0.46875 0.46875 12.6562 0.46875 12.6562V27.8906C2.8125 27.8906 4.45312 24.6094 4.45312 24.6094C6.09375 22.2656 7.73414 10.5469 7.73414 10.5469C13.1248 19.9219 19.2187 23.2031 19.2187 23.2031Z" fill="#FFDFCF"/>
<path d="M28.5912 7.73953H18.2838C18.0234 7.73953 17.8125 7.52859 17.8125 7.2682C17.8125 7.00781 18.0234 6.79688 18.2838 6.79688H28.5912C28.8516 6.79688 29.0625 7.00781 29.0625 7.2682C29.0625 7.52836 28.8516 7.73953 28.5912 7.73953Z" fill="#FFDFCF"/>
<path d="M17.5889 15.2981C14.9295 11.2287 12.8906 7.26562 12.8906 7.26562C12.8079 7.08656 12.7259 6.91523 12.6443 6.74554L10.3125 8.67187C10.1466 8.82679 9.88057 9.00094 10.3125 9.60937L14.7656 16.6406C14.9255 16.8755 15.0806 17.0287 15.7031 16.6406L17.5889 15.2981Z" fill="#ABCA74"/>
<path d="M28.3594 9.74555C27.3368 9.50602 27.079 8.90625 25.5469 8.90625C23.6327 8.90625 23.4766 9.84375 21.5625 9.84375C19.9205 9.84375 19.7412 9.15516 18.5156 8.95922V10.3177C18.5156 11.7415 19.6699 12.8958 21.0938 12.8958H25.7812C27.2051 12.8958 28.3594 11.7415 28.3594 10.3177V9.74555Z" fill="#F59398"/>
<path d="M29.749 28.7416C29.6651 28.3943 29.3726 28.1292 29.0683 28.125C28.4226 28.1163 28.1559 27.9982 27.9804 27.8836C27.6199 27.6488 27.2496 27.1172 26.9229 26.6484C26.7133 26.3482 26.5158 26.0646 26.3231 25.8558C23.7504 23.0674 21.8062 20.6993 21.5283 20.2645C21.5224 20.2552 21.5158 20.2465 21.5088 20.2383C17.3566 15.394 13.1437 7.24032 13.106 7.16719C9.82241 0.0675036 7.34952 0.226878 7.26819 0.234378C5.38545 0.234378 3.85616 2.36227 2.7103 4.85438C2.46233 4.39125 2.32241 4.12055 2.32217 4.12055C1.80561 3.00375 1.26514 1.99852 0.669829 1.04789C0.614517 0.958831 0.507173 0.917581 0.406626 0.946644C0.306313 0.975472 0.236938 1.06735 0.236938 1.17188V12.6563V27.8906C0.236938 28.0202 0.341938 28.125 0.471313 28.125C2.87225 28.125 4.51475 25.0097 4.65749 24.7298C5.2985 23.8003 5.93085 21.5302 6.4685 19.0734C7.59538 19.9481 8.28983 20.3423 8.30506 20.3498C8.80569 20.693 8.90624 20.9787 8.90624 21.3284C8.90624 21.9546 8.82163 22.5612 8.67538 23.3974C8.60881 23.7783 8.68967 24.1287 8.90928 24.4111C9.251 24.8508 9.84913 25.0437 10.2977 25.0779C10.5448 25.0934 10.9092 25.0814 11.2948 25.0683C11.779 25.0516 12.3276 25.0331 12.6227 25.0758C13.0275 25.1344 13.2431 25.2548 13.635 25.4733L13.7142 25.5173C14.0555 25.707 14.2746 25.8429 14.5523 26.0149C14.6517 26.0766 14.7574 26.142 14.8779 26.2155C14.8849 26.2198 14.8922 26.2235 14.8994 26.2273C15.6726 26.5945 16.4536 26.7176 17.1126 26.7176C17.7963 26.7176 18.3487 26.5854 18.6253 26.4572C18.9117 26.3053 19.042 26.013 18.9651 25.6948C18.8812 25.3474 18.5887 25.0823 18.2845 25.0781C17.6388 25.0695 17.3721 24.9513 17.1965 24.8367C16.8361 24.6016 16.4655 24.0701 16.1388 23.6013C15.9295 23.3011 15.7319 23.0175 15.5393 22.8087C12.9665 20.0203 11.0224 17.6524 10.7444 17.2177C10.7386 17.2083 10.732 17.1996 10.725 17.1914C9.75702 16.0617 8.70467 14.6566 7.59749 13.0158C7.71514 12.2869 7.80866 11.673 7.87241 11.2437C13.0355 19.935 18.7912 23.2317 19.0978 23.4028C19.5907 23.7431 19.6901 24.0274 19.6901 24.375C19.6901 25.0003 19.6055 25.6071 19.4592 26.4441C19.3926 26.8249 19.4735 27.1753 19.6931 27.4577C20.0348 27.8974 20.633 28.0903 21.0815 28.1245C21.3288 28.1402 21.693 28.1283 22.0786 28.1149C22.5628 28.0985 23.1115 28.0798 23.4065 28.1224C23.8113 28.181 24.0269 28.3015 24.4188 28.5199L24.498 28.564C24.8393 28.7536 25.0584 28.8895 25.3362 29.0616C25.4355 29.1232 25.5412 29.1886 25.6617 29.2622C25.6687 29.2664 25.676 29.2702 25.6833 29.2739C26.4565 29.6412 27.2374 29.7642 27.8965 29.7642C28.5801 29.7642 29.1326 29.632 29.4091 29.5038C29.6958 29.352 29.8258 29.0599 29.749 28.7416ZM17.2746 15.2363L15.5817 16.4416C15.1146 16.733 15.0668 16.6622 14.9662 16.515L10.5063 9.47367C10.222 9.07313 10.3087 8.99414 10.4405 8.87485L12.5644 7.11797C12.6047 7.20328 12.6443 7.28508 12.6848 7.37274C12.7137 7.42899 14.6918 11.257 17.2746 15.2363ZM1.90124 4.3261C1.90124 4.3261 2.10819 4.72711 2.46959 5.39555C1.67014 7.25414 1.07834 9.24 0.705688 10.6594V2.01469C1.12428 2.73657 1.51803 3.49805 1.90124 4.3261ZM10.3589 17.4844C10.6819 17.9768 12.5923 20.3058 15.1948 23.1265C15.3656 23.3119 15.5543 23.5826 15.7542 23.8695C16.1226 24.398 16.5037 24.9445 16.9406 25.2295C17.2694 25.4438 17.6695 25.5387 18.2782 25.5469C18.3551 25.5478 18.4753 25.6631 18.5095 25.8049C18.5447 25.9505 18.4671 26.0105 18.4172 26.0374C17.9702 26.2448 16.5197 26.4731 15.112 25.8094L14.7994 25.6165C14.5165 25.4412 14.2929 25.3027 13.942 25.1077L13.8633 25.0636C13.4519 24.8341 13.1801 24.6825 12.69 24.6117C12.3539 24.563 11.8073 24.5815 11.279 24.5993C10.9052 24.612 10.5518 24.6239 10.3305 24.6098C9.97475 24.5827 9.51163 24.4216 9.27936 24.123C9.13944 23.9428 9.09303 23.7319 9.13733 23.4776C9.28803 22.616 9.37522 21.9884 9.37522 21.3279C9.37522 20.7577 9.13452 20.3494 8.5528 19.9519C8.54483 19.9474 7.7803 19.5124 6.57842 18.5634C6.93795 16.8645 7.25061 15.1153 7.4878 13.687C8.49936 15.1624 9.46381 16.4391 10.3589 17.4844ZM29.201 29.0843C28.754 29.2917 27.3035 29.52 25.8958 28.8563L25.5832 28.6634C25.3003 28.488 25.0767 28.3495 24.7258 28.1545L24.6471 28.1105C24.2358 27.881 23.9639 27.7294 23.4738 27.6586C23.1377 27.6096 22.5912 27.6281 22.0629 27.6462C21.6888 27.6586 21.3356 27.6708 21.1144 27.6567C20.7586 27.6295 20.2955 27.4685 20.0632 27.1699C19.9233 26.9897 19.8769 26.7787 19.9212 26.5245C20.0719 25.6622 20.159 25.0343 20.159 24.3748C20.159 23.8045 19.9183 23.3963 19.354 23.0095C19.3472 23.0048 19.3399 23.0006 19.3326 22.9966C19.2722 22.9638 13.2298 19.6296 7.93991 10.4299C7.88999 10.3432 7.79108 10.2968 7.69217 10.3167C7.59397 10.3357 7.5185 10.4152 7.50467 10.5143C7.48827 10.631 5.85374 22.2035 4.26374 24.4748C4.25717 24.4842 4.25131 24.4941 4.24616 24.5044C4.23092 24.5346 2.75506 27.4331 0.705688 27.6441V12.6804C0.765454 12.3949 1.38514 9.50321 2.47381 6.64617C3.5067 3.93493 5.17709 0.703128 7.2867 0.702425C7.30686 0.703831 9.41483 0.651566 12.3562 6.68203L10.1555 8.50055L10.1259 8.52774C9.85241 8.77571 9.66256 9.09492 10.1175 9.73477L14.5748 16.7726C14.7281 16.9973 14.8973 17.1096 15.1137 17.1096C15.3103 17.1096 15.5454 17.0168 15.8421 16.8314L17.5317 15.6288C18.667 17.355 19.9066 19.087 21.143 20.5313C21.4657 21.0237 23.3763 23.3527 25.9788 26.1736C26.1497 26.359 26.3386 26.6297 26.5385 26.9166C26.9069 27.4451 27.2878 27.9916 27.7247 28.2764C28.0535 28.4906 28.4536 28.5855 29.0623 28.5938C29.1391 28.5947 29.2594 28.71 29.2936 28.8518C29.3285 28.9973 29.2509 29.0573 29.201 29.0843Z" fill="#9B506B"/>
<path d="M18.2838 7.97345V10.3174C18.2838 11.8683 19.5455 13.1299 21.0963 13.1299H25.7838C27.3347 13.1299 28.5963 11.8683 28.5963 10.3174V7.97345C28.9842 7.97204 29.2994 7.65634 29.2994 7.26798C29.2994 6.87892 28.9828 6.56228 28.5937 6.56228H27.7202L28.7962 4.57501C29.1105 4.06032 29.1576 3.53345 28.9249 3.12915C28.7264 2.78438 28.3423 2.57228 27.9349 2.58517C27.4453 2.59618 27.0124 2.89571 26.7508 3.40126L24.9949 6.56251H18.2864C17.8973 6.56251 17.5807 6.87915 17.5807 7.26821C17.5807 7.65634 17.8959 7.97204 18.2838 7.97345ZM24.2109 7.97368L23.5812 9.10735C23.5408 9.1254 23.5005 9.14345 23.4607 9.16149C22.9521 9.39189 22.4716 9.60939 21.5651 9.60939C20.6641 9.60939 20.2415 9.39446 19.7939 9.16665C19.4967 9.01548 19.1906 8.85985 18.7526 8.7647V7.97368H24.2109ZM28.1276 9.43243C27.9101 9.35649 27.7244 9.26345 27.5327 9.16595C27.2414 9.01759 26.9426 8.86665 26.524 8.77126L26.9559 7.97392H28.1276V9.43243ZM26.0318 8.69579C25.8837 8.68173 25.7269 8.67189 25.5497 8.67189C25.0115 8.67189 24.6061 8.74384 24.2622 8.84649L24.7472 7.97368H26.423L26.0318 8.69579ZM25.7838 12.6612H21.0963C19.804 12.6612 18.7526 11.6098 18.7526 10.3174V9.24728C19.0802 9.33095 19.3258 9.45446 19.5815 9.58454C20.0585 9.82735 20.5519 10.0781 21.5651 10.0781C22.5726 10.0781 23.1225 9.82923 23.654 9.58853C24.1626 9.35813 24.6431 9.14064 25.5494 9.14064C26.4506 9.14064 26.873 9.35579 27.3201 9.5836C27.5592 9.70524 27.81 9.82876 28.1276 9.92274V10.3177C28.1276 11.6098 27.0762 12.6612 25.7838 12.6612ZM27.1638 3.62321C27.3476 3.26837 27.6323 3.06118 27.9452 3.05415C28.1817 3.0422 28.4055 3.16712 28.5185 3.36329C28.665 3.61806 28.6216 3.96165 28.3901 4.34134L27.1873 6.56251H25.5312L27.1638 3.62321ZM18.2864 7.03126H28.5937C28.7243 7.03126 28.8307 7.13743 28.8307 7.26821C28.8307 7.39899 28.7243 7.50517 28.5937 7.50517H18.2864C18.1558 7.50517 18.0494 7.39899 18.0494 7.26821C18.0494 7.13743 18.1558 7.03126 18.2864 7.03126Z" fill="#9B506B"/>
</g>
<defs>
<linearGradient id="paint0_linear_157_4566" x1="18.5156" y1="10.3177" x2="28.3594" y2="10.3177" gradientUnits="userSpaceOnUse">
<stop stop-color="#F0F1F1"/>
<stop offset="1" stop-color="#E5E6E7"/>
</linearGradient>
<clipPath id="clip0_157_4566">
<rect width="30" height="30" fill="white"/>
</clipPath>
</defs>
</svg>
