<svg width="30" height="30" viewBox="0 0 30 30" fill="none" xmlns="http://www.w3.org/2000/svg">
<g clip-path="url(#clip0_798_1032)">
<path d="M23.8778 5.69521C29.143 7.85552 27.5879 12.5984 26.7951 14.3439C26.7691 14.4009 26.7268 14.4489 26.6733 14.4818C26.6199 14.5146 26.5578 14.531 26.495 14.5286C26.4322 14.5262 26.3716 14.5053 26.3208 14.4685C26.27 14.4317 26.2314 14.3807 26.2098 14.3219L23.1526 5.95843L23.8778 5.69521Z" fill="#E5D5F5"/>
<path d="M27.4982 19.1554C24.9877 22.2557 21.2976 25.203 17.0518 24.1743C15.3421 23.7599 13.8872 22.6015 13.1615 21.0643C12.8638 20.4378 12.6964 19.7578 12.6695 19.0653C12.5966 17.1827 13.4588 15.3709 13.09 13.4786C12.726 11.615 11.4191 10.025 9.51993 9.59922C9.05153 9.4949 8.57013 9.46054 8.09156 9.49727C6.83103 9.80884 5.69505 10.573 4.98837 12.1506C4.51667 13.2018 4.23753 14.6159 4.23753 16.4976C4.23724 16.9677 4.29253 17.4361 4.40228 17.8933C3.34756 17.4231 2.44832 16.5811 1.86399 15.5783C1.03762 14.1549 0.797789 12.4455 0.957232 10.8108C1.1339 8.96994 1.83572 7.13042 3.17001 5.84241C4.74236 4.32325 7.05054 3.72209 9.23726 3.86271C11.424 4.00333 13.5157 4.81279 15.4675 5.8011C17.4192 6.78941 19.2774 7.96536 21.2534 8.91105C23.3831 9.93188 26.3578 10.8108 28.4721 9.33951C28.5219 9.30515 28.5797 9.28386 28.64 9.27764C28.7003 9.27141 28.7612 9.28045 28.8171 9.3039C28.8729 9.32735 28.9219 9.36446 28.9595 9.41178C28.9971 9.45911 29.0221 9.51512 29.0321 9.57461C29.5414 12.5079 28.6209 15.7035 26.6118 17.9056C26.5675 17.9532 26.537 18.0119 26.5236 18.0755C26.5102 18.139 26.5143 18.2049 26.5356 18.2663C26.5569 18.3276 26.5946 18.3821 26.6446 18.4238C26.6945 18.4655 26.7549 18.493 26.8193 18.5032C26.9695 18.5265 27.1206 18.5525 27.2707 18.5758C27.3335 18.5851 27.3927 18.6107 27.4423 18.6501C27.4919 18.6895 27.5302 18.7412 27.5533 18.8C27.5763 18.8588 27.5834 18.9226 27.5737 18.9851C27.5641 19.0475 27.538 19.1062 27.4982 19.1554Z" fill="#F59398"/>
<path d="M27.2707 18.5758C27.1206 18.5525 26.9695 18.5265 26.8193 18.5032C26.7549 18.4929 26.6945 18.4654 26.6446 18.4236C26.5946 18.3818 26.557 18.3274 26.5357 18.266C26.5144 18.2046 26.5102 18.1387 26.5236 18.0751C26.537 18.0116 26.5675 17.9528 26.6118 17.9052C28.6209 15.7035 29.5414 12.5079 29.0321 9.57505C29.0221 9.51552 28.9972 9.45946 28.9596 9.41208C28.9221 9.3647 28.8731 9.32753 28.8172 9.30403C28.7613 9.28054 28.7004 9.27147 28.6401 9.27767C28.5797 9.28387 28.5219 9.30514 28.4721 9.33951C28.111 9.59021 27.7122 9.7823 27.2906 9.90859C27.7402 12.7984 26.818 15.9189 24.8451 18.0823C24.8008 18.1299 24.7703 18.1887 24.7569 18.2522C24.7436 18.3158 24.7477 18.3817 24.769 18.4431C24.7903 18.5045 24.828 18.5589 24.8779 18.6007C24.9278 18.6425 24.9882 18.67 25.0527 18.6803C25.2028 18.7036 25.3539 18.7296 25.504 18.7529C25.5668 18.7622 25.626 18.7878 25.6756 18.8272C25.7252 18.8666 25.7635 18.9183 25.7866 18.9771C25.8097 19.0359 25.8167 19.0997 25.807 19.1621C25.7974 19.2246 25.7713 19.2833 25.7315 19.3325C23.9061 21.5868 21.4566 23.7599 18.6237 24.3826C22.2061 24.4617 25.3026 21.8676 27.4982 19.1567C27.538 19.1075 27.5641 19.0488 27.5737 18.9864C27.5834 18.924 27.5763 18.8601 27.5533 18.8013C27.5302 18.7425 27.4919 18.6908 27.4423 18.6514C27.3927 18.612 27.3335 18.5864 27.2707 18.5771" fill="#E97E83"/>
<path d="M12.1196 24.779V20.8539H7.24399V24.779C7.24391 24.8815 7.21073 24.9813 7.14935 25.0637C7.08796 25.146 7.00161 25.2066 6.90302 25.2364C5.03121 25.8002 1.96866 26.3504 1.96866 28.908V29.1835C1.96866 29.2332 1.97853 29.2824 1.99771 29.3283C2.0169 29.3742 2.04501 29.4159 2.08043 29.4509C2.11585 29.486 2.15789 29.5137 2.20412 29.5325C2.25036 29.5513 2.29987 29.5609 2.34982 29.5606H17.016C17.1165 29.5606 17.2129 29.5208 17.2839 29.4501C17.355 29.3794 17.3949 29.2835 17.3949 29.1835V28.908C17.3949 26.3504 14.3324 25.8002 12.4606 25.2364C12.362 25.2066 12.2756 25.146 12.2143 25.0637C12.1529 24.9813 12.1197 24.8815 12.1196 24.779Z" fill="#FFDFCF"/>
<path d="M12.4606 25.2364C12.362 25.2066 12.2756 25.146 12.2142 25.0637C12.1529 24.9813 12.1197 24.8815 12.1196 24.779V20.8539H10.5296V25.1305C10.5297 25.2331 10.5628 25.3329 10.6242 25.4152C10.6856 25.4976 10.772 25.5581 10.8706 25.588C12.7424 26.1518 15.8049 26.3504 15.8049 28.908V29.1835C15.8049 29.2835 15.765 29.3794 15.6939 29.4501C15.6229 29.5208 15.5265 29.5606 15.426 29.5606H17.016C17.1165 29.5606 17.2129 29.5208 17.2839 29.4501C17.355 29.3794 17.3949 29.2835 17.3949 29.1835V28.908C17.3949 26.3504 14.3324 25.8002 12.4606 25.2364Z" fill="#FFCEBF"/>
<path d="M4.61296 14.4111C3.1285 14.4111 1.92538 15.37 1.92538 16.5526C1.92538 17.7351 3.1285 18.6935 4.61296 18.6935C6.09742 18.6935 7.30054 17.7351 7.30054 16.5526C7.30054 15.37 6.09742 14.4111 4.61296 14.4111Z" fill="#FFCEBF"/>
<path d="M12.6695 19.0653C12.6964 19.7578 12.8638 20.4378 13.1615 21.0643C12.0132 22.2385 10.6095 22.9166 9.68158 22.9166C8.09775 22.9166 5.12971 20.9391 4.40139 17.8933C4.29165 17.4361 4.23636 16.9677 4.23665 16.4976C4.23665 14.6159 4.51755 13.2018 4.98749 12.1506C5.69417 10.573 6.83015 9.80885 8.09068 9.49728C8.56896 9.46064 9.05005 9.495 9.51817 9.59923C11.4174 10.0251 12.7243 11.615 13.0882 13.4786C13.457 15.3709 12.5957 17.1832 12.6677 19.0653" fill="#FFDFCF"/>
<path d="M8.38969 22.4741C8.27692 22.4735 8.16438 22.4639 8.05313 22.4455C8.65336 22.7531 9.22489 22.9166 9.68158 22.9166C10.6091 22.9166 12.0123 22.2385 13.1615 21.0643C12.9076 20.5288 12.7481 19.9539 12.6902 19.3646C11.5353 21.2981 9.56542 22.4741 8.38969 22.4741Z" fill="#FFCEBF"/>
<path d="M22.7374 5.69521C17.4727 7.85552 19.0274 12.5984 19.8202 14.3439C19.8461 14.4009 19.8884 14.4489 19.9419 14.4818C19.9953 14.5146 20.0574 14.531 20.1202 14.5286C20.183 14.5262 20.2436 14.5053 20.2944 14.4685C20.3452 14.4317 20.3839 14.3807 20.4054 14.3219L23.4648 5.95843L22.7374 5.69521Z" fill="#F2EAFA"/>
<path d="M23.3076 4.54605C23.0571 4.54605 22.8122 4.61997 22.6039 4.75845C22.3955 4.89694 22.2332 5.09378 22.1373 5.32407C22.0414 5.55437 22.0164 5.80778 22.0652 6.05226C22.1141 6.29674 22.2348 6.5213 22.4119 6.69756C22.5891 6.87382 22.8148 6.99386 23.0605 7.04249C23.3062 7.09112 23.5609 7.06616 23.7924 6.97077C24.0238 6.87538 24.2217 6.71384 24.3608 6.50658C24.5 6.29932 24.5743 6.05565 24.5743 5.80638C24.5743 5.47212 24.4409 5.15155 24.2033 4.91519C23.9658 4.67884 23.6436 4.54605 23.3076 4.54605Z" fill="#ABCA74"/>
<path d="M24.6388 10.4671C24.5481 10.4671 24.4596 10.4393 24.3853 10.3875C24.311 10.3357 24.2546 10.2624 24.2236 10.1775L23.1327 7.19414C23.1116 7.13964 23.1015 7.08149 23.1032 7.02309C23.1049 6.96469 23.1183 6.90721 23.1426 6.85402C23.1669 6.80083 23.2017 6.753 23.2447 6.71331C23.2878 6.67363 23.3385 6.6429 23.3936 6.62291C23.4488 6.60293 23.5075 6.59409 23.5661 6.59692C23.6248 6.59975 23.6823 6.61419 23.7352 6.63939C23.7882 6.66459 23.8356 6.70005 23.8747 6.74369C23.9137 6.78734 23.9436 6.83829 23.9626 6.89356L25.054 9.87695C25.0784 9.94337 25.0863 10.0147 25.077 10.0848C25.0678 10.1549 25.0417 10.2217 25.0009 10.2797C24.9602 10.3376 24.906 10.3849 24.843 10.4175C24.7799 10.4502 24.7099 10.4672 24.6388 10.4671Z" fill="#9B506B"/>
<path d="M27.5591 10.2571C27.4547 10.2569 27.3538 10.22 27.2741 10.1528C27.1945 10.0857 27.1413 9.99259 27.1241 9.89013C26.871 8.38416 25.94 7.20952 24.3561 6.39787C24.2543 6.34325 24.1781 6.25107 24.1439 6.14115C24.1097 6.03122 24.1201 5.91233 24.1731 5.81C24.226 5.70768 24.3171 5.63009 24.4269 5.59392C24.5367 5.55774 24.6564 5.56586 24.7603 5.61654C26.6056 6.56178 27.6939 7.95087 27.9955 9.74732C28.0148 9.86223 27.9875 9.98006 27.9195 10.0749C27.8515 10.1698 27.7484 10.2339 27.6329 10.2531C27.6085 10.2566 27.5838 10.2579 27.5591 10.2571Z" fill="#9B506B"/>
<path d="M22.6919 5.14458C22.6013 5.14448 22.5129 5.11664 22.4387 5.06484C22.3645 5.01303 22.3081 4.93977 22.2772 4.85499L21.1059 1.65407C21.0684 1.5452 21.0754 1.42605 21.1253 1.32224C21.1752 1.21842 21.264 1.13821 21.3727 1.09885C21.4813 1.05949 21.6012 1.06411 21.7065 1.11172C21.8118 1.15934 21.8941 1.24614 21.9358 1.35349L23.1084 4.55441C23.1328 4.62083 23.1407 4.69212 23.1315 4.76223C23.1222 4.83234 23.0961 4.89919 23.0554 4.95712C23.0146 5.01505 22.9604 5.06234 22.8974 5.09498C22.8343 5.12761 22.7643 5.14463 22.6932 5.14458H22.6919Z" fill="#9B506B"/>
<path d="M20.4889 4.07315C20.1383 4.0723 19.7965 3.96449 19.5095 3.76426C19.2225 3.56404 19.0041 3.28104 18.8838 2.95345L18.6387 2.28286C18.5619 2.07303 18.5275 1.85021 18.5372 1.62712C18.547 1.40404 18.6009 1.18506 18.6957 0.982678C18.7906 0.780299 18.9245 0.598489 19.09 0.447627C19.2555 0.296766 19.4492 0.179807 19.6601 0.10343C19.871 0.0270526 20.0949 -0.00724811 20.3191 0.00248633C20.5433 0.0122208 20.7634 0.0657997 20.9668 0.160164C21.1702 0.254528 21.353 0.38783 21.5046 0.552458C21.6562 0.717086 21.7738 0.909817 21.8505 1.11965L22.0957 1.79024C22.1896 2.04736 22.2199 2.3232 22.184 2.59444C22.1481 2.86567 22.0471 3.12431 21.8894 3.34847C21.7318 3.57264 21.5222 3.75573 21.2784 3.88225C21.0347 4.00877 20.7638 4.07501 20.4889 4.07535V4.07315ZM20.2451 0.879269C20.1485 0.879496 20.0527 0.896295 19.9619 0.928927C19.756 1.0038 19.5884 1.15694 19.4959 1.35469C19.4034 1.55244 19.3936 1.77864 19.4686 1.98359L19.7137 2.65375C19.7508 2.7553 19.8077 2.84857 19.8811 2.92823C19.9545 3.0079 20.0429 3.07239 20.1414 3.11802C20.2398 3.16364 20.3463 3.18952 20.4549 3.19416C20.5634 3.19879 20.6717 3.18211 20.7737 3.14505C20.8758 3.10811 20.9695 3.05152 21.0496 2.97851C21.1297 2.9055 21.1945 2.8175 21.2404 2.71955C21.2862 2.6216 21.3122 2.51561 21.3169 2.40766C21.3215 2.2997 21.3048 2.19188 21.2675 2.09038L21.022 1.41979C20.9639 1.26126 20.8581 1.12436 20.7192 1.02766C20.5802 0.930967 20.4146 0.879159 20.2451 0.879269Z" fill="#9B506B"/>
<path d="M2.05839 16.3263C1.98562 16.3263 1.91395 16.3085 1.84977 16.2744C1.78558 16.2403 1.73086 16.1909 1.69047 16.1307C1.61936 16.0252 1.54958 15.9132 1.48289 15.7985C0.452907 14.0262 0.389307 12.0852 0.517392 10.7668C0.722769 8.64784 1.55576 6.78635 2.86267 5.52514C3.20852 5.19235 3.58853 4.89659 3.99644 4.64274C4.04557 4.61204 4.10029 4.59127 4.15749 4.58161C4.21469 4.57195 4.27323 4.57359 4.32979 4.58645C4.38635 4.5993 4.43981 4.62311 4.48711 4.65652C4.53442 4.68993 4.57465 4.73228 4.60551 4.78116C4.63637 4.83004 4.65724 4.88449 4.66695 4.9414C4.67666 4.99831 4.67501 5.05656 4.66209 5.11283C4.64917 5.1691 4.62524 5.22229 4.59166 5.26936C4.55808 5.31643 4.51551 5.35646 4.46638 5.38716C4.11068 5.60811 3.77937 5.86573 3.47792 6.15575C2.32118 7.27194 1.58226 8.93963 1.39676 10.8512C1.28104 12.0412 1.33404 13.788 2.24742 15.3586C2.30484 15.4566 2.36446 15.5524 2.42409 15.6425C2.46855 15.7086 2.49413 15.7855 2.49811 15.8649C2.50208 15.9444 2.48431 16.0234 2.44668 16.0936C2.40905 16.1638 2.35297 16.2225 2.28443 16.2635C2.21589 16.3045 2.13746 16.3262 2.0575 16.3263H2.05839Z" fill="#9B506B"/>
<path d="M19.6824 8.54676C19.6089 8.5467 19.5367 8.52843 19.4721 8.49359C18.9222 8.1974 18.3702 7.88716 17.8357 7.58702C16.9996 7.11725 16.1349 6.6321 15.2687 6.1931C12.9464 5.01758 11.0207 4.41554 9.20855 4.29953C8.20748 4.23186 7.20217 4.33591 6.23654 4.60714C6.12402 4.6396 6.00316 4.62626 5.90053 4.57005C5.79791 4.51385 5.72193 4.41938 5.6893 4.30744C5.65668 4.1955 5.67009 4.07524 5.72658 3.97313C5.78307 3.87103 5.87801 3.79543 5.99052 3.76297C7.05441 3.46301 8.16223 3.34736 9.26552 3.42108C11.2014 3.545 13.2362 4.17693 15.6698 5.40869C16.5531 5.85604 17.4259 6.34602 18.2703 6.82018C18.8003 7.11857 19.3502 7.42662 19.8935 7.71973C19.9798 7.76633 20.0481 7.84025 20.0875 7.92979C20.1269 8.01934 20.1351 8.11939 20.111 8.21413C20.0868 8.30886 20.0316 8.39288 19.954 8.45289C19.8765 8.51289 19.781 8.54546 19.6828 8.54544L19.6824 8.54676Z" fill="#9B506B"/>
<path d="M17.0155 30H2.34982C2.13217 29.9998 1.92351 29.9136 1.76965 29.7604C1.61579 29.6073 1.52931 29.3996 1.52919 29.1831V28.9084C1.52919 27.7487 2.08658 26.8149 3.1859 26.1329C4.07896 25.5783 5.17343 25.2707 6.13848 24.9991C6.36418 24.9358 6.5775 24.8756 6.7767 24.8159C6.78467 24.8136 6.79169 24.8088 6.79671 24.8022C6.80172 24.7957 6.80446 24.7877 6.80452 24.7794V21.9538C6.80452 21.8372 6.85106 21.7254 6.93389 21.643C7.01672 21.5606 7.12906 21.5143 7.2462 21.5143C7.36333 21.5143 7.47567 21.5606 7.5585 21.643C7.64133 21.7254 7.68787 21.8372 7.68787 21.9538V24.7794C7.68906 24.9768 7.62579 25.1692 7.50758 25.3277C7.38937 25.4862 7.22262 25.6022 7.03243 25.6583C6.82572 25.7207 6.60842 25.7818 6.37875 25.8464C4.61206 26.3434 2.41253 26.9617 2.41253 28.9097V29.1224H16.9533V28.9097C16.9533 28.2444 16.7112 27.7017 16.2126 27.2513C16.1275 27.1725 16.0771 27.0635 16.0722 26.948C16.0674 26.8324 16.1085 26.7197 16.1867 26.6341C16.2648 26.5485 16.3737 26.497 16.4898 26.4908C16.6059 26.4846 16.7197 26.5242 16.8066 26.6009C17.4899 27.2188 17.8366 27.9953 17.8366 28.9097V29.1844C17.836 29.4008 17.7493 29.6081 17.5954 29.7609C17.4415 29.9138 17.233 29.9998 17.0155 30Z" fill="#9B506B"/>
<path d="M14.7224 26.3671C14.6696 26.367 14.6172 26.3574 14.5678 26.339C14.044 26.1443 13.5056 25.9927 12.9844 25.8464C12.7556 25.7822 12.5392 25.7211 12.3325 25.6592C12.1425 25.6028 11.9761 25.4867 11.8581 25.3282C11.74 25.1698 11.6768 24.9775 11.6779 24.7803V21.9533C11.6779 21.8368 11.7245 21.725 11.8073 21.6426C11.8901 21.5602 12.0025 21.5139 12.1196 21.5139C12.2368 21.5139 12.3491 21.5602 12.4319 21.6426C12.5148 21.725 12.5613 21.8368 12.5613 21.9533V24.7794C12.5613 24.7875 12.5639 24.7953 12.5688 24.8018C12.5736 24.8083 12.5805 24.8131 12.5882 24.8154C12.787 24.8756 12.9999 24.9354 13.2247 24.9987C13.7375 25.1428 14.3191 25.3063 14.877 25.5137C14.974 25.5497 15.0553 25.6185 15.1065 25.708C15.1578 25.7976 15.1757 25.9022 15.1573 26.0036C15.1389 26.105 15.0853 26.1968 15.0058 26.2628C14.9263 26.3288 14.826 26.365 14.7224 26.3649V26.3671Z" fill="#9B506B"/>
<path d="M4.61295 19.1325C2.88734 19.1325 1.4837 17.975 1.4837 16.5521C1.4837 15.885 1.78934 15.2531 2.34408 14.7724C2.87011 14.3167 3.58076 14.0359 4.33956 13.9814C4.4564 13.9731 4.57177 14.0113 4.66027 14.0877C4.74877 14.164 4.80317 14.2723 4.81148 14.3885C4.8198 14.5048 4.78136 14.6195 4.70462 14.7076C4.62788 14.7957 4.51912 14.8498 4.40227 14.8581C3.26099 14.9416 2.36705 15.6833 2.36705 16.5521C2.36705 17.4903 3.3745 18.2536 4.61295 18.2536H4.63194C4.68994 18.2511 4.74787 18.26 4.80243 18.2798C4.85698 18.2995 4.90708 18.3298 4.94988 18.3688C4.99268 18.4079 5.02733 18.4549 5.05186 18.5073C5.07638 18.5596 5.09031 18.6163 5.09283 18.674C5.09535 18.7317 5.08643 18.7893 5.06656 18.8436C5.0467 18.8979 5.01628 18.9477 4.97705 18.9903C4.93782 19.0329 4.89055 19.0674 4.83793 19.0918C4.78531 19.1162 4.72837 19.13 4.67037 19.1325C4.65094 19.1325 4.63239 19.1325 4.61295 19.1325Z" fill="#9B506B"/>
<path d="M18.7845 24.8225C18.1654 24.8225 17.5485 24.7488 16.9471 24.6027C15.3085 24.2072 13.8885 23.1697 13.0462 21.7819C11.9566 22.7395 10.6577 23.3578 9.68159 23.3578C8.74966 23.3578 7.50547 22.7931 6.43397 21.8843C5.19376 20.8301 4.31925 19.4494 3.97165 17.9948C3.85421 17.5043 3.79492 17.0018 3.79498 16.4976C3.79498 14.6647 4.05999 13.142 4.58558 11.9713C5.27503 10.4333 6.41896 9.45816 7.98645 9.07101C8.01057 9.06531 8.03508 9.06135 8.05977 9.05914C8.58191 9.01944 9.10708 9.05736 9.61799 9.17164C10.6239 9.39929 11.5317 9.93765 12.2115 10.7097C12.8823 11.4719 13.3356 12.3991 13.5241 13.3947C13.7489 14.5496 13.5511 15.6578 13.3594 16.7301C13.215 17.5286 13.0825 18.2813 13.1107 19.0486C13.1349 19.6789 13.2866 20.2978 13.5568 20.8683C13.5599 20.8741 13.5626 20.8802 13.5652 20.8864C14.2343 22.2952 15.5761 23.3644 17.156 23.7471C21.2861 24.7478 24.8102 21.7398 27.0662 18.9884L26.9722 18.973L26.7513 18.9374C26.6081 18.9148 26.4737 18.854 26.3624 18.7614C26.2511 18.6688 26.1671 18.548 26.1193 18.4117C26.0716 18.2754 26.0618 18.1288 26.0912 17.9875C26.1205 17.8461 26.1877 17.7153 26.2858 17.609C28.1718 15.5436 29.0595 12.5505 28.6178 9.77236C27.0075 10.827 24.7453 10.8174 22.0639 9.74731C22.0096 9.72613 21.9601 9.69446 21.9182 9.65415C21.8763 9.61384 21.8428 9.56567 21.8197 9.51242C21.7966 9.45918 21.7843 9.40191 21.7836 9.34392C21.7828 9.28593 21.7936 9.22837 21.8153 9.17455C21.8371 9.12073 21.8693 9.07171 21.9101 9.03034C21.9509 8.98896 21.9996 8.95603 22.0533 8.93346C22.107 8.91088 22.1646 8.89911 22.2229 8.89881C22.2812 8.8985 22.339 8.90969 22.3929 8.93171C24.1026 9.61372 26.5005 10.1762 28.2195 8.97961C28.3293 8.90284 28.4569 8.85501 28.5904 8.84056C28.7238 8.82612 28.8588 8.84553 28.9827 8.89699C29.1084 8.94836 29.2189 9.03068 29.3039 9.13622C29.3889 9.24176 29.4455 9.36706 29.4685 9.50035C29.9937 12.5255 29.0626 15.8037 27.0362 18.0928L27.1162 18.106L27.3401 18.142C27.4794 18.1633 27.6106 18.2207 27.7205 18.3085C27.8304 18.3963 27.9152 18.5113 27.9662 18.642C28.0172 18.7727 28.0327 18.9145 28.0111 19.0531C27.9895 19.1917 27.9316 19.3221 27.8432 19.4314C26.3441 21.2823 24.7629 22.6832 23.1442 23.5955C21.6951 24.4125 20.234 24.8225 18.7845 24.8225ZM8.16312 9.93188C6.87432 10.2606 5.96801 11.045 5.39251 12.3286C4.9186 13.3855 4.67833 14.7895 4.67833 16.4967C4.67812 16.9325 4.72941 17.3667 4.83115 17.7905C5.52545 20.6983 8.36629 22.4771 9.68159 22.4771C10.352 22.4771 11.5366 22.0021 12.6351 20.9641C12.3902 20.3651 12.2526 19.7282 12.2283 19.082C12.1951 18.222 12.3449 17.3853 12.4893 16.5772C12.6748 15.5388 12.8501 14.5579 12.6567 13.5635C12.3034 11.7512 11.0636 10.3973 9.42321 10.0299C9.01017 9.93666 8.5857 9.90365 8.16312 9.93188Z" fill="#9B506B"/>
<path d="M9.68159 19.9235C9.18312 19.9195 8.69195 19.804 8.24439 19.5856C8.1429 19.5332 8.06577 19.4438 8.02921 19.336C7.99266 19.2282 7.99953 19.1105 8.04838 19.0077C8.09723 18.9049 8.18425 18.8249 8.29114 18.7846C8.39804 18.7443 8.51649 18.7467 8.62157 18.7915C9.33399 19.1281 10.0261 19.1281 10.7385 18.7915C10.7909 18.7668 10.8477 18.7525 10.9056 18.7496C10.9636 18.7467 11.0215 18.7551 11.0762 18.7745C11.1308 18.7939 11.1811 18.8238 11.2242 18.8624C11.2672 18.9011 11.3022 18.9479 11.327 19C11.3519 19.0522 11.3662 19.1087 11.3692 19.1663C11.3721 19.224 11.3636 19.2816 11.3441 19.336C11.3247 19.3904 11.2946 19.4404 11.2558 19.4832C11.2169 19.5261 11.1699 19.5608 11.1175 19.5856C10.6702 19.8036 10.1796 19.9191 9.68159 19.9235Z" fill="#9B506B"/>
<path d="M7.55405 16.3364C7.43691 16.3364 7.32457 16.2901 7.24174 16.2076C7.15891 16.1252 7.11238 16.0135 7.11238 15.8969V15.2817C7.11238 15.1651 7.15891 15.0534 7.24174 14.971C7.32457 14.8885 7.43691 14.8422 7.55405 14.8422C7.67119 14.8422 7.78353 14.8885 7.86636 14.971C7.94919 15.0534 7.99573 15.1651 7.99573 15.2817V15.8969C7.99573 16.0135 7.94919 16.1252 7.86636 16.2076C7.78353 16.2901 7.67119 16.3364 7.55405 16.3364Z" fill="#9B506B"/>
<path d="M6.71488 14.0275C6.61791 14.0276 6.5236 13.996 6.44651 13.9374C6.36941 13.8789 6.31382 13.7968 6.28829 13.7037C6.26277 13.6106 6.26874 13.5118 6.30529 13.4224C6.34183 13.3331 6.40692 13.2582 6.49051 13.2093C7.18614 12.8019 7.92152 12.8019 8.61716 13.2093C8.71813 13.2683 8.79138 13.3649 8.82078 13.4777C8.85019 13.5906 8.83334 13.7104 8.77395 13.8109C8.71456 13.9113 8.61749 13.9842 8.5041 14.0135C8.39071 14.0427 8.27027 14.0259 8.1693 13.9669C7.74971 13.7208 7.35839 13.7208 6.93836 13.9669C6.87062 14.0065 6.79347 14.0274 6.71488 14.0275Z" fill="#9B506B"/>
<path d="M5.23615 12.1019C5.19118 12.1018 5.14648 12.0949 5.10365 12.0812C5.04832 12.0639 4.99695 12.0359 4.95249 11.9989C4.90802 11.9618 4.87133 11.9164 4.84451 11.8652C4.81768 11.814 4.80126 11.7581 4.79616 11.7006C4.79106 11.6431 4.79739 11.5852 4.8148 11.5301C5.35761 9.81631 6.8593 8.31429 8.641 7.70698C9.95807 7.25787 12.0383 7.07462 14.4675 8.7489C14.5601 8.8166 14.6225 8.91752 14.6415 9.03025C14.6606 9.14297 14.6347 9.25864 14.5694 9.35269C14.5041 9.44675 14.4046 9.5118 14.2919 9.53403C14.1792 9.55627 14.0622 9.53394 13.9658 9.47179C11.8396 8.00624 10.053 8.15565 8.92853 8.53885C7.40344 9.05827 6.11994 10.3362 5.66016 11.7943C5.63183 11.8839 5.57536 11.9621 5.49905 12.0175C5.42274 12.0729 5.3306 12.1024 5.23615 12.1019Z" fill="#9B506B"/>
<path d="M15.3725 16.0296C15.2777 16.0296 15.1854 15.9992 15.1093 15.9429C15.0331 15.8867 14.9773 15.8075 14.9498 15.7172C14.4839 14.187 13.0065 12.0008 11.4302 11.1368C11.3778 11.1099 11.3313 11.0728 11.2936 11.0277C11.2559 10.9826 11.2276 10.9304 11.2105 10.8742C11.1933 10.8181 11.1877 10.7591 11.1938 10.7007C11.2 10.6424 11.2178 10.5858 11.2463 10.5344C11.2747 10.483 11.3133 10.4378 11.3596 10.4015C11.4059 10.3651 11.459 10.3384 11.5159 10.3228C11.5728 10.3073 11.6322 10.3032 11.6907 10.3108C11.7491 10.3185 11.8055 10.3377 11.8564 10.3674C13.65 11.3504 15.2678 13.73 15.7952 15.4623C15.8292 15.5738 15.8172 15.6942 15.762 15.797C15.7067 15.8998 15.6127 15.9765 15.5006 16.0103C15.4591 16.0231 15.416 16.0297 15.3725 16.0296Z" fill="#9B506B"/>
<path d="M20.1077 14.9684C19.962 14.9686 19.8193 14.927 19.6969 14.8484C19.5745 14.7698 19.4776 14.6576 19.4178 14.5254C19.1175 13.8662 18.7301 12.8318 18.5897 11.662C18.4165 10.2237 18.6568 8.95149 19.3043 7.88276C19.8612 6.95992 20.7176 6.19968 21.855 5.6183C21.9591 5.56498 22.0804 5.55502 22.1919 5.59063C22.3035 5.62623 22.3963 5.70447 22.4499 5.80814C22.5035 5.91181 22.5135 6.03241 22.4777 6.14342C22.4419 6.25443 22.3633 6.34675 22.2591 6.40007C21.2719 6.90543 20.5321 7.55669 20.0613 8.33363C18.8834 10.2817 19.6046 12.6872 20.098 13.8768C20.6134 12.4679 22.4221 7.52329 22.6526 6.89357C22.6927 6.78401 22.7748 6.69478 22.881 6.6455C22.9872 6.59621 23.1087 6.59092 23.2188 6.63078C23.3289 6.67064 23.4186 6.75239 23.4682 6.85804C23.5177 6.96369 23.523 7.08459 23.483 7.19415C23.2312 7.88276 21.094 13.7239 20.8206 14.4718C20.7693 14.6129 20.6768 14.7355 20.555 14.8239C20.4332 14.9123 20.2875 14.9625 20.1368 14.9679L20.1077 14.9684Z" fill="#9B506B"/>
<path d="M23.9233 5.14458C23.8523 5.14456 23.7823 5.12749 23.7193 5.09482C23.6563 5.06216 23.6022 5.01486 23.5615 4.95694C23.5208 4.89902 23.4947 4.83219 23.4855 4.76212C23.4763 4.69204 23.4842 4.62079 23.5086 4.55441L24.6799 1.35349C24.7216 1.24614 24.8039 1.15934 24.9092 1.11172C25.0145 1.06411 25.1343 1.05949 25.243 1.09885C25.3517 1.13821 25.4405 1.21842 25.4904 1.32224C25.5403 1.42605 25.5472 1.5452 25.5098 1.65407L24.3385 4.85499C24.3075 4.93984 24.2511 5.01315 24.1768 5.06496C24.1025 5.11678 24.014 5.14457 23.9233 5.14458Z" fill="#9B506B"/>
<path d="M26.1268 4.07315C25.927 4.07285 25.7288 4.03775 25.5412 3.96944C25.1156 3.81484 24.7692 3.49844 24.5781 3.0898C24.3869 2.68116 24.3667 2.21372 24.5218 1.79024L24.7673 1.11965C24.9224 0.695878 25.2403 0.350742 25.6511 0.160165C26.0618 -0.0304128 26.5319 -0.0508206 26.9578 0.103431C27.3837 0.257682 27.7306 0.573957 27.9222 0.982678C28.1137 1.3914 28.1342 1.85909 27.9792 2.28286L27.7314 2.95345C27.6113 3.28104 27.393 3.56406 27.106 3.76429C26.8191 3.96453 26.4773 4.07233 26.1268 4.07315ZM25.8433 3.14373C25.9453 3.1808 26.0536 3.19751 26.1621 3.1929C26.2706 3.18829 26.3771 3.16245 26.4755 3.11687C26.574 3.07128 26.6624 3.00684 26.7358 2.92722C26.8092 2.84761 26.8661 2.75438 26.9033 2.65287L27.1484 1.98228C27.1855 1.88079 27.2021 1.77304 27.1974 1.66516C27.1926 1.55728 27.1665 1.45139 27.1206 1.35354C27.0747 1.25569 27.0099 1.16778 26.9299 1.09485C26.8499 1.02192 26.7562 0.965392 26.6542 0.928488C26.5522 0.891583 26.4439 0.875028 26.3354 0.879767C26.227 0.884507 26.1206 0.910448 26.0222 0.95611C25.9239 1.00177 25.8356 1.06626 25.7623 1.14589C25.689 1.22553 25.6321 1.31875 25.595 1.42023L25.3499 2.09082C25.3125 2.19229 25.2956 2.3001 25.3002 2.40807C25.3048 2.51604 25.3307 2.62206 25.3766 2.72003C25.4224 2.81801 25.4872 2.90602 25.5673 2.97903C25.6474 3.05204 25.7412 3.1086 25.8433 3.14549V3.14373Z" fill="#9B506B"/>
<path d="M23.3076 7.50616C22.9697 7.50616 22.6394 7.40647 22.3585 7.21969C22.0775 7.03292 21.8586 6.76745 21.7293 6.45686C21.6 6.14627 21.5661 5.8045 21.632 5.47478C21.698 5.14505 21.8607 4.84218 22.0996 4.60447C22.3385 4.36675 22.6429 4.20486 22.9743 4.13927C23.3057 4.07369 23.6492 4.10735 23.9614 4.236C24.2735 4.36465 24.5404 4.58252 24.7281 4.86204C24.9158 5.14157 25.016 5.4702 25.016 5.80639C25.0155 6.25705 24.8354 6.68912 24.5151 7.00779C24.1948 7.32646 23.7606 7.50569 23.3076 7.50616ZM23.3076 4.9855C23.1444 4.9855 22.9849 5.03365 22.8492 5.12385C22.7136 5.21405 22.6078 5.34225 22.5454 5.49225C22.4829 5.64224 22.4666 5.8073 22.4984 5.96653C22.5302 6.12577 22.6088 6.27203 22.7242 6.38684C22.8396 6.50164 22.9866 6.57982 23.1466 6.6115C23.3067 6.64317 23.4726 6.62691 23.6233 6.56478C23.7741 6.50265 23.9029 6.39744 23.9936 6.26244C24.0843 6.12745 24.1326 5.96874 24.1326 5.80639C24.1324 5.58875 24.0454 5.38009 23.8907 5.22619C23.7361 5.0723 23.5263 4.98574 23.3076 4.9855Z" fill="#9B506B"/>
</g>
<defs>
<clipPath id="clip0_798_1032">
<rect width="29.1429" height="30" fill="white" transform="translate(0.46875)"/>
</clipPath>
</defs>
</svg>
