<svg width="18" height="18" viewBox="0 0 18 18" fill="none" xmlns="http://www.w3.org/2000/svg">
<g clip-path="url(#clip0_280_3447)">
<path d="M4.02878 17.636C3.83157 17.636 3.63574 17.5745 3.4686 17.4537C3.15727 17.228 3.01183 16.8402 3.09657 16.466L4.25456 11.365L0.327394 7.92098C0.0387204 7.66898 -0.0715577 7.26989 0.0469604 6.90472C0.165478 6.54024 0.487935 6.28219 0.86972 6.2469L6.06584 5.77516L8.1202 0.967559C8.27167 0.61434 8.61665 0.38623 8.99995 0.38623C9.38324 0.38623 9.72822 0.61434 9.8797 0.966735L11.9341 5.77516L17.1294 6.2469C17.512 6.28137 17.8344 6.54024 17.9529 6.90472C18.0715 7.2692 17.9619 7.66898 17.6732 7.92098L13.746 11.3643L14.904 16.4651C14.9889 16.8402 14.8433 17.228 14.5321 17.453C14.2216 17.6779 13.8076 17.6952 13.4806 17.4987L8.99995 14.8211L4.51933 17.5002C4.36786 17.5902 4.19907 17.636 4.02878 17.636ZM8.99995 13.6677C9.17024 13.6677 9.33889 13.7134 9.4905 13.8034L13.7191 16.3325L12.6262 11.518C12.5482 11.1754 12.6645 10.8176 12.9293 10.5858L16.6374 7.33375L11.7315 6.88824C11.3783 6.85597 11.0745 6.6339 10.9365 6.30842L8.99995 1.7715L7.06109 6.30911C6.92458 6.63239 6.6208 6.85446 6.2684 6.88673L1.36178 7.33224L5.06976 10.5843C5.33536 10.8168 5.45155 11.1738 5.37286 11.5173L4.28079 16.3316L8.5094 13.8034C8.66087 13.7134 8.82966 13.6677 8.99995 13.6677ZM6.02615 5.86814C6.02615 5.86814 6.02615 5.86896 6.02532 5.86965L6.02615 5.86814ZM11.9722 5.86594L11.9731 5.86745C11.9731 5.86663 11.9731 5.86663 11.9722 5.86594Z" fill="#ABCA74"/>
</g>
<defs>
<clipPath id="clip0_280_3447">
<rect width="18" height="18" fill="white"/>
</clipPath>
</defs>
</svg>
