<svg width="18" height="18" viewBox="0 0 18 18" fill="none" xmlns="http://www.w3.org/2000/svg">
<g clip-path="url(#clip0_280_3335)">
<path d="M0.703268 18C0.592456 18 0.483211 17.9738 0.384439 17.9236C0.285667 17.8734 0.200164 17.8005 0.134901 17.7109C0.0696378 17.6214 0.0264622 17.5177 0.00889402 17.4083C-0.00867414 17.2989 -0.000137446 17.1869 0.0338081 17.0814L1.19396 13.4802C0.108574 11.5884 -0.252778 9.3668 0.177109 7.22856C0.606996 5.09033 1.79886 3.18101 3.53103 1.8557C5.2632 0.530397 7.41776 -0.120676 9.59401 0.023574C11.7703 0.167824 13.82 1.09758 15.3621 2.63991C16.9042 4.18225 17.8336 6.23218 17.9776 8.40845C18.1215 10.5847 17.47 12.7392 16.1445 14.4711C14.8189 16.2031 12.9094 17.3947 10.7711 17.8242C8.63277 18.2537 6.41123 17.892 4.51964 16.8064L0.918687 17.9665C0.849079 17.9889 0.776385 18.0002 0.703268 18ZM4.6077 15.3369C4.73956 15.3369 4.86875 15.374 4.98053 15.444C6.18578 16.1971 7.5787 16.5958 8.99993 16.5944C13.1873 16.5944 16.5936 13.188 16.5936 9.00066C16.5936 4.8133 13.1873 1.40694 8.99993 1.40694C4.81257 1.40694 1.40621 4.81357 1.40621 9.00066C1.40538 10.4218 1.8044 11.8145 2.55766 13.0195C2.612 13.1063 2.64672 13.2039 2.65938 13.3055C2.67204 13.4072 2.66234 13.5103 2.63096 13.6078L1.79302 16.2073L4.39255 15.3701C4.46206 15.3477 4.53465 15.3362 4.6077 15.3361V15.3369Z" fill="#ABCA74"/>
<path d="M9.87925 8.99988C9.8793 9.17375 9.82779 9.34374 9.73123 9.48834C9.63466 9.63294 9.49739 9.74565 9.33676 9.81223C9.17614 9.8788 8.99938 9.89625 8.82883 9.86236C8.65829 9.82847 8.50163 9.74477 8.37866 9.62184C8.2557 9.49891 8.17195 9.34227 8.138 9.17174C8.10406 9.00121 8.12146 8.82444 8.18798 8.66379C8.25451 8.50315 8.36719 8.36584 8.51176 8.26923C8.65632 8.17263 8.8263 8.12106 9.00017 8.12106C9.23327 8.12106 9.45683 8.21364 9.62168 8.37845C9.78653 8.54325 9.87918 8.76678 9.87925 8.99988Z" fill="#ABCA74"/>
<path d="M13.3949 8.99988C13.3949 9.17376 13.3434 9.34376 13.2468 9.48837C13.1503 9.63297 13.013 9.74568 12.8523 9.81225C12.6917 9.87882 12.5149 9.89625 12.3444 9.86234C12.1738 9.82843 12.0172 9.7447 11.8942 9.62174C11.7712 9.49879 11.6875 9.34212 11.6536 9.17158C11.6197 9.00103 11.6371 8.82425 11.7037 8.66361C11.7703 8.50297 11.883 8.36568 12.0276 8.2691C12.1722 8.17253 12.3422 8.12101 12.5161 8.12106C12.7491 8.12113 12.9726 8.21374 13.1374 8.37854C13.3022 8.54333 13.3948 8.76682 13.3949 8.99988Z" fill="#ABCA74"/>
<path d="M6.3631 8.99986C6.3631 9.17367 6.31156 9.34359 6.21499 9.48811C6.11843 9.63263 5.98117 9.74526 5.82059 9.81178C5.66001 9.8783 5.48331 9.8957 5.31284 9.86179C5.14236 9.82788 4.98577 9.74418 4.86287 9.62128C4.73996 9.49837 4.65626 9.34178 4.62236 9.17131C4.58845 9.00084 4.60585 8.82414 4.67236 8.66355C4.73888 8.50297 4.85152 8.36572 4.99604 8.26916C5.14056 8.17259 5.31047 8.12105 5.48428 8.12105C5.71734 8.12112 5.94083 8.21373 6.10562 8.37852C6.27042 8.54332 6.36303 8.76681 6.3631 8.99986Z" fill="#ABCA74"/>
</g>
<defs>
<clipPath id="clip0_280_3335">
<rect width="18" height="18" fill="white"/>
</clipPath>
</defs>
</svg>
