<svg width="18" height="18" viewBox="0 0 18 18" fill="none" xmlns="http://www.w3.org/2000/svg">
<g clip-path="url(#clip0_970_1457)">
<path d="M8.9999 3.43124C7.89851 3.43124 6.82185 3.75785 5.90607 4.36975C4.9903 4.98165 4.27654 5.85137 3.85505 6.86893C3.43357 7.88648 3.32329 9.00617 3.53816 10.0864C3.75303 11.1666 4.2834 12.1589 5.0622 12.9377C5.84101 13.7165 6.83326 14.2469 7.9135 14.4617C8.99373 14.6766 10.1134 14.5663 11.131 14.1448C12.1485 13.7234 13.0182 13.0096 13.6301 12.0938C14.2421 11.178 14.5687 10.1014 14.5687 8.99999C14.5669 7.52361 13.9796 6.10819 12.9357 5.06422C11.8917 4.02026 10.4763 3.43299 8.9999 3.43124ZM12.0781 8.05903L10.7808 9.09692C10.7275 9.13958 10.6881 9.19722 10.6678 9.26242C10.6474 9.32762 10.647 9.39742 10.6666 9.46285L11.2614 11.445C11.2821 11.5141 11.2805 11.588 11.2568 11.6561C11.2331 11.7242 11.1885 11.7831 11.1293 11.8244C11.0702 11.8656 10.9995 11.8872 10.9274 11.886C10.8553 11.8847 10.7854 11.8608 10.7277 11.8175L9.20533 10.6758C9.14607 10.6313 9.07399 10.6073 8.9999 10.6073C8.92582 10.6073 8.85374 10.6313 8.79448 10.6758L7.27216 11.8175C7.21445 11.8608 7.14457 11.8847 7.07245 11.886C7.00033 11.8872 6.92967 11.8656 6.87052 11.8244C6.81137 11.7831 6.76676 11.7242 6.74303 11.6561C6.7193 11.588 6.71768 11.5141 6.73838 11.445L7.33321 9.46285C7.35282 9.39742 7.35242 9.32762 7.33207 9.26242C7.31172 9.19722 7.27235 9.13958 7.219 9.09692L5.92166 8.05903C5.86625 8.01469 5.82598 7.95423 5.80641 7.88601C5.78684 7.81779 5.78894 7.74518 5.81243 7.67821C5.83591 7.61123 5.87962 7.55321 5.9375 7.51215C5.99539 7.47109 6.0646 7.44902 6.13557 7.44899H7.62182C7.68884 7.44899 7.7544 7.42933 7.81035 7.39243C7.86631 7.35554 7.91022 7.30304 7.93663 7.24143L8.68509 5.4951C8.7115 5.43349 8.7554 5.38098 8.81136 5.34408C8.86732 5.30718 8.93287 5.28751 8.9999 5.28751C9.06694 5.28751 9.13249 5.30718 9.18845 5.34408C9.24441 5.38098 9.28831 5.43349 9.31472 5.4951L10.0632 7.24143C10.0896 7.30304 10.1335 7.35554 10.1895 7.39243C10.2454 7.42933 10.311 7.44899 10.378 7.44899H11.8642C11.9352 7.44902 12.0044 7.47109 12.0623 7.51215C12.1202 7.55321 12.1639 7.61123 12.1874 7.67821C12.2109 7.74518 12.213 7.81779 12.1934 7.88601C12.1738 7.95423 12.1336 8.01469 12.0781 8.05903Z" fill="#529E66"/>
<path d="M9.0001 0.131256C7.24603 0.131256 5.53135 0.651399 4.07289 1.62591C2.61443 2.60042 1.4777 3.98553 0.806445 5.60608C0.13519 7.22663 -0.0404405 9.00984 0.301762 10.7302C0.643965 12.4506 1.48863 14.0308 2.72895 15.2712C3.96927 16.5115 5.54952 17.3561 7.26989 17.6983C8.99026 18.0405 10.7735 17.8649 12.394 17.1937C14.0146 16.5224 15.3997 15.3857 16.3742 13.9272C17.3487 12.4688 17.8689 10.7541 17.8689 9.00001C17.8662 6.64867 16.931 4.39439 15.2684 2.73175C13.6057 1.0691 11.3514 0.133876 9.0001 0.131256ZM9.0001 15.8063C7.65395 15.8063 6.33803 15.4071 5.21875 14.6592C4.09947 13.9113 3.2271 12.8483 2.71195 11.6046C2.1968 10.361 2.06201 8.99246 2.32463 7.67217C2.58725 6.35189 3.23548 5.13913 4.18736 4.18726C5.13923 3.23539 6.35198 2.58716 7.67227 2.32454C8.99255 2.06192 10.3611 2.1967 11.6047 2.71185C12.8484 3.227 13.9114 4.09937 14.6593 5.21866C15.4072 6.33794 15.8064 7.65386 15.8064 9.00001C15.8042 10.8045 15.0865 12.5345 13.8105 13.8104C12.5346 15.0864 10.8046 15.8041 9.0001 15.8063Z" fill="#529E66"/>
</g>
<defs>
<clipPath id="clip0_970_1457">
<rect width="18" height="18" fill="white"/>
</clipPath>
</defs>
</svg>
