<svg width="18" height="18" viewBox="0 0 18 18" fill="none" xmlns="http://www.w3.org/2000/svg">
<g clip-path="url(#clip0_280_3493)">
<path d="M9 0C4.03053 0 0 4.02955 0 9C0 13.9704 4.03053 18 9 18C13.9714 18 18 13.9704 18 9C18 4.02955 13.9714 0 9 0ZM8.97992 2.52588L8.98188 0.921796H8.98286C11.1487 0.921796 13.1691 1.75494 14.6919 3.26645L12.4325 5.54351C11.52 4.6369 10.3078 4.13535 9.02204 4.12947H8.97992V2.52588ZM0.922286 9.01322V9C0.922286 6.8498 1.75641 4.82645 3.27282 3.30269L5.54694 5.56506C4.63347 6.48343 4.12996 7.70351 4.12996 9L0.922286 9.01322ZM9.08033 17.0787H9C6.84735 17.0787 4.82155 16.2416 3.29633 14.7218L5.56163 12.4491C6.47216 13.3572 7.67951 13.8607 8.96424 13.87H9.00637V15.4736L9.15918 17.0699L9.08033 17.0787ZM9 12.9433C6.82335 12.9433 5.05665 11.1776 5.05665 9C5.05665 6.82188 6.82237 5.05665 9 5.05665C11.1781 5.05665 12.9433 6.82237 12.9433 9C12.9433 11.1781 11.1781 12.9433 9 12.9433ZM14.7159 14.7096L12.4467 12.4418C13.3651 11.5224 13.8691 10.3004 13.8691 9.00049L17.0787 8.97306V9.00049C17.0787 11.1561 16.2397 13.1838 14.7159 14.7096Z" fill="#ABCA74"/>
</g>
<defs>
<clipPath id="clip0_280_3493">
<rect width="18" height="18" fill="white"/>
</clipPath>
</defs>
</svg>
